<svg width="160" height="80" viewBox="0 0 160 80" fill="none" xmlns="http://www.w3.org/2000/svg">
	<rect width="160" height="80" fill="white" />
	<g clip-path="url(#clip0_13428_2347)">
		<path opacity="0.84" fill-rule="evenodd" clip-rule="evenodd" d="M79.9952 54.3755C88.4901 54.3755 95.379 54.6191 95.379 54.9213C95.379 55.2234 88.4901 55.467 79.9952 55.467C71.5002 55.467 64.6113 55.2234 64.6113 54.9213C64.6113 54.6191 71.5002 54.3755 79.9952 54.3755Z" fill="#B9B9B9" />
		<path d="M111.131 66.4411V60.3596H114.826V61.6948H112.737V62.7474H114.71V64.0533H112.737V65.0767H114.826V66.4411H111.131ZM110.24 66.4411H108.702L108.344 63.8097C108.325 63.6245 108.296 63.4198 108.276 63.1859C108.257 62.9618 108.238 62.7084 108.218 62.4452C108.18 62.6986 108.102 63.0203 107.996 63.4101C107.976 63.4881 107.957 63.5465 107.938 63.5855L107.115 66.4314H106.022L105.2 63.5855C105.19 63.5465 105.17 63.4881 105.151 63.4101C105.035 63.03 104.958 62.7084 104.929 62.455C104.909 62.6889 104.89 62.913 104.871 63.1372C104.851 63.3614 104.822 63.5855 104.793 63.8097L104.435 66.4411H102.906L103.835 60.3596H105.47L106.38 63.4978C106.39 63.5173 106.399 63.5563 106.409 63.605C106.496 63.8876 106.544 64.1216 106.573 64.3262C106.583 64.219 106.602 64.1021 106.631 63.9656C106.66 63.8389 106.699 63.6732 106.757 63.4881L107.676 60.3596H109.312L110.24 66.4411ZM96.511 66.4411L98.5912 60.3596H100.652L102.742 66.4411H101.107L100.797 65.3496H98.4558L98.1462 66.4411H96.511ZM98.8138 64.1703H100.449L99.8297 62.1626C99.8103 62.1041 99.7813 62.0067 99.7523 61.8702C99.7232 61.7338 99.6749 61.5583 99.6265 61.3439C99.5878 61.4901 99.5588 61.6363 99.5201 61.7728C99.491 61.9092 99.4523 62.0359 99.4136 62.1626L98.8138 64.1703ZM90.0189 66.4411V60.3596H91.6056L93.889 63.4881C93.9374 63.5563 94.0051 63.683 94.1019 63.8682C94.1986 64.0631 94.3147 64.2872 94.4308 64.5601C94.4018 64.3067 94.3728 64.0826 94.3631 63.8876C94.3437 63.6927 94.3437 63.5173 94.3437 63.3614V60.3596H95.9208V66.4411H94.3437L92.0604 63.3029C92.012 63.2347 91.9443 63.108 91.8378 62.9228C91.7411 62.7279 91.625 62.5037 91.5089 62.2406C91.5379 62.494 91.5669 62.7181 91.5766 62.9228C91.5959 63.1177 91.5959 63.2931 91.5959 63.4491V66.4508H90.0189V66.4411ZM82.743 64.4822C82.9849 64.7648 83.2267 64.9695 83.4686 65.1059C83.7105 65.2423 83.9427 65.3106 84.1749 65.3106C84.3975 65.3106 84.5716 65.2521 84.7168 65.1351C84.8619 65.0182 84.9296 64.8623 84.9296 64.6868C84.9296 64.4822 84.8716 64.3262 84.7458 64.219C84.62 64.1118 84.3491 63.9949 83.9137 63.8779C83.3235 63.722 82.9075 63.5076 82.6559 63.2542C82.414 63.0008 82.2882 62.6402 82.2882 62.1918C82.2882 61.6071 82.4817 61.1393 82.8688 60.7689C83.2558 60.3986 83.7589 60.2231 84.3684 60.2231C84.6974 60.2231 85.0167 60.2719 85.3166 60.3596C85.6166 60.4473 85.8972 60.5838 86.1681 60.7689L85.6553 61.9579C85.4714 61.802 85.2779 61.6753 85.0747 61.5973C84.8812 61.5194 84.6877 61.4706 84.4942 61.4706C84.291 61.4706 84.1362 61.5194 84.0105 61.6168C83.8847 61.7143 83.8266 61.8312 83.8266 61.9872C83.8266 62.1431 83.8847 62.2601 83.9911 62.3575C84.0975 62.4452 84.3104 62.533 84.62 62.6207L84.6974 62.6402C85.365 62.8253 85.8101 63.0203 86.0229 63.2444C86.1681 63.3906 86.2745 63.5758 86.3519 63.7804C86.4293 63.9851 86.4583 64.219 86.4583 64.4724C86.4583 65.1156 86.2455 65.6322 85.8294 66.0318C85.4134 66.4216 84.8522 66.6165 84.1459 66.6165C83.7299 66.6165 83.3429 66.5483 82.9945 66.4021C82.6462 66.2559 82.3173 66.0318 81.998 65.7199L82.743 64.4822ZM77.8376 64.4822C78.0795 64.7648 78.3213 64.9695 78.5632 65.1059C78.8051 65.2423 79.0373 65.3106 79.2695 65.3106C79.4921 65.3106 79.6662 65.2521 79.8113 65.1351C79.9565 65.0182 80.0242 64.8623 80.0242 64.6868C80.0242 64.4822 79.9662 64.3262 79.8404 64.219C79.7146 64.1118 79.4437 63.9949 79.0083 63.8779C78.4181 63.722 78.0021 63.5076 77.7505 63.2542C77.5086 63.0008 77.3828 62.6402 77.3828 62.1918C77.3828 61.6071 77.5763 61.1393 77.9634 60.7689C78.3504 60.3986 78.8535 60.2231 79.463 60.2231C79.792 60.2231 80.1113 60.2719 80.4112 60.3596C80.7112 60.4473 80.9917 60.5838 81.2626 60.7689L80.7499 61.9579C80.566 61.802 80.3725 61.6753 80.1693 61.5973C79.9758 61.5194 79.7823 61.4706 79.5888 61.4706C79.3856 61.4706 79.2308 61.5194 79.105 61.6168C78.9793 61.7143 78.9212 61.8312 78.9212 61.9872C78.9212 62.1431 78.9793 62.2601 79.0857 62.3575C79.1921 62.4452 79.405 62.533 79.7146 62.6207L79.792 62.6402C80.4596 62.8253 80.9047 63.0203 81.1175 63.2444C81.2626 63.3906 81.3691 63.5758 81.4465 63.7804C81.5239 63.9851 81.5529 64.219 81.5529 64.4724C81.5529 65.1156 81.3401 65.6322 80.924 66.0318C80.508 66.4216 79.9468 66.6165 79.2405 66.6165C78.8148 66.6165 78.4374 66.5483 78.0891 66.4021C77.7408 66.2559 77.4119 66.0318 77.0926 65.7199L77.8376 64.4822ZM72.7774 66.4411V60.3596H76.4733V61.6948H74.3835V62.7474H76.3572V64.0533H74.3835V65.0767H76.4733V66.4411H72.7774ZM65.5789 66.4411V60.3596H67.1656L69.449 63.4881C69.4974 63.5563 69.5651 63.683 69.6619 63.8682C69.7586 64.0631 69.8747 64.2872 69.9908 64.5601C69.9618 64.3067 69.9328 64.0826 69.9231 63.8876C69.9038 63.6927 69.9038 63.5173 69.9038 63.3614V60.3596H71.4809V66.4411H69.9038L67.6204 63.3029C67.572 63.2347 67.5043 63.108 67.3979 62.9228C67.3011 62.7279 67.185 62.5037 67.0689 62.2406C67.0979 62.494 67.1269 62.7181 67.1366 62.9228C67.156 63.1177 67.156 63.2931 67.156 63.4491V66.4508H65.5789V66.4411ZM62.5892 66.4411V60.3596H64.2534V66.4411H62.5892ZM57.916 64.4822C58.1579 64.7648 58.3998 64.9695 58.6416 65.1059C58.8835 65.2423 59.1157 65.3106 59.3479 65.3106C59.5705 65.3106 59.7446 65.2521 59.8898 65.1351C60.0349 65.0182 60.1026 64.8623 60.1026 64.6868C60.1026 64.4822 60.0446 64.3262 59.9188 64.219C59.793 64.1118 59.5221 63.9949 59.0867 63.8779C58.4965 63.722 58.0805 63.5076 57.8289 63.2542C57.587 63.0008 57.4612 62.6402 57.4612 62.1918C57.4612 61.6071 57.6548 61.1393 58.0418 60.7689C58.4288 60.3986 58.9319 60.2231 59.5415 60.2231C59.8704 60.2231 60.1897 60.2719 60.4896 60.3596C60.7896 60.4473 61.0702 60.5838 61.3411 60.7689L60.8283 61.9579C60.6444 61.802 60.4509 61.6753 60.2478 61.5973C60.0542 61.5194 59.8607 61.4706 59.6672 61.4706C59.4641 61.4706 59.3092 61.5194 59.1835 61.6168C59.0577 61.7143 58.9996 61.8312 58.9996 61.9872C58.9996 62.1431 59.0577 62.2601 59.1641 62.3575C59.2705 62.4452 59.4834 62.533 59.793 62.6207L59.8704 62.6402C60.538 62.8253 60.9831 63.0203 61.1959 63.2444C61.3411 63.3906 61.4475 63.5758 61.5249 63.7804C61.6023 63.9851 61.6313 64.219 61.6313 64.4724C61.6313 65.1156 61.4185 65.6322 61.0024 66.0318C60.5767 66.4216 60.0252 66.6165 59.3189 66.6165C58.8932 66.6165 58.5159 66.5483 58.1676 66.4021C57.8192 66.2559 57.4903 66.0318 57.171 65.7199L57.916 64.4822ZM51.0175 60.3596H52.6623V63.3126C52.6623 63.7512 52.6719 64.0631 52.6913 64.2483C52.7106 64.4334 52.7493 64.5991 52.8074 64.7258C52.8654 64.8817 52.9816 64.9987 53.1364 65.0864C53.2912 65.1644 53.4847 65.2131 53.7072 65.2131C53.9297 65.2131 54.1232 65.1741 54.2781 65.0864C54.4329 65.0084 54.5393 64.8817 54.607 64.7258C54.6651 64.5991 54.6941 64.4432 54.7231 64.2483C54.7425 64.0533 54.7521 63.7415 54.7521 63.3126V62.8936V60.3498H56.3873V63.566C56.3873 64.2288 56.3486 64.7258 56.2712 65.0377C56.1938 65.3593 56.0583 65.6224 55.8648 65.8466C55.6616 66.0902 55.3714 66.2754 55.0134 66.4021C54.6554 66.5288 54.22 66.5873 53.6975 66.5873C53.1847 66.5873 52.7397 66.5288 52.3817 66.4021C52.0237 66.2754 51.7431 66.0902 51.5302 65.8466C51.3464 65.6224 51.211 65.3495 51.1239 65.0377C51.0465 64.7161 50.9981 64.2288 50.9981 63.566V62.9423V60.3596H51.0175ZM46.857 65.2034H47.4376C47.8246 65.2034 48.1052 65.1546 48.2697 65.0572C48.4341 64.9597 48.5115 64.794 48.5115 64.5699C48.5115 64.3165 48.4341 64.141 48.289 64.0338C48.1439 63.9364 47.8633 63.8779 47.4666 63.8779H46.8667V65.2034H46.857ZM45.3283 66.4411V60.3596H46.9828C47.6601 60.3596 48.1439 60.3791 48.4148 60.4278C48.6857 60.4765 48.9179 60.5448 49.1114 60.652C49.3339 60.7787 49.4984 60.9443 49.6242 61.149C49.7403 61.3634 49.7984 61.5973 49.7984 61.8702C49.7984 62.2211 49.7113 62.494 49.5371 62.6986C49.363 62.9033 49.0824 63.0592 48.705 63.1664C49.1308 63.1957 49.4694 63.3516 49.7113 63.6245C49.9532 63.8974 50.0789 64.258 50.0789 64.7063C50.0789 65.0279 50.0112 65.3106 49.8758 65.564C49.7403 65.8076 49.5468 66.0025 49.2952 66.139C49.0921 66.2462 48.8308 66.3339 48.5309 66.3729C48.2309 66.4216 47.7375 66.4411 47.0506 66.4411H45.3283ZM46.857 62.7961H47.186C47.5924 62.7961 47.873 62.7474 48.0278 62.6596C48.1826 62.5719 48.2503 62.416 48.2503 62.1918C48.2503 61.9579 48.1826 61.802 48.0374 61.7045C47.8923 61.6168 47.6214 61.5681 47.215 61.5681H46.857V62.7961Z" fill="#B9B9B9" />
		<path d="M96.7626 72.9218V68.8577H99.2201V69.345H97.3237V70.5535H99.0073V71.0311H97.3237V72.4345H99.3652V72.9218H96.7626ZM94.2179 69.3158C93.9761 69.3158 93.7922 69.3255 93.6665 69.3353V70.8654H94.0728C94.2663 70.8654 94.4405 70.8557 94.5953 70.8362C94.7501 70.8167 94.8856 70.7777 94.992 70.729C95.0984 70.6705 95.1855 70.5925 95.2435 70.4951C95.3016 70.3976 95.3306 70.2612 95.3306 70.0955C95.3306 69.9395 95.3016 69.8128 95.2435 69.7154C95.1855 69.6179 95.1081 69.5302 95.0113 69.4717C94.9146 69.4133 94.7985 69.3743 94.663 69.345C94.5082 69.3255 94.3728 69.3158 94.2179 69.3158ZM95.0694 71.2163C95.1274 71.2942 95.2145 71.4014 95.3016 71.5281C95.3983 71.6548 95.4951 71.7913 95.5919 71.9472C95.6886 72.1032 95.795 72.2591 95.8918 72.4345C95.9885 72.6002 96.0756 72.7659 96.1433 72.9218H95.5241C95.4467 72.7756 95.3596 72.6197 95.2726 72.4735C95.1855 72.3176 95.0887 72.1714 94.992 72.0349C94.8952 71.8985 94.8081 71.762 94.7114 71.6451C94.6243 71.5281 94.5372 71.4209 94.4598 71.3332C94.4115 71.3332 94.3534 71.343 94.305 71.343C94.2566 71.343 94.1986 71.343 94.1405 71.343H93.6665V72.9316H93.1053V68.926C93.2601 68.887 93.4439 68.8577 93.6374 68.848C93.8309 68.8382 94.0148 68.8285 94.1792 68.8285C94.7501 68.8285 95.1758 68.9357 95.4757 69.1501C95.7757 69.3645 95.9208 69.6861 95.9208 70.115C95.9208 70.3879 95.8531 70.612 95.708 70.8069C95.5531 70.9824 95.35 71.1286 95.0694 71.2163ZM89.777 72.9218V68.8577H92.2345V69.345H90.3381V70.5535H92.0216V71.0311H90.3381V72.4345H92.3796V72.9218H89.777ZM88.2095 68.8577H88.7707V72.9218H88.2095V71.0506H86.2358V72.9218H85.6746V68.8577H86.2358V70.5535H88.2095V68.8577ZM81.0111 72.9218V68.8577H83.4686V69.345H81.5722V70.5535H83.2558V71.0311H81.5722V72.4345H83.6137V72.9218H81.0111ZM79.5307 72.9218C79.4437 72.7756 79.3469 72.6197 79.2405 72.4345C79.1341 72.2591 79.0083 72.0642 78.8825 71.879C78.7567 71.6841 78.6213 71.4892 78.4858 71.2942C78.3503 71.0993 78.2149 70.9044 78.0794 70.7192C77.944 70.534 77.8085 70.3586 77.6827 70.1929C77.557 70.0273 77.4409 69.8811 77.3248 69.7544V72.9218H76.7733V68.8577H77.2183C77.4022 69.0527 77.5957 69.2768 77.7989 69.54C78.002 69.8031 78.2149 70.0662 78.4181 70.3391C78.6213 70.612 78.8148 70.8849 78.9986 71.148C79.1824 71.4112 79.3276 71.6548 79.4533 71.8595V68.848H80.0048V72.9121H79.5307V72.9218ZM75.2059 68.8577H75.767V72.9218H75.2059V68.8577ZM74.6157 72.4248V72.9218H72.1871V68.8577H72.7483V72.4248H74.6157ZM70.7358 70.9239H71.297V72.8244C71.2486 72.8439 71.1809 72.8536 71.0938 72.8731C71.0067 72.8926 70.91 72.9121 70.7939 72.9316C70.6778 72.9511 70.552 72.9706 70.4165 72.9803C70.2811 72.99 70.1456 72.9998 70.0005 72.9998C69.7199 72.9998 69.4587 72.9511 69.2265 72.8633C68.9943 72.7659 68.7911 72.6294 68.6266 72.454C68.4621 72.2786 68.3267 72.0544 68.2396 71.7913C68.1525 71.5281 68.1041 71.226 68.1041 70.8849C68.1041 70.5438 68.1525 70.2417 68.2589 69.9785C68.3654 69.7154 68.5008 69.4912 68.675 69.3158C68.8491 69.1404 69.0523 69.0039 69.2845 68.9065C69.5167 68.809 69.7683 68.77 70.0392 68.77C70.223 68.77 70.3875 68.7798 70.523 68.809C70.6681 68.8285 70.7842 68.8577 70.8906 68.887C70.9874 68.9162 71.0745 68.9454 71.1422 68.9844C71.2099 69.0137 71.2486 69.0429 71.2777 69.0527L71.0938 69.5302C70.9777 69.4522 70.8326 69.3938 70.6488 69.345C70.4649 69.2963 70.2714 69.2671 70.0779 69.2671C69.8747 69.2671 69.6812 69.3061 69.5167 69.3743C69.3523 69.4522 69.2071 69.5594 69.0813 69.6959C68.9652 69.8323 68.8685 70.0078 68.8008 70.2124C68.733 70.4171 68.704 70.6413 68.704 70.8849C68.704 71.1286 68.733 71.3527 68.7911 71.5476C68.8491 71.7426 68.9362 71.918 69.0426 72.0642C69.1588 72.2104 69.2942 72.3176 69.4684 72.3955C69.6328 72.4735 69.836 72.5125 70.0682 72.5125C70.2327 72.5125 70.3682 72.5027 70.4843 72.4833C70.6004 72.4638 70.6778 72.4443 70.7358 72.4345V70.9239ZM66.5851 71.4112C66.4593 71.0701 66.3335 70.7387 66.2174 70.4268C66.0917 70.1052 65.9659 69.8031 65.8401 69.5107C65.7046 69.8031 65.5789 70.1052 65.4531 70.4268C65.3273 70.7485 65.2112 71.0701 65.0854 71.4112H66.5851ZM67.1076 72.9218C67.0398 72.7464 66.9818 72.571 66.9237 72.4053C66.8657 72.2396 66.8076 72.0642 66.7399 71.8887H64.9113L64.5436 72.9218H63.9631C64.1179 72.493 64.263 72.0934 64.3985 71.7328C64.5339 71.3722 64.6694 71.0213 64.7952 70.69C64.9209 70.3586 65.0564 70.0467 65.1822 69.7446C65.308 69.4425 65.4434 69.1501 65.5789 68.8577H66.1013C66.2368 69.1501 66.3722 69.4425 66.5077 69.7446C66.6335 70.0467 66.7689 70.3586 66.8947 70.69C67.0205 71.0213 67.156 71.3625 67.2914 71.7328C67.4269 72.0934 67.572 72.493 67.7268 72.9218H67.1076ZM63.8179 68.8577V69.3548H62.5505V72.9218H61.9893V69.3548H60.7218V68.8577H63.8179Z" fill="#B9B9B9" />
		<path fill-rule="evenodd" clip-rule="evenodd" d="M67.3301 49.5314H72.816L89.7092 32.5149H92.6602L96.8884 28.2656H79.9952L84.2233 32.5149L67.3301 49.5314Z" fill="#E3E3E3" />
		<path fill-rule="evenodd" clip-rule="evenodd" d="M92.6602 32.5149V35.4972L78.7374 49.5314H84.2233L92.6602 41.0232L96.8883 45.2724V28.2656L92.6602 32.5149Z" fill="#E3E3E3" />
		<path fill-rule="evenodd" clip-rule="evenodd" d="M96.8884 32.5149V38.0408L110.821 24.0066H113.772L118 19.7573H101.107L105.325 24.0066L96.8884 32.5149Z" fill="#B9B9B9" />
		<path fill-rule="evenodd" clip-rule="evenodd" d="M113.772 24.0066V26.9889L91.6733 49.5314H97.1593L113.772 32.5149L118 36.7739V19.7573L113.772 24.0066Z" fill="#B9B9B9" />
		<path fill-rule="evenodd" clip-rule="evenodd" d="M92.6602 28.2658H87.1743L101.107 14.2315V11.2493L105.325 7V24.0068L101.107 19.7575L92.6602 28.2658Z" fill="#E3E3E3" />
		<path fill-rule="evenodd" clip-rule="evenodd" d="M101.107 11.2493H98.1461L84.2233 25.2835V19.7575L92.6602 11.2493L88.4418 7H105.325L101.107 11.2493Z" fill="#E3E3E3" />
		<path fill-rule="evenodd" clip-rule="evenodd" d="M59.2221 49.5316H53.7362L79.9952 22.7398V19.7576L84.2233 15.5083V32.5151L79.9952 28.2658L59.2221 49.5316Z" fill="#B9B9B9" />
		<path fill-rule="evenodd" clip-rule="evenodd" d="M79.9952 19.7576H77.0442L47.4859 49.5316H42L71.5582 19.7576L67.3301 15.5083H84.2233L79.9952 19.7576Z" fill="#B9B9B9" />
	</g>
	<defs>
		<clipPath id="clip0_13428_2347">
			<rect width="76" height="66" fill="white" transform="translate(42 7)" />
		</clipPath>
	</defs>
</svg>
