<svg width="160" height="80" viewBox="0 0 160 80" fill="none" xmlns="http://www.w3.org/2000/svg">
	<rect width="160" height="80" fill="white" />
	<path d="M65.9719 53.383L64.1897 50.3278L50.3565 26.353H46.877L62.45 53.383H65.9719Z" fill="#B9B9B9" />
	<path d="M79.9317 53.383L78.192 50.3278L76.4522 47.3151L74.67 44.3023L72.9303 41.2895L71.1905 38.2343L64.3163 26.353H60.8368L69.4508 41.2895L71.1905 44.3023L72.9303 47.3151L74.67 50.3278L76.4522 53.383H76.4098H76.4522H79.9317Z" fill="#B9B9B9" />
	<path d="M85.151 50.3278L83.4113 47.3151L81.6715 44.3023L79.9317 41.2895L78.192 38.2343L76.4522 35.2216L74.67 32.2088L71.3178 26.353H67.8383L72.9302 35.2216L76.4522 41.2895L78.192 44.3023L79.9317 47.3151L81.6715 50.3278L83.4113 53.383H86.8908H86.9332H86.8908L85.151 50.3278Z" fill="#B9B9B9" />
	<path d="M92.7046 7.0459H89.1826L76.4526 29.1536L78.1924 32.1664L92.7046 7.0459Z" fill="#B9B9B9" />
	<path d="M69.4508 53.383H72.9303L71.1905 50.3278L69.4508 47.3151L67.711 44.3023L57.3573 26.353H53.8353L65.9712 47.3151L67.711 50.3278L69.4508 53.383Z" fill="#B9B9B9" />
	<path d="M81.6715 38.1919L99.6632 7.0459H96.1837L79.9318 35.1791L79.9742 35.2216L81.6715 38.1919Z" fill="#B9B9B9" />
	<path d="M85.1939 44.2599L106.665 7.0459H103.186L83.4541 41.2471V41.2895L85.1939 44.2599Z" fill="#B9B9B9" />
	<path d="M113.666 7.0459H110.144L86.9332 47.2726V47.3151L88.673 50.3278L113.666 7.0459Z" fill="#B9B9B9" />
	<path d="M49.0828 65.986C48.7433 66.283 48.2766 66.4952 47.7674 66.4952C46.7065 66.4952 45.8154 65.6465 45.8154 64.5432C45.8154 63.4824 46.7065 62.5913 47.7674 62.5913C48.2766 62.5913 48.7433 62.8035 49.0828 63.1005L50.0163 62.167C49.4223 61.6153 48.6585 61.2759 47.7674 61.2759C45.9852 61.2759 44.5 62.7186 44.5 64.5432C44.5 66.3679 45.9427 67.8106 47.7674 67.8106C48.616 67.8106 49.4223 67.4711 50.0163 66.9195L49.0828 65.986Z" fill="#B9B9B9" />
	<path d="M58.5878 61.3184C56.8056 61.3184 55.3204 62.7611 55.3204 64.5857C55.3204 66.4103 56.7632 67.8531 58.5878 67.8531C60.37 67.8531 61.8552 66.4103 61.8552 64.5857C61.8552 62.7611 60.4124 61.3184 58.5878 61.3184ZM58.5878 66.5377C57.527 66.5377 56.6359 65.6466 56.6359 64.5857C56.6359 63.5249 57.527 62.6338 58.5878 62.6338C59.6486 62.6338 60.5397 63.5249 60.5397 64.5857C60.5397 65.6466 59.6911 66.5377 58.5878 66.5377Z" fill="#B9B9B9" />
	<path d="M70.8935 66.0709L68.984 61.3184H67.6261V67.8106H68.8991V64.5857L70.2145 67.8106H71.6148L72.9303 64.5857V67.8106H74.2033V61.3184H72.803L70.8935 66.0709Z" fill="#B9B9B9" />
	<path d="M81.7995 61.3184H79.9749V67.8106H81.2903V65.2222H81.8419C82.9027 65.2222 83.7938 64.3311 83.7938 63.2703C83.7514 62.2095 82.8603 61.3184 81.7995 61.3184ZM81.7995 63.9068H81.2903V62.5914H81.7995C82.1389 62.5914 82.436 62.8884 82.436 63.2279C82.436 63.6098 82.1389 63.9068 81.7995 63.9068Z" fill="#B9B9B9" />
	<path d="M90.9644 61.3184L88.6306 67.8106H90.0309L90.7099 65.986H92.7042L93.3831 67.8106H94.7834L92.4496 61.3184H90.9644ZM91.1342 64.713L91.6434 63.2279L92.195 64.713H91.1342Z" fill="#B9B9B9" />
	<path d="M105.731 61.3184H104.416V65.6466L101.827 61.3184H100.3V67.8106H101.573V63.4825L104.204 67.8106H105.731V61.3184Z" fill="#B9B9B9" />
	<path d="M114.302 67.8106V64.713L115.999 61.3184H114.557L113.623 63.1006L112.732 61.3184H111.289L112.987 64.713V67.8106H114.302Z" fill="#B9B9B9" />
	<path d="M44.5 70.9932H45.2638V73.3695H45.6881V70.9932H46.4519V70.6113H44.5V70.9932Z" fill="#B9B9B9" />
	<path d="M49.5064 70.6113L48.488 73.3695H48.9124L49.1245 72.733H50.1854L50.3975 73.3695H50.8219L49.8035 70.6113H49.5064ZM49.2518 72.3935L49.6337 71.2054L50.0156 72.3935H49.2518Z" fill="#B9B9B9" />
	<path d="M54.3017 72.2233H54.8534V72.3507C54.8534 72.5204 54.8109 72.6477 54.6836 72.775C54.5988 72.9023 54.429 72.9447 54.3017 72.9447C54.2169 72.9447 54.132 72.9447 54.0471 72.9023C53.9623 72.8599 53.9198 72.8174 53.8774 72.775C53.835 72.7325 53.7925 72.6477 53.7501 72.5628C53.7501 72.478 53.7077 72.2658 53.7077 72.0112C53.7077 71.7566 53.7077 71.5444 53.7501 71.4595C53.7501 71.3747 53.7925 71.2898 53.8774 71.2474C53.9198 71.205 53.9623 71.1625 54.0471 71.1201C54.132 71.0777 54.2169 71.0777 54.3017 71.0777C54.429 71.0777 54.5563 71.1201 54.6412 71.205C54.7261 71.2898 54.8109 71.3747 54.8109 71.502H55.2353C55.1928 71.2898 55.0655 71.0777 54.9382 70.9079C54.7685 70.7382 54.5563 70.6533 54.3017 70.6533C54.0896 70.6533 53.9198 70.6958 53.7501 70.8231C53.6228 70.9079 53.4955 71.0352 53.4106 71.1625C53.3682 71.2474 53.3258 71.3323 53.3258 71.4171C53.3258 71.5444 53.2833 71.7566 53.2833 72.0536C53.2833 72.3507 53.2833 72.5628 53.3258 72.6901C53.3258 72.7326 53.3682 72.8174 53.3682 72.8174C53.3682 72.8599 53.4106 72.9023 53.4106 72.9447C53.4955 73.072 53.5804 73.1993 53.7501 73.2842C53.8774 73.369 54.0896 73.4539 54.3017 73.4539C54.5988 73.4539 54.8109 73.369 54.9807 73.1569C55.1504 72.9871 55.2777 72.7326 55.2777 72.478V71.9263H54.3017V72.2233Z" fill="#B9B9B9" />
	<path d="M58.5029 70.6113H58.0786V73.3695H59.8608V72.9876H58.5029V70.6113Z" fill="#B9B9B9" />
	<path d="M63.0016 70.6113H62.5773V73.3695H63.0016V70.6113Z" fill="#B9B9B9" />
	<path d="M67.5406 72.5633L66.2677 70.6113H65.8857V73.3695H66.3101V71.4176L67.5406 73.3695H67.965V70.6113H67.5406V72.5633Z" fill="#B9B9B9" />
	<path d="M70.8517 73.3695H72.6339V72.9876H71.276V72.1814H72.4217V71.7995H71.276V70.9932H72.6339V70.6113H70.8517V73.3695Z" fill="#B9B9B9" />
	<path d="M79.4651 72.2233H80.0167V72.3507C80.0167 72.5204 79.9743 72.6477 79.847 72.775C79.7621 72.9023 79.5924 72.9447 79.4651 72.9447C79.3802 72.9447 79.2953 72.9447 79.2105 72.9023C79.1256 72.8599 79.0832 72.8174 79.0407 72.775C78.9983 72.7325 78.9559 72.6477 78.9134 72.5628C78.9134 72.478 78.871 72.2658 78.871 72.0112C78.871 71.7566 78.871 71.5444 78.9134 71.4595C78.9134 71.3747 78.9559 71.2898 79.0407 71.2474C79.0832 71.205 79.1256 71.1625 79.2105 71.1201C79.2953 71.0777 79.3802 71.0777 79.4651 71.0777C79.5924 71.0777 79.7197 71.1201 79.8045 71.205C79.8894 71.2898 79.9743 71.3747 79.9743 71.502H80.3986C80.3562 71.2898 80.2289 71.0777 80.1016 70.9079C79.9318 70.7382 79.7197 70.6533 79.4651 70.6533C79.2529 70.6533 79.0832 70.6958 78.9134 70.8231C78.7861 70.9079 78.6588 71.0352 78.574 71.1625C78.5315 71.2474 78.4891 71.3323 78.4891 71.4171C78.4891 71.5444 78.4467 71.7566 78.4467 72.0536C78.4467 72.3507 78.4467 72.5628 78.4891 72.6901C78.4891 72.7326 78.5315 72.8174 78.5315 72.8174C78.5315 72.8599 78.574 72.9023 78.574 72.9447C78.6588 73.072 78.7437 73.1993 78.9134 73.2842C79.0407 73.369 79.2529 73.4539 79.4651 73.4539C79.7621 73.4539 79.9743 73.369 80.144 73.1569C80.3137 72.9871 80.441 72.7326 80.441 72.478V71.9263H79.4651V72.2233Z" fill="#B9B9B9" />
	<path d="M85.0244 71.0776C84.9395 70.9503 84.8547 70.823 84.7274 70.7381C84.6001 70.6532 84.3879 70.5684 84.1757 70.5684C83.9636 70.5684 83.7938 70.6108 83.6241 70.7381C83.4968 70.823 83.3695 70.9503 83.2846 71.0776C83.2422 71.1624 83.1998 71.2473 83.1998 71.3322C83.1998 71.4595 83.1573 71.6716 83.1573 71.9687C83.1573 72.2657 83.1573 72.4779 83.1998 72.6052C83.1998 72.6476 83.2422 72.7325 83.2422 72.7325C83.2422 72.7749 83.2846 72.8173 83.2846 72.8598C83.3695 72.9871 83.4544 73.1144 83.6241 73.1992C83.7514 73.2841 83.9636 73.369 84.1757 73.369C84.3879 73.369 84.5577 73.3265 84.7274 73.1992C84.8547 73.1144 84.982 72.9871 85.0244 72.8598C85.0668 72.7749 85.1093 72.69 85.1093 72.6052C85.1093 72.4779 85.1517 72.2657 85.1517 71.9687C85.1517 71.6292 85.1517 71.417 85.1093 71.3322C85.1093 71.2473 85.0668 71.1624 85.0244 71.0776ZM84.6849 72.5203C84.6849 72.6052 84.6425 72.69 84.5576 72.7325C84.5152 72.7749 84.4728 72.8173 84.3879 72.8598C84.303 72.9022 84.2182 72.9022 84.1333 72.9022C84.0484 72.9022 83.9636 72.9022 83.8787 72.8598C83.7939 72.8173 83.7514 72.7749 83.709 72.7325C83.6665 72.69 83.6241 72.6052 83.5817 72.5203C83.5817 72.4354 83.5392 72.2233 83.5392 71.9687C83.5392 71.7141 83.5392 71.5019 83.5817 71.417C83.5817 71.3322 83.6241 71.2473 83.709 71.2049C83.7514 71.1624 83.7939 71.12 83.8787 71.0776C83.9636 71.0351 84.0484 71.0351 84.1333 71.0351C84.2182 71.0351 84.303 71.0776 84.3879 71.0776C84.4728 71.12 84.5152 71.1624 84.5576 71.2049C84.6001 71.2473 84.6425 71.3322 84.6849 71.417C84.6849 71.5019 84.7274 71.7141 84.7274 71.9687C84.7274 72.2657 84.7274 72.4354 84.6849 72.5203Z" fill="#B9B9B9" />
	<path d="M87.951 73.3695H89.7333V72.9876H88.3754V72.1814H89.5211V71.7995H88.3754V70.9932H89.7333V70.6113H87.951V73.3695Z" fill="#B9B9B9" />
	<path d="M93.468 71.7995C93.3407 71.7995 93.2134 71.757 93.171 71.757C93.0437 71.7146 92.9164 71.6722 92.8739 71.6297C92.8315 71.5449 92.7891 71.5024 92.7891 71.4176C92.7891 71.2903 92.8315 71.2054 92.9164 71.1205C93.0012 71.0357 93.1285 71.0357 93.2558 71.0357C93.5104 71.0357 93.7226 71.1205 93.9348 71.2478L94.1469 70.9084C93.8923 70.7386 93.5953 70.6113 93.2558 70.6113C92.9588 70.6113 92.7466 70.6962 92.5769 70.8235C92.4072 70.9508 92.3223 71.163 92.3223 71.4176C92.3223 71.6297 92.4072 71.7995 92.5345 71.9268C92.6618 72.0541 92.8315 72.1389 93.0861 72.1814C93.2134 72.1814 93.3407 72.2238 93.468 72.2238C93.7226 72.2662 93.8499 72.3935 93.8075 72.6057C93.8075 72.8603 93.6377 72.9876 93.2558 72.9876C92.9588 72.9876 92.7042 72.9027 92.492 72.733L92.2374 73.03C92.5345 73.2846 92.8739 73.4119 93.2983 73.4119C93.9348 73.4119 94.2318 73.1573 94.2742 72.6057C94.2742 72.3935 94.2318 72.2238 94.1045 72.0965C93.9348 71.9268 93.7226 71.8419 93.468 71.7995Z" fill="#B9B9B9" />
	<path d="M101.742 71.7995H100.639V70.6113H100.257V73.3695H100.639V72.1814H101.742V73.3695H102.166V70.6113H101.742V71.7995Z" fill="#B9B9B9" />
	<path d="M105.095 73.3695H106.835V72.9876H105.477V72.1814H106.623V71.7995H105.477V70.9932H106.835V70.6113H105.095V73.3695Z" fill="#B9B9B9" />
	<path d="M111.459 71.3751C111.459 71.1205 111.374 70.9084 111.204 70.7811C111.077 70.6538 110.865 70.6113 110.653 70.6113H109.592V73.3695H110.016V72.1814H110.568L111.12 73.3695H111.629L110.992 72.1389C111.289 72.0116 111.459 71.757 111.459 71.3751ZM109.974 71.7995V70.9508H110.61C110.738 70.9508 110.865 70.9932 110.907 71.0357C110.992 71.1205 111.035 71.2054 111.035 71.3327C111.035 71.46 110.992 71.5449 110.907 71.6297C110.822 71.7146 110.695 71.757 110.568 71.757H109.974V71.7995Z" fill="#B9B9B9" />
	<path d="M114.218 73.3695H116V72.9876H114.642V72.1814H115.788V71.7995H114.642V70.9932H116V70.6113H114.218V73.3695Z" fill="#B9B9B9" />
</svg>
