<svg width="160" height="80" viewBox="0 0 160 80" fill="none" xmlns="http://www.w3.org/2000/svg">
	<rect width="160" height="80" fill="white" />
	<path d="M61.6716 7.87703C61.6716 8.24817 61.5616 8.61098 61.3554 8.91957C61.1492 9.22817 60.8561 9.46869 60.5132 9.61072C60.1703 9.75275 59.793 9.78991 59.429 9.7175C59.065 9.6451 58.7306 9.46637 58.4682 9.20394C58.2058 8.9415 58.027 8.60713 57.9546 8.24312C57.8822 7.87911 57.9194 7.5018 58.0614 7.15891C58.2035 6.81601 58.444 6.52294 58.7526 6.31674C59.0612 6.11055 59.424 6.00049 59.7951 6.00049C60.0417 6.00012 60.2858 6.0484 60.5137 6.14257C60.7415 6.23675 60.9485 6.37496 61.1229 6.54928C61.2972 6.72361 61.4354 6.93063 61.5296 7.15847C61.6237 7.38631 61.672 7.63049 61.6716 7.87703Z" fill="#E3E3E3" />
	<path d="M70.6085 7.87703C70.6085 8.24829 70.4984 8.61121 70.2921 8.91987C70.0858 9.22852 69.7925 9.46904 69.4495 9.61099C69.1064 9.75293 68.729 9.78993 68.3649 9.71729C68.0008 9.64466 67.6664 9.46565 67.4041 9.20293C67.1418 8.94021 66.9633 8.60558 66.8912 8.24138C66.8191 7.87718 66.8567 7.49978 66.9991 7.15694C67.1416 6.8141 67.3826 6.52122 67.6915 6.31536C68.0005 6.10951 68.3636 5.99993 68.7348 6.00049C68.9811 6.00049 69.225 6.04905 69.4525 6.14339C69.68 6.23773 69.8867 6.376 70.0608 6.55029C70.2348 6.72458 70.3727 6.93147 70.4667 7.15912C70.5607 7.38678 70.6089 7.63073 70.6085 7.87703Z" fill="#E3E3E3" />
	<path d="M88.4845 7.87703C88.4845 8.24817 88.3745 8.61098 88.1683 8.91957C87.9621 9.22817 87.669 9.46869 87.3261 9.61072C86.9832 9.75275 86.6059 9.78991 86.2419 9.7175C85.8779 9.6451 85.5435 9.46637 85.2811 9.20394C85.0186 8.9415 84.8399 8.60713 84.7675 8.24312C84.6951 7.87911 84.7323 7.5018 84.8743 7.15891C85.0163 6.81601 85.2568 6.52294 85.5654 6.31674C85.874 6.11055 86.2368 6.00049 86.608 6.00049C86.8545 6.00012 87.0987 6.0484 87.3265 6.14257C87.5544 6.23675 87.7614 6.37496 87.9357 6.54928C88.1101 6.72361 88.2483 6.93063 88.3424 7.15847C88.4366 7.38631 88.4849 7.63049 88.4845 7.87703Z" fill="#E3E3E3" />
	<path d="M97.4214 7.87703C97.4214 8.24829 97.3113 8.61121 97.105 8.91987C96.8986 9.22852 96.6054 9.46904 96.2623 9.61099C95.9193 9.75293 95.5418 9.78993 95.1777 9.71729C94.8136 9.64466 94.4793 9.46565 94.217 9.20293C93.9546 8.94021 93.7761 8.60558 93.704 8.24138C93.632 7.87718 93.6695 7.49978 93.812 7.15694C93.9545 6.8141 94.1954 6.52122 94.5044 6.31536C94.8134 6.10951 95.1764 5.99993 95.5477 6.00049C95.794 6.00049 96.0379 6.04905 96.2654 6.14339C96.4929 6.23773 96.6996 6.376 96.8736 6.55029C97.0476 6.72458 97.1856 6.93147 97.2796 7.15912C97.3736 7.38678 97.4218 7.63073 97.4214 7.87703Z" fill="#E3E3E3" />
	<path d="M61.6716 16.8853C61.6716 17.2565 61.5616 17.6193 61.3554 17.9279C61.1492 18.2365 60.8561 18.477 60.5132 18.619C60.1703 18.761 59.793 18.7982 59.429 18.7258C59.065 18.6534 58.7306 18.4747 58.4682 18.2122C58.2058 17.9498 58.027 17.6154 57.9546 17.2514C57.8822 16.8874 57.9194 16.5101 58.0614 16.1672C58.2035 15.8243 58.444 15.5312 58.7526 15.325C59.0612 15.1188 59.424 15.0088 59.7951 15.0088C60.0417 15.0084 60.2858 15.0567 60.5137 15.1509C60.7415 15.245 60.9485 15.3833 61.1229 15.5576C61.2972 15.7319 61.4354 15.9389 61.5296 16.1668C61.6237 16.3946 61.672 16.6388 61.6716 16.8853Z" fill="#E3E3E3" />
	<path d="M70.6085 16.8853C70.6085 17.2566 70.4984 17.6195 70.2921 17.9282C70.0858 18.2368 69.7925 18.4773 69.4495 18.6193C69.1064 18.7612 68.729 18.7982 68.3649 18.7256C68.0008 18.653 67.6664 18.474 67.4041 18.2112C67.1418 17.9485 66.9633 17.6139 66.8912 17.2497C66.8191 16.8855 66.8567 16.5081 66.9991 16.1652C67.1416 15.8224 67.3826 15.5295 67.6915 15.3237C68.0005 15.1178 68.3636 15.0082 68.7348 15.0088C68.9811 15.0088 69.225 15.0573 69.4525 15.1517C69.68 15.246 69.8867 15.3843 70.0608 15.5586C70.2348 15.7329 70.3727 15.9398 70.4667 16.1674C70.5607 16.3951 70.6089 16.639 70.6085 16.8853Z" fill="#E3E3E3" />
	<path d="M97.4214 16.8853C97.4214 17.2566 97.3113 17.6195 97.105 17.9282C96.8986 18.2368 96.6054 18.4773 96.2623 18.6193C95.9193 18.7612 95.5418 18.7982 95.1777 18.7256C94.8136 18.653 94.4793 18.474 94.217 18.2112C93.9546 17.9485 93.7761 17.6139 93.704 17.2497C93.632 16.8855 93.6695 16.5081 93.812 16.1652C93.9545 15.8224 94.1954 15.5295 94.5044 15.3237C94.8134 15.1178 95.1764 15.0082 95.5477 15.0088C95.794 15.0088 96.0379 15.0573 96.2654 15.1517C96.4929 15.246 96.6996 15.3843 96.8736 15.5586C97.0476 15.7329 97.1856 15.9398 97.2796 16.1674C97.3736 16.3951 97.4218 16.639 97.4214 16.8853Z" fill="#E3E3E3" />
	<path d="M61.6716 25.8941C61.6716 26.2653 61.5616 26.6281 61.3554 26.9367C61.1492 27.2453 60.8561 27.4858 60.5132 27.6278C60.1703 27.7698 59.793 27.807 59.429 27.7346C59.065 27.6622 58.7306 27.4835 58.4682 27.221C58.2058 26.9586 58.027 26.6242 57.9546 26.2602C57.8822 25.8962 57.9194 25.5189 58.0614 25.176C58.2035 24.8331 58.444 24.54 58.7526 24.3338C59.0612 24.1276 59.424 24.0176 59.7951 24.0176C60.0417 24.0172 60.2858 24.0655 60.5137 24.1597C60.7415 24.2538 60.9485 24.392 61.1229 24.5664C61.2972 24.7407 61.4354 24.9477 61.5296 25.1756C61.6237 25.4034 61.672 25.6476 61.6716 25.8941Z" fill="#E3E3E3" />
	<path d="M60.3106 34.9028H59.2816V43.9113H60.3106V34.9028Z" fill="#B9B9B9" />
	<path d="M69.2486 25.894H68.2196V43.9111H69.2486V25.894Z" fill="#B9B9B9" />
	<path d="M78.1855 7.87695H77.1565V43.9138H78.1855V7.87695Z" fill="#B9B9B9" />
	<path d="M87.1235 16.8857H86.0945V43.9113H87.1235V16.8857Z" fill="#B9B9B9" />
	<path d="M96.0636 25.894H95.0347V43.9111H96.0636V25.894Z" fill="#B9B9B9" />
	<path d="M75.7968 16.8853C75.7968 17.2565 75.9068 17.6193 76.113 17.9279C76.3192 18.2365 76.6123 18.477 76.9552 18.619C77.2981 18.761 77.6754 18.7982 78.0394 18.7258C78.4034 18.6534 78.7378 18.4747 79.0002 18.2122C79.2626 17.9498 79.4414 17.6154 79.5138 17.2514C79.5862 16.8874 79.549 16.5101 79.407 16.1672C79.265 15.8243 79.0244 15.5312 78.7158 15.325C78.4072 15.1188 78.0444 15.0088 77.6733 15.0088C77.4268 15.0084 77.1826 15.0567 76.9547 15.1509C76.7269 15.245 76.5199 15.3833 76.3455 15.5576C76.1712 15.7319 76.033 15.9389 75.9388 16.1668C75.8447 16.3946 75.7964 16.6388 75.7968 16.8853Z" fill="#B9B9B9" />
	<path d="M66.8588 25.8941C66.8588 26.2653 66.9688 26.6281 67.175 26.9367C67.3812 27.2453 67.6743 27.4858 68.0172 27.6278C68.3601 27.7698 68.7374 27.807 69.1014 27.7346C69.4654 27.6622 69.7998 27.4835 70.0622 27.221C70.3247 26.9586 70.5034 26.6242 70.5758 26.2602C70.6482 25.8962 70.611 25.5189 70.469 25.176C70.327 24.8331 70.0864 24.54 69.7778 24.3338C69.4693 24.1276 69.1064 24.0176 68.7353 24.0176C68.4888 24.0172 68.2446 24.0655 68.0167 24.1597C67.7889 24.2538 67.5819 24.392 67.4076 24.5664C67.2332 24.7407 67.095 24.9477 67.0008 25.1756C66.9067 25.4034 66.8584 25.6476 66.8588 25.8941Z" fill="#B9B9B9" />
	<path d="M75.7968 25.8941C75.7968 26.2653 75.9068 26.6281 76.113 26.9367C76.3192 27.2453 76.6123 27.4858 76.9552 27.6278C77.2981 27.7698 77.6754 27.807 78.0394 27.7346C78.4034 27.6622 78.7378 27.4835 79.0002 27.221C79.2626 26.9586 79.4414 26.6242 79.5138 26.2602C79.5862 25.8962 79.549 25.5189 79.407 25.176C79.265 24.8331 79.0244 24.54 78.7158 24.3338C78.4072 24.1276 78.0444 24.0176 77.6733 24.0176C77.4268 24.0172 77.1826 24.0655 76.9547 24.1597C76.7269 24.2538 76.5199 24.392 76.3455 24.5664C76.1712 24.7407 76.033 24.9477 75.9388 25.1756C75.8447 25.4034 75.7964 25.6476 75.7968 25.8941Z" fill="#B9B9B9" />
	<path d="M93.6716 25.8941C93.6716 26.2653 93.7817 26.6281 93.9879 26.9367C94.1941 27.2453 94.4872 27.4858 94.8301 27.6278C95.1729 27.7698 95.5503 27.807 95.9143 27.7346C96.2783 27.6622 96.6126 27.4835 96.8751 27.221C97.1375 26.9586 97.3162 26.6242 97.3886 26.2602C97.4611 25.8962 97.4239 25.5189 97.2819 25.176C97.1398 24.8331 96.8993 24.54 96.5907 24.3338C96.2821 24.1276 95.9193 24.0176 95.5482 24.0176C95.3016 24.0172 95.0574 24.0655 94.8296 24.1597C94.6018 24.2538 94.3948 24.392 94.2204 24.5664C94.0461 24.7407 93.9079 24.9477 93.8137 25.1756C93.7195 25.4034 93.6713 25.6476 93.6716 25.8941Z" fill="#B9B9B9" />
	<path d="M57.9208 34.9142C57.9202 35.2856 58.0299 35.6488 58.2359 35.9578C58.4418 36.2669 58.7349 36.5078 59.0779 36.6502C59.4209 36.7926 59.7984 36.83 60.1627 36.7577C60.527 36.6854 60.8616 36.5066 61.1242 36.244C61.3868 35.9814 61.5656 35.6467 61.6379 35.2825C61.7102 34.9182 61.6728 34.5406 61.5305 34.1976C61.3881 33.8546 61.1471 33.5616 60.8381 33.3556C60.5291 33.1496 60.1659 33.04 59.7945 33.0405C59.2978 33.0413 58.8216 33.2389 58.4704 33.5902C58.1192 33.9414 57.9215 34.4175 57.9208 34.9142Z" fill="#B9B9B9" />
	<path d="M66.8588 34.9142C66.8582 35.2855 66.9678 35.6486 67.1736 35.9575C67.3795 36.2665 67.6724 36.5075 68.0152 36.6499C68.3581 36.7924 68.7355 36.83 69.0997 36.7579C69.4639 36.6858 69.7985 36.5073 70.0612 36.245C70.3239 35.9827 70.5029 35.6483 70.5756 35.2842C70.6482 34.9201 70.6112 34.5427 70.4693 34.1996C70.3273 33.8565 70.0868 33.5633 69.7781 33.357C69.4695 33.1507 69.1066 33.0405 68.7353 33.0405C68.2381 33.0405 67.7612 33.2378 67.4094 33.5891C67.0576 33.9405 66.8595 34.417 66.8588 34.9142Z" fill="#B9B9B9" />
	<path d="M75.7968 34.9142C75.7962 35.2855 75.9058 35.6486 76.1116 35.9575C76.3175 36.2665 76.6104 36.5075 76.9532 36.6499C77.296 36.7924 77.6734 36.83 78.0376 36.7579C78.4018 36.6858 78.7365 36.5073 78.9992 36.245C79.2619 35.9827 79.4409 35.6483 79.5136 35.2842C79.5862 34.9201 79.5492 34.5427 79.4073 34.1996C79.2653 33.8565 79.0248 33.5633 78.7161 33.357C78.4075 33.1507 78.0446 33.0405 77.6733 33.0405C77.1761 33.0405 76.6992 33.2378 76.3474 33.5891C75.9955 33.9405 75.7975 34.417 75.7968 34.9142Z" fill="#B9B9B9" />
	<path d="M84.7336 34.9142C84.7331 35.2856 84.8427 35.6488 85.0487 35.9578C85.2547 36.2669 85.5477 36.5078 85.8908 36.6502C86.2338 36.7926 86.6113 36.83 86.9756 36.7577C87.3399 36.6854 87.6745 36.5066 87.9371 36.244C88.1997 35.9814 88.3785 35.6467 88.4508 35.2825C88.5231 34.9182 88.4857 34.5406 88.3433 34.1976C88.2009 33.8546 87.96 33.5616 87.651 33.3556C87.3419 33.1496 86.9787 33.04 86.6073 33.0405C86.1106 33.0413 85.6345 33.2389 85.2833 33.5902C84.932 33.9414 84.7344 34.4175 84.7336 34.9142Z" fill="#B9B9B9" />
	<path d="M93.6716 34.9142C93.6711 35.2855 93.7807 35.6486 93.9865 35.9575C94.1924 36.2665 94.4852 36.5075 94.8281 36.6499C95.1709 36.7924 95.5483 36.83 95.9125 36.7579C96.2767 36.6858 96.6114 36.5073 96.8741 36.245C97.1368 35.9827 97.3158 35.6483 97.3884 35.2842C97.4611 34.9201 97.4241 34.5427 97.2821 34.1996C97.1402 33.8565 96.8997 33.5633 96.591 33.357C96.2824 33.1507 95.9194 33.0405 95.5482 33.0405C95.051 33.0405 94.5741 33.2378 94.2223 33.5891C93.8704 33.9405 93.6724 34.417 93.6716 34.9142Z" fill="#B9B9B9" />
	<path d="M57.9208 43.9113C57.9202 44.2827 58.0299 44.6459 58.2359 44.9549C58.4418 45.2639 58.7349 45.5049 59.0779 45.6473C59.4209 45.7897 59.7984 45.8271 60.1627 45.7547C60.527 45.6824 60.8616 45.5037 61.1242 45.241C61.3868 44.9784 61.5656 44.6438 61.6379 44.2795C61.7102 43.9153 61.6728 43.5377 61.5305 43.1947C61.3881 42.8517 61.1471 42.5587 60.8381 42.3527C60.5291 42.1467 60.1659 42.037 59.7945 42.0376C59.2978 42.0383 58.8216 42.236 58.4704 42.5872C58.1192 42.9384 57.9215 43.4146 57.9208 43.9113Z" fill="#B9B9B9" />
	<path d="M66.8588 43.9113C66.8582 44.2826 66.9678 44.6456 67.1736 44.9546C67.3795 45.2636 67.6724 45.5045 68.0152 45.647C68.3581 45.7895 68.7355 45.827 69.0997 45.755C69.4639 45.6829 69.7985 45.5044 70.0612 45.242C70.3239 44.9797 70.5029 44.6454 70.5756 44.2813C70.6482 43.9172 70.6112 43.5397 70.4693 43.1967C70.3273 42.8536 70.0868 42.5604 69.7781 42.354C69.4695 42.1477 69.1066 42.0376 68.7353 42.0376C68.2381 42.0376 67.7612 42.2349 67.4094 42.5862C67.0576 42.9375 66.8595 43.4141 66.8588 43.9113Z" fill="#B9B9B9" />
	<path d="M75.7968 43.9113C75.7962 44.2826 75.9058 44.6456 76.1116 44.9546C76.3175 45.2636 76.6104 45.5045 76.9532 45.647C77.296 45.7895 77.6734 45.827 78.0376 45.755C78.4018 45.6829 78.7365 45.5044 78.9992 45.242C79.2619 44.9797 79.4409 44.6454 79.5136 44.2813C79.5862 43.9172 79.5492 43.5397 79.4073 43.1967C79.2653 42.8536 79.0248 42.5604 78.7161 42.354C78.4075 42.1477 78.0446 42.0376 77.6733 42.0376C77.1761 42.0376 76.6992 42.2349 76.3474 42.5862C75.9955 42.9375 75.7975 43.4141 75.7968 43.9113Z" fill="#B9B9B9" />
	<path d="M84.7336 43.9113C84.7331 44.2827 84.8427 44.6459 85.0487 44.9549C85.2547 45.2639 85.5477 45.5049 85.8908 45.6473C86.2338 45.7897 86.6113 45.8271 86.9756 45.7547C87.3399 45.6824 87.6745 45.5037 87.9371 45.241C88.1997 44.9784 88.3785 44.6438 88.4508 44.2795C88.5231 43.9153 88.4857 43.5377 88.3433 43.1947C88.2009 42.8517 87.96 42.5587 87.651 42.3527C87.3419 42.1467 86.9787 42.037 86.6073 42.0376C86.1106 42.0383 85.6345 42.236 85.2833 42.5872C84.932 42.9384 84.7344 43.4146 84.7336 43.9113Z" fill="#B9B9B9" />
	<path d="M93.6716 43.9113C93.6711 44.2826 93.7807 44.6456 93.9865 44.9546C94.1924 45.2636 94.4852 45.5045 94.8281 45.647C95.1709 45.7895 95.5483 45.827 95.9125 45.755C96.2767 45.6829 96.6114 45.5044 96.8741 45.242C97.1368 44.9797 97.3158 44.6454 97.3884 44.2813C97.4611 43.9172 97.4241 43.5397 97.2821 43.1967C97.1402 42.8536 96.8997 42.5604 96.591 42.354C96.2824 42.1477 95.9194 42.0376 95.5482 42.0376C95.051 42.0376 94.5741 42.2349 94.2223 42.5862C93.8704 42.9375 93.6724 43.4141 93.6716 43.9113Z" fill="#B9B9B9" />
	<path d="M75.7968 7.87703C75.7968 8.24817 75.9068 8.61098 76.113 8.91957C76.3192 9.22817 76.6123 9.46869 76.9552 9.61072C77.2981 9.75275 77.6754 9.78991 78.0394 9.7175C78.4034 9.6451 78.7378 9.46637 79.0002 9.20394C79.2626 8.9415 79.4414 8.60713 79.5138 8.24312C79.5862 7.87911 79.549 7.5018 79.407 7.15891C79.265 6.81601 79.0244 6.52294 78.7158 6.31674C78.4072 6.11055 78.0444 6.00049 77.6733 6.00049C77.4268 6.00012 77.1826 6.0484 76.9547 6.14257C76.7269 6.23675 76.5199 6.37496 76.3455 6.54928C76.1712 6.72361 76.033 6.93063 75.9388 7.15847C75.8447 7.38631 75.7964 7.63049 75.7968 7.87703Z" fill="#B9B9B9" />
	<path d="M84.7336 16.8853C84.7336 17.2566 84.8438 17.6195 85.0501 17.9282C85.2564 18.2368 85.5497 18.4773 85.8927 18.6193C86.2358 18.7612 86.6132 18.7982 86.9773 18.7256C87.3414 18.653 87.6758 18.474 87.9381 18.2112C88.2004 17.9485 88.3789 17.6139 88.451 17.2497C88.5231 16.8855 88.4855 16.5081 88.3431 16.1652C88.2006 15.8224 87.9596 15.5295 87.6507 15.3237C87.3417 15.1178 86.9786 15.0082 86.6073 15.0088C86.361 15.0088 86.1172 15.0573 85.8897 15.1517C85.6621 15.246 85.4555 15.3843 85.2814 15.5586C85.1074 15.7329 84.9695 15.9398 84.8755 16.1674C84.7815 16.3951 84.7333 16.639 84.7336 16.8853Z" fill="#E3E3E3" />
	<path d="M84.7336 25.8941C84.7336 26.2654 84.8438 26.6283 85.0501 26.937C85.2564 27.2456 85.5497 27.4861 85.8927 27.6281C86.2358 27.77 86.6132 27.807 86.9773 27.7344C87.3414 27.6617 87.6758 27.4827 87.9381 27.22C88.2004 26.9573 88.3789 26.6227 88.451 26.2585C88.5231 25.8943 88.4855 25.5169 88.3431 25.174C88.2006 24.8312 87.9596 24.5383 87.6507 24.3325C87.3417 24.1266 86.9786 24.017 86.6073 24.0176C86.361 24.0176 86.1172 24.0661 85.8897 24.1605C85.6621 24.2548 85.4555 24.3931 85.2814 24.5674C85.1074 24.7417 84.9695 24.9486 84.8755 25.1762C84.7815 25.4039 84.7333 25.6478 84.7336 25.8941Z" fill="#B9B9B9" />
	<path d="M43.2187 64.2095H41.4812L46.5068 50.5228H48.2176L53.2432 64.2095H51.5056L47.4156 52.6881H47.3087L43.2187 64.2095ZM43.8603 58.8631H50.864V60.3334H43.8603V58.8631ZM59.3314 64.4233C58.369 64.4233 57.5403 64.1961 56.8453 63.7417C56.1503 63.2872 55.6156 62.6613 55.2414 61.8638C54.8671 61.0663 54.68 60.1551 54.68 59.1304C54.68 58.0879 54.8716 57.1679 55.2548 56.3704C55.6424 55.5684 56.1815 54.9424 56.872 54.4925C57.5671 54.038 58.3779 53.8108 59.3046 53.8108C60.0264 53.8108 60.6769 53.9444 61.256 54.2118C61.8352 54.4791 62.3097 54.8533 62.6795 55.3345C63.0493 55.8157 63.2788 56.377 63.3679 57.0186H61.7907C61.6704 56.5508 61.4031 56.1365 60.9887 55.7756C60.5788 55.4102 60.0264 55.2276 59.3314 55.2276C58.7165 55.2276 58.1774 55.388 57.7141 55.7087C57.2552 56.0251 56.8965 56.4728 56.6381 57.052C56.3842 57.6268 56.2572 58.3017 56.2572 59.077C56.2572 59.87 56.3819 60.5606 56.6314 61.1487C56.8854 61.7368 57.2418 62.1934 57.7007 62.5187C58.1641 62.8439 58.7076 63.0065 59.3314 63.0065C59.7412 63.0065 60.1133 62.9353 60.4474 62.7927C60.7816 62.6501 61.0645 62.4452 61.2961 62.1779C61.5278 61.9105 61.6927 61.5898 61.7907 61.2155H63.3679C63.2788 61.8214 63.0582 62.3672 62.7063 62.8528C62.3587 63.334 61.8976 63.7172 61.3229 64.0023C60.7526 64.283 60.0888 64.4233 59.3314 64.4233ZM69.8437 64.4233C68.8813 64.4233 68.0526 64.1961 67.3576 63.7417C66.6626 63.2872 66.1279 62.6613 65.7537 61.8638C65.3794 61.0663 65.1923 60.1551 65.1923 59.1304C65.1923 58.0879 65.3839 57.1679 65.767 56.3704C66.1547 55.5684 66.6937 54.9424 67.3843 54.4925C68.0793 54.038 68.8902 53.8108 69.8169 53.8108C70.5387 53.8108 71.1892 53.9444 71.7683 54.2118C72.3475 54.4791 72.822 54.8533 73.1918 55.3345C73.5616 55.8157 73.7911 56.377 73.8802 57.0186H72.303C72.1827 56.5508 71.9154 56.1365 71.501 55.7756C71.0911 55.4102 70.5387 55.2276 69.8437 55.2276C69.2288 55.2276 68.6897 55.388 68.2264 55.7087C67.7675 56.0251 67.4088 56.4728 67.1504 57.052C66.8965 57.6268 66.7695 58.3017 66.7695 59.077C66.7695 59.87 66.8942 60.5606 67.1437 61.1487C67.3977 61.7368 67.7541 62.1934 68.213 62.5187C68.6764 62.8439 69.2199 63.0065 69.8437 63.0065C70.2535 63.0065 70.6256 62.9353 70.9597 62.7927C71.2939 62.6501 71.5768 62.4452 71.8084 62.1779C72.0401 61.9105 72.205 61.5898 72.303 61.2155H73.8802C73.7911 61.8214 73.5705 62.3672 73.2185 62.8528C72.871 63.334 72.4099 63.7172 71.8352 64.0023C71.2649 64.283 70.6011 64.4233 69.8437 64.4233ZM82.6549 60.0126V53.9444H84.2321V64.2095H82.6549V62.4719H82.548C82.3074 62.9932 81.9331 63.4365 81.4252 63.8018C80.9173 64.1627 80.2757 64.3431 79.5005 64.3431C78.859 64.3431 78.2887 64.2028 77.7897 63.9221C77.2907 63.637 76.8986 63.2093 76.6135 62.639C76.3283 62.0642 76.1858 61.3403 76.1858 60.467V53.9444H77.763V60.3601C77.763 61.1086 77.9724 61.7056 78.3912 62.1511C78.8144 62.5967 79.3535 62.8194 80.0084 62.8194C80.4005 62.8194 80.7992 62.7192 81.2047 62.5187C81.6146 62.3182 81.9576 62.0108 82.2339 61.5964C82.5145 61.1821 82.6549 60.6541 82.6549 60.0126ZM94.3918 56.2434L92.975 56.6444C92.8859 56.4082 92.7545 56.1788 92.5807 55.956C92.4114 55.7288 92.1798 55.5417 91.8857 55.3946C91.5917 55.2476 91.2152 55.1741 90.7563 55.1741C90.1281 55.1741 89.6046 55.3189 89.1858 55.6085C88.7715 55.8936 88.5643 56.2568 88.5643 56.6978C88.5643 57.0899 88.7069 57.3995 88.992 57.6268C89.2771 57.854 89.7227 58.0433 90.3286 58.1948L91.8523 58.5691C92.7701 58.7918 93.454 59.1327 93.904 59.5915C94.354 60.046 94.579 60.6319 94.579 61.3492C94.579 61.9373 94.4096 62.463 94.071 62.9263C93.7369 63.3897 93.2691 63.755 92.6676 64.0223C92.0662 64.2897 91.3667 64.4233 90.5692 64.4233C89.5222 64.4233 88.6556 64.1961 87.9695 63.7417C87.2834 63.2872 86.849 62.6234 86.6663 61.7501L88.1633 61.3759C88.3059 61.9284 88.5754 62.3427 88.9719 62.6189C89.3729 62.8952 89.8964 63.0333 90.5424 63.0333C91.2776 63.0333 91.8612 62.8773 92.2934 62.5655C92.73 62.2491 92.9483 61.8704 92.9483 61.4294C92.9483 61.0729 92.8236 60.7744 92.5741 60.5338C92.3246 60.2888 91.9414 60.1061 91.4246 59.9858L89.7138 59.5849C88.7737 59.3621 88.0831 59.0168 87.642 58.549C87.2054 58.0767 86.9871 57.4864 86.9871 56.778C86.9871 56.1988 87.1497 55.6865 87.475 55.2409C87.8047 54.7954 88.2524 54.4457 88.8182 54.1917C89.3885 53.9378 90.0345 53.8108 90.7563 53.8108C91.7721 53.8108 92.5696 54.0336 93.1488 54.4791C93.7324 54.9246 94.1468 55.5127 94.3918 56.2434ZM99.9738 64.4501C99.3233 64.4501 98.733 64.3275 98.2028 64.0825C97.6726 63.833 97.2516 63.4743 96.9397 63.0065C96.6278 62.5343 96.4719 61.964 96.4719 61.2957C96.4719 60.7076 96.5877 60.2309 96.8194 59.8655C97.0511 59.4958 97.3607 59.2062 97.7483 58.9968C98.136 58.7874 98.5637 58.6314 99.0315 58.529C99.5037 58.422 99.9782 58.3374 100.455 58.275C101.079 58.1948 101.584 58.1347 101.972 58.0946C102.364 58.05 102.649 57.9765 102.827 57.874C103.01 57.7716 103.101 57.5933 103.101 57.3394V57.2859C103.101 56.6265 102.921 56.1142 102.56 55.7488C102.204 55.3835 101.662 55.2008 100.936 55.2008C100.183 55.2008 99.5928 55.3657 99.1651 55.6954C98.7374 56.0251 98.4367 56.377 98.2629 56.7513L96.7659 56.2167C97.0333 55.5929 97.3897 55.1073 97.8352 54.7598C98.2852 54.4078 98.7753 54.1628 99.3055 54.0246C99.8401 53.8821 100.366 53.8108 100.883 53.8108C101.212 53.8108 101.591 53.8509 102.019 53.9311C102.451 54.0068 102.867 54.165 103.268 54.4056C103.674 54.6462 104.01 55.0093 104.278 55.4949C104.545 55.9805 104.679 56.631 104.679 57.4463V64.2095H103.101V62.8194H103.021C102.914 63.0422 102.736 63.2805 102.487 63.5345C102.237 63.7884 101.905 64.0045 101.491 64.1827C101.076 64.361 100.571 64.4501 99.9738 64.4501ZM100.214 63.0333C100.838 63.0333 101.364 62.9108 101.792 62.6657C102.224 62.4207 102.549 62.1043 102.767 61.7167C102.99 61.3291 103.101 60.9215 103.101 60.4937V59.0502C103.035 59.1304 102.888 59.2039 102.66 59.2708C102.438 59.3331 102.179 59.3888 101.885 59.4378C101.595 59.4824 101.313 59.5225 101.036 59.5581C100.765 59.5893 100.544 59.6161 100.375 59.6383C99.9649 59.6918 99.5817 59.7787 99.2253 59.899C98.8733 60.0148 98.5882 60.1908 98.3699 60.4269C98.156 60.6586 98.0491 60.9749 98.0491 61.3759C98.0491 61.9239 98.2518 62.3382 98.6572 62.6189C99.0671 62.8952 99.5862 63.0333 100.214 63.0333ZM112.128 53.9444V55.281H106.595V53.9444H112.128ZM108.252 64.2095V52.5277C108.252 51.9396 108.39 51.4495 108.667 51.0574C108.943 50.6653 109.302 50.3713 109.743 50.1753C110.184 49.9792 110.649 49.8812 111.139 49.8812C111.527 49.8812 111.843 49.9124 112.088 49.9748C112.333 50.0371 112.516 50.0951 112.636 50.1485L112.182 51.5119C112.102 51.4851 111.99 51.4517 111.848 51.4116C111.71 51.3715 111.527 51.3515 111.3 51.3515C110.778 51.3515 110.402 51.4829 110.17 51.7458C109.943 52.0086 109.829 52.394 109.829 52.9019V64.2095H108.252Z" fill="#B9B9B9" />
	<path d="M42.2901 73.0542C42.1434 73.0542 42.0103 73.0266 41.8907 72.9714C41.7712 72.9151 41.6762 72.8342 41.6059 72.7288C41.5356 72.6223 41.5004 72.4937 41.5004 72.343C41.5004 72.2104 41.5266 72.1029 41.5788 72.0205C41.631 71.9371 41.7009 71.8718 41.7883 71.8246C41.8757 71.7774 41.9721 71.7422 42.0776 71.7191C42.1841 71.695 42.2911 71.6759 42.3986 71.6619C42.5392 71.6438 42.6532 71.6302 42.7406 71.6212C42.829 71.6111 42.8933 71.5946 42.9335 71.5714C42.9747 71.5483 42.9953 71.5082 42.9953 71.4509V71.4388C42.9953 71.2902 42.9546 71.1746 42.8732 71.0922C42.7929 71.0099 42.6708 70.9687 42.5071 70.9687C42.3373 70.9687 42.2042 71.0059 42.1077 71.0802C42.0113 71.1545 41.9435 71.2339 41.9043 71.3183L41.5667 71.1977C41.627 71.0571 41.7074 70.9476 41.8079 70.8692C41.9093 70.7899 42.0198 70.7346 42.1394 70.7035C42.2599 70.6713 42.3785 70.6552 42.495 70.6552C42.5693 70.6552 42.6547 70.6643 42.7512 70.6824C42.8486 70.6994 42.9426 70.7351 43.033 70.7894C43.1244 70.8436 43.2002 70.9255 43.2605 71.035C43.3208 71.1445 43.3509 71.2912 43.3509 71.475V73H42.9953V72.6866H42.9772C42.9531 72.7368 42.9129 72.7905 42.8567 72.8478C42.8004 72.9051 42.7256 72.9538 42.6321 72.994C42.5387 73.0342 42.4247 73.0542 42.2901 73.0542ZM42.3443 72.7348C42.485 72.7348 42.6035 72.7072 42.6999 72.6519C42.7974 72.5966 42.8707 72.5253 42.92 72.4379C42.9702 72.3505 42.9953 72.2586 42.9953 72.1622V71.8367C42.9802 71.8547 42.9471 71.8713 42.8958 71.8864C42.8456 71.9005 42.7873 71.913 42.721 71.9241C42.6557 71.9341 42.5919 71.9432 42.5297 71.9512C42.4684 71.9582 42.4187 71.9642 42.3805 71.9693C42.2881 71.9813 42.2017 72.0009 42.1213 72.028C42.0419 72.0542 41.9776 72.0938 41.9284 72.1471C41.8802 72.1993 41.8561 72.2707 41.8561 72.3611C41.8561 72.4846 41.9018 72.5781 41.9932 72.6414C42.0856 72.7036 42.2027 72.7348 42.3443 72.7348ZM44.9403 73.0482C44.7234 73.0482 44.5365 72.997 44.3798 72.8945C44.2231 72.792 44.1025 72.6509 44.0181 72.4711C43.9337 72.2912 43.8915 72.0858 43.8915 71.8547C43.8915 71.6197 43.9347 71.4122 44.0211 71.2324C44.1085 71.0516 44.2301 70.9104 44.3858 70.8089C44.5425 70.7065 44.7254 70.6552 44.9343 70.6552C45.0971 70.6552 45.2437 70.6854 45.3743 70.7457C45.5049 70.8059 45.6119 70.8903 45.6953 70.9988C45.7787 71.1073 45.8304 71.2339 45.8505 71.3786H45.4949C45.4678 71.2731 45.4075 71.1797 45.3141 71.0983C45.2216 71.0159 45.0971 70.9747 44.9403 70.9747C44.8017 70.9747 44.6802 71.0109 44.5757 71.0832C44.4722 71.1545 44.3913 71.2555 44.3331 71.3861C44.2758 71.5157 44.2472 71.6679 44.2472 71.8427C44.2472 72.0215 44.2753 72.1772 44.3316 72.3098C44.3888 72.4424 44.4692 72.5454 44.5727 72.6188C44.6771 72.6921 44.7997 72.7288 44.9403 72.7288C45.0328 72.7288 45.1167 72.7127 45.192 72.6805C45.2673 72.6484 45.3311 72.6022 45.3834 72.5419C45.4356 72.4816 45.4728 72.4093 45.4949 72.3249H45.8505C45.8304 72.4615 45.7807 72.5846 45.7013 72.6941C45.623 72.8026 45.519 72.889 45.3894 72.9533C45.2608 73.0166 45.1111 73.0482 44.9403 73.0482ZM47.3107 73.0482C47.0937 73.0482 46.9069 72.997 46.7501 72.8945C46.5934 72.792 46.4729 72.6509 46.3885 72.4711C46.3041 72.2912 46.2619 72.0858 46.2619 71.8547C46.2619 71.6197 46.3051 71.4122 46.3915 71.2324C46.4789 71.0516 46.6005 70.9104 46.7562 70.8089C46.9129 70.7065 47.0957 70.6552 47.3047 70.6552C47.4674 70.6552 47.6141 70.6854 47.7447 70.7457C47.8753 70.8059 47.9823 70.8903 48.0657 70.9988C48.1491 71.1073 48.2008 71.2339 48.2209 71.3786H47.8653C47.8381 71.2731 47.7779 71.1797 47.6844 71.0983C47.592 71.0159 47.4674 70.9747 47.3107 70.9747C47.1721 70.9747 47.0505 71.0109 46.946 71.0832C46.8426 71.1545 46.7617 71.2555 46.7034 71.3861C46.6462 71.5157 46.6175 71.6679 46.6175 71.8427C46.6175 72.0215 46.6457 72.1772 46.7019 72.3098C46.7592 72.4424 46.8396 72.5454 46.943 72.6188C47.0475 72.6921 47.1701 72.7288 47.3107 72.7288C47.4031 72.7288 47.487 72.7127 47.5624 72.6805C47.6377 72.6484 47.7015 72.6022 47.7538 72.5419C47.806 72.4816 47.8432 72.4093 47.8653 72.3249H48.2209C48.2008 72.4615 48.1511 72.5846 48.0717 72.6941C47.9934 72.8026 47.8894 72.889 47.7598 72.9533C47.6312 73.0166 47.4815 73.0482 47.3107 73.0482ZM49.6811 73.0482C49.4721 73.0482 49.2888 72.9985 49.1311 72.899C48.9743 72.7996 48.8518 72.6604 48.7634 72.4816C48.676 72.3028 48.6323 72.0938 48.6323 71.8547C48.6323 71.6136 48.676 71.4032 48.7634 71.2234C48.8518 71.0435 48.9743 70.9039 49.1311 70.8044C49.2888 70.705 49.4721 70.6552 49.6811 70.6552C49.8901 70.6552 50.0729 70.705 50.2296 70.8044C50.3873 70.9039 50.5099 71.0435 50.5973 71.2234C50.6857 71.4032 50.7299 71.6136 50.7299 71.8547C50.7299 72.0938 50.6857 72.3028 50.5973 72.4816C50.5099 72.6604 50.3873 72.7996 50.2296 72.899C50.0729 72.9985 49.8901 73.0482 49.6811 73.0482ZM49.6811 72.7288C49.8398 72.7288 49.9704 72.6881 50.0729 72.6067C50.1754 72.5253 50.2512 72.4183 50.3004 72.2857C50.3497 72.1531 50.3743 72.0095 50.3743 71.8547C50.3743 71.7 50.3497 71.5559 50.3004 71.4223C50.2512 71.2887 50.1754 71.1807 50.0729 71.0983C49.9704 71.0159 49.8398 70.9747 49.6811 70.9747C49.5224 70.9747 49.3918 71.0159 49.2893 71.0983C49.1868 71.1807 49.111 71.2887 49.0618 71.4223C49.0125 71.5559 48.9879 71.7 48.9879 71.8547C48.9879 72.0095 49.0125 72.1531 49.0618 72.2857C49.111 72.4183 49.1868 72.5253 49.2893 72.6067C49.3918 72.6881 49.5224 72.7288 49.6811 72.7288ZM52.7315 72.0537V70.6854H53.0871V73H52.7315V72.6082H52.7073C52.6531 72.7257 52.5687 72.8257 52.4542 72.9081C52.3397 72.9895 52.195 73.0301 52.0202 73.0301C51.8755 73.0301 51.7469 72.9985 51.6344 72.9352C51.5219 72.8709 51.4335 72.7745 51.3692 72.6459C51.3049 72.5163 51.2728 72.353 51.2728 72.1561V70.6854H51.6284V72.132C51.6284 72.3008 51.6756 72.4354 51.77 72.5359C51.8655 72.6363 51.987 72.6866 52.1347 72.6866C52.2231 72.6866 52.313 72.664 52.4045 72.6188C52.4969 72.5735 52.5742 72.5042 52.6365 72.4108C52.6998 72.3174 52.7315 72.1983 52.7315 72.0537ZM54.0941 71.6076V73H53.7385V70.6854H54.082V71.047H54.1122C54.1664 70.9295 54.2488 70.8351 54.3593 70.7637C54.4698 70.6914 54.6125 70.6552 54.7873 70.6552C54.944 70.6552 55.0811 70.6874 55.1987 70.7517C55.3162 70.815 55.4076 70.9114 55.4729 71.041C55.5382 71.1696 55.5709 71.3324 55.5709 71.5293V73H55.2152V71.5534C55.2152 71.3715 55.168 71.2299 55.0736 71.1284C54.9791 71.0259 54.8495 70.9747 54.6848 70.9747C54.5713 70.9747 54.4698 70.9993 54.3804 71.0485C54.292 71.0978 54.2222 71.1696 54.1709 71.264C54.1197 71.3585 54.0941 71.473 54.0941 71.6076ZM57.2273 70.6854V70.9868H56.0278V70.6854H57.2273ZM56.3774 70.1308H56.7331V72.337C56.7331 72.4374 56.7476 72.5128 56.7768 72.563C56.8069 72.6122 56.8451 72.6454 56.8913 72.6625C56.9385 72.6785 56.9882 72.6866 57.0405 72.6866C57.0797 72.6866 57.1118 72.6846 57.1369 72.6805C57.162 72.6755 57.1821 72.6715 57.1972 72.6685L57.2695 72.9879C57.2454 72.997 57.2118 73.006 57.1686 73.0151C57.1254 73.0251 57.0706 73.0301 57.0043 73.0301C56.9038 73.0301 56.8054 73.0085 56.709 72.9653C56.6135 72.9221 56.5342 72.8563 56.4709 72.7679C56.4086 72.6795 56.3774 72.568 56.3774 72.4334V70.1308ZM57.7623 73V70.6854H58.1179V73H57.7623ZM57.9431 70.2996C57.8738 70.2996 57.814 70.276 57.7638 70.2288C57.7146 70.1816 57.69 70.1248 57.69 70.0585C57.69 69.9922 57.7146 69.9354 57.7638 69.8882C57.814 69.841 57.8738 69.8174 57.9431 69.8174C58.0124 69.8174 58.0717 69.841 58.1209 69.8882C58.1712 69.9354 58.1963 69.9922 58.1963 70.0585C58.1963 70.1248 58.1712 70.1816 58.1209 70.2288C58.0717 70.276 58.0124 70.2996 57.9431 70.2996ZM59.1249 71.6076V73H58.7693V70.6854H59.1129V71.047H59.143C59.1972 70.9295 59.2796 70.8351 59.3901 70.7637C59.5006 70.6914 59.6433 70.6552 59.8181 70.6552C59.9748 70.6552 60.1119 70.6874 60.2295 70.7517C60.347 70.815 60.4384 70.9114 60.5037 71.041C60.569 71.1696 60.6017 71.3324 60.6017 71.5293V73H60.2461V71.5534C60.2461 71.3715 60.1988 71.2299 60.1044 71.1284C60.01 71.0259 59.8804 70.9747 59.7156 70.9747C59.6021 70.9747 59.5006 70.9993 59.4112 71.0485C59.3228 71.0978 59.253 71.1696 59.2018 71.264C59.1505 71.3585 59.1249 71.473 59.1249 71.6076ZM62.1858 73.9162C62.014 73.9162 61.8664 73.8941 61.7428 73.8499C61.6192 73.8067 61.5163 73.7494 61.4339 73.6781C61.3525 73.6078 61.2877 73.5324 61.2395 73.4521L61.5228 73.2532C61.5549 73.2954 61.5956 73.3436 61.6448 73.3978C61.6941 73.4531 61.7614 73.5008 61.8468 73.541C61.9332 73.5822 62.0462 73.6028 62.1858 73.6028C62.3727 73.6028 62.5269 73.5576 62.6484 73.4671C62.77 73.3767 62.8308 73.2351 62.8308 73.0422V72.572H62.8006C62.7745 72.6142 62.7374 72.6665 62.6891 72.7288C62.6419 72.79 62.5736 72.8448 62.4842 72.893C62.3958 72.9402 62.2762 72.9638 62.1255 72.9638C61.9387 72.9638 61.7709 72.9196 61.6222 72.8312C61.4746 72.7428 61.3575 72.6142 61.2711 72.4455C61.1857 72.2767 61.143 72.0717 61.143 71.8306C61.143 71.5935 61.1847 71.3871 61.2681 71.2113C61.3515 71.0345 61.4675 70.8979 61.6162 70.8014C61.7649 70.704 61.9367 70.6552 62.1316 70.6552C62.2823 70.6552 62.4018 70.6804 62.4902 70.7306C62.5796 70.7798 62.6479 70.8361 62.6952 70.8994C62.7434 70.9617 62.7806 71.0129 62.8067 71.0531H62.8428V70.6854H63.1864V73.0663C63.1864 73.2652 63.1412 73.427 63.0508 73.5515C62.9614 73.6771 62.8408 73.769 62.6891 73.8273C62.5384 73.8866 62.3707 73.9162 62.1858 73.9162ZM62.1738 72.6444C62.3164 72.6444 62.437 72.6117 62.5354 72.5464C62.6339 72.4811 62.7087 72.3872 62.76 72.2646C62.8112 72.1421 62.8368 71.9954 62.8368 71.8246C62.8368 71.6578 62.8117 71.5107 62.7615 71.3831C62.7112 71.2555 62.6369 71.1555 62.5384 71.0832C62.44 71.0109 62.3184 70.9747 62.1738 70.9747C62.0231 70.9747 61.8975 71.0129 61.797 71.0892C61.6976 71.1656 61.6227 71.2681 61.5725 71.3966C61.5233 71.5252 61.4987 71.6679 61.4987 71.8246C61.4987 71.9853 61.5238 72.1275 61.574 72.2511C61.6253 72.3736 61.7006 72.4701 61.8001 72.5404C61.9005 72.6097 62.0251 72.6444 62.1738 72.6444ZM65.9049 73.0422C65.702 73.0422 65.5272 73.005 65.3805 72.9307C65.2338 72.8563 65.1208 72.7544 65.0414 72.6248C64.9621 72.4952 64.9224 72.347 64.9224 72.1802C64.9224 72.0516 64.9495 71.9376 65.0037 71.8382C65.059 71.7377 65.1349 71.6448 65.2313 71.5594C65.3287 71.473 65.4408 71.3866 65.5673 71.3002L66.0134 70.9687C66.1008 70.9114 66.1706 70.8501 66.2228 70.7848C66.2761 70.7195 66.3027 70.6341 66.3027 70.5287C66.3027 70.4503 66.268 70.3745 66.1987 70.3011C66.1304 70.2278 66.0405 70.1911 65.929 70.1911C65.8506 70.1911 65.7813 70.2112 65.721 70.2514C65.6618 70.2906 65.6151 70.3408 65.5809 70.4021C65.5477 70.4624 65.5312 70.5246 65.5312 70.5889C65.5312 70.6613 65.5508 70.7346 65.5899 70.8089C65.6301 70.8823 65.6809 70.9576 65.7421 71.035C65.8044 71.1113 65.8687 71.1897 65.935 71.2701L67.3515 73H66.9236L65.7542 71.5895C65.6457 71.4589 65.5472 71.3404 65.4588 71.2339C65.3704 71.1274 65.3001 71.0224 65.2479 70.919C65.1956 70.8155 65.1695 70.7035 65.1695 70.5829C65.1695 70.4443 65.2002 70.3227 65.2614 70.2182C65.3237 70.1128 65.4106 70.0309 65.5221 69.9726C65.6346 69.9133 65.7662 69.8837 65.9169 69.8837C66.0716 69.8837 66.2048 69.9138 66.3163 69.9741C66.4278 70.0334 66.5137 70.1123 66.574 70.2107C66.6342 70.3082 66.6644 70.4141 66.6644 70.5287C66.6644 70.6763 66.6277 70.8044 66.5544 70.9129C66.481 71.0214 66.3811 71.1224 66.2545 71.2158L65.6397 71.6739C65.501 71.7764 65.4071 71.8758 65.3579 71.9723C65.3086 72.0687 65.284 72.138 65.284 72.1802C65.284 72.2767 65.3092 72.3666 65.3594 72.45C65.4096 72.5334 65.4804 72.6007 65.5719 72.6519C65.6633 72.7031 65.7703 72.7288 65.8928 72.7288C66.0094 72.7288 66.1229 72.7041 66.2334 72.6549C66.3439 72.6047 66.4439 72.5324 66.5333 72.4379C66.6237 72.3435 66.695 72.23 66.7472 72.0974C66.8005 71.9648 66.8271 71.8156 66.8271 71.6498H67.1707C67.1707 71.8547 67.1471 72.022 67.0999 72.1516C67.0526 72.2812 66.9994 72.3827 66.9401 72.456C66.8809 72.5293 66.8331 72.5841 66.797 72.6203C66.7849 72.6353 66.7739 72.6504 66.7638 72.6655C66.7538 72.6805 66.7427 72.6956 66.7307 72.7107C66.6312 72.8222 66.5056 72.9056 66.3539 72.9608C66.2022 73.0151 66.0526 73.0422 65.9049 73.0422ZM69.9694 70.6854V70.9868H68.7217V70.6854H69.9694ZM69.0954 73V70.3659C69.0954 70.2333 69.1265 70.1228 69.1888 70.0344C69.2511 69.946 69.332 69.8797 69.4314 69.8355C69.5309 69.7913 69.6359 69.7692 69.7464 69.7692C69.8338 69.7692 69.9051 69.7762 69.9604 69.7903C70.0156 69.8043 70.0568 69.8174 70.0839 69.8295L69.9815 70.1369C69.9634 70.1308 69.9383 70.1233 69.9061 70.1143C69.875 70.1052 69.8338 70.1007 69.7825 70.1007C69.665 70.1007 69.5801 70.1303 69.5279 70.1896C69.4766 70.2489 69.451 70.3358 69.451 70.4503V73H69.0954ZM70.4678 73V70.6854H70.8234V73H70.4678ZM70.6486 70.2996C70.5793 70.2996 70.5196 70.276 70.4693 70.2288C70.4201 70.1816 70.3955 70.1248 70.3955 70.0585C70.3955 69.9922 70.4201 69.9354 70.4693 69.8882C70.5196 69.841 70.5793 69.8174 70.6486 69.8174C70.718 69.8174 70.7772 69.841 70.8265 69.8882C70.8767 69.9354 70.9018 69.9922 70.9018 70.0585C70.9018 70.1248 70.8767 70.1816 70.8265 70.2288C70.7772 70.276 70.718 70.2996 70.6486 70.2996ZM71.8304 71.6076V73H71.4748V70.6854H71.8184V71.047H71.8485C71.9028 70.9295 71.9851 70.8351 72.0957 70.7637C72.2062 70.6914 72.3488 70.6552 72.5236 70.6552C72.6803 70.6552 72.8175 70.6874 72.935 70.7517C73.0525 70.815 73.144 70.9114 73.2093 71.041C73.2746 71.1696 73.3072 71.3324 73.3072 71.5293V73H72.9516V71.5534C72.9516 71.3715 72.9044 71.2299 72.8099 71.1284C72.7155 71.0259 72.5859 70.9747 72.4211 70.9747C72.3076 70.9747 72.2062 70.9993 72.1168 71.0485C72.0283 71.0978 71.9585 71.1696 71.9073 71.264C71.8561 71.3585 71.8304 71.473 71.8304 71.6076ZM74.6382 73.0542C74.4915 73.0542 74.3584 73.0266 74.2389 72.9714C74.1193 72.9151 74.0244 72.8342 73.9541 72.7288C73.8837 72.6223 73.8486 72.4937 73.8486 72.343C73.8486 72.2104 73.8747 72.1029 73.9269 72.0205C73.9792 71.9371 74.049 71.8718 74.1364 71.8246C74.2238 71.7774 74.3202 71.7422 74.4257 71.7191C74.5322 71.695 74.6392 71.6759 74.7467 71.6619C74.8873 71.6438 75.0014 71.6302 75.0888 71.6212C75.1772 71.6111 75.2415 71.5946 75.2816 71.5714C75.3228 71.5483 75.3434 71.5082 75.3434 71.4509V71.4388C75.3434 71.2902 75.3027 71.1746 75.2214 71.0922C75.141 71.0099 75.0189 70.9687 74.8552 70.9687C74.6854 70.9687 74.5523 71.0059 74.4559 71.0802C74.3594 71.1545 74.2916 71.2339 74.2524 71.3183L73.9149 71.1977C73.9752 71.0571 74.0555 70.9476 74.156 70.8692C74.2574 70.7899 74.368 70.7346 74.4875 70.7035C74.6081 70.6713 74.7266 70.6552 74.8431 70.6552C74.9175 70.6552 75.0029 70.6643 75.0993 70.6824C75.1968 70.6994 75.2907 70.7351 75.3811 70.7894C75.4725 70.8436 75.5484 70.9255 75.6086 71.035C75.6689 71.1445 75.6991 71.2912 75.6991 71.475V73H75.3434V72.6866H75.3253C75.3012 72.7368 75.2611 72.7905 75.2048 72.8478C75.1485 72.9051 75.0737 72.9538 74.9803 72.994C74.8868 73.0342 74.7728 73.0542 74.6382 73.0542ZM74.6924 72.7348C74.8331 72.7348 74.9516 72.7072 75.0481 72.6519C75.1455 72.5966 75.2189 72.5253 75.2681 72.4379C75.3183 72.3505 75.3434 72.2586 75.3434 72.1622V71.8367C75.3284 71.8547 75.2952 71.8713 75.244 71.8864C75.1937 71.9005 75.1355 71.913 75.0692 71.9241C75.0039 71.9341 74.9401 71.9432 74.8778 71.9512C74.8165 71.9582 74.7668 71.9642 74.7286 71.9693C74.6362 71.9813 74.5498 72.0009 74.4694 72.028C74.3901 72.0542 74.3258 72.0938 74.2765 72.1471C74.2283 72.1993 74.2042 72.2707 74.2042 72.3611C74.2042 72.4846 74.2499 72.5781 74.3413 72.6414C74.4338 72.7036 74.5508 72.7348 74.6924 72.7348ZM76.7038 71.6076V73H76.3482V70.6854H76.6917V71.047H76.7219C76.7761 70.9295 76.8585 70.8351 76.969 70.7637C77.0795 70.6914 77.2222 70.6552 77.397 70.6552C77.5537 70.6552 77.6908 70.6874 77.8084 70.7517C77.9259 70.815 78.0173 70.9114 78.0826 71.041C78.1479 71.1696 78.1806 71.3324 78.1806 71.5293V73H77.8249V71.5534C77.8249 71.3715 77.7777 71.2299 77.6833 71.1284C77.5889 71.0259 77.4593 70.9747 77.2945 70.9747C77.181 70.9747 77.0795 70.9993 76.9901 71.0485C76.9017 71.0978 76.8319 71.1696 76.7806 71.264C76.7294 71.3585 76.7038 71.473 76.7038 71.6076ZM79.7707 73.0482C79.5537 73.0482 79.3669 72.997 79.2102 72.8945C79.0534 72.792 78.9329 72.6509 78.8485 72.4711C78.7641 72.2912 78.7219 72.0858 78.7219 71.8547C78.7219 71.6197 78.7651 71.4122 78.8515 71.2324C78.9389 71.0516 79.0605 70.9104 79.2162 70.8089C79.3729 70.7065 79.5557 70.6552 79.7647 70.6552C79.9275 70.6552 80.0741 70.6854 80.2047 70.7457C80.3353 70.8059 80.4423 70.8903 80.5257 70.9988C80.6091 71.1073 80.6608 71.2339 80.6809 71.3786H80.3253C80.2982 71.2731 80.2379 71.1797 80.1444 71.0983C80.052 71.0159 79.9275 70.9747 79.7707 70.9747C79.6321 70.9747 79.5105 71.0109 79.4061 71.0832C79.3026 71.1545 79.2217 71.2555 79.1634 71.3861C79.1062 71.5157 79.0776 71.6679 79.0776 71.8427C79.0776 72.0215 79.1057 72.1772 79.1619 72.3098C79.2192 72.4424 79.2996 72.5454 79.403 72.6188C79.5075 72.6921 79.6301 72.7288 79.7707 72.7288C79.8632 72.7288 79.947 72.7127 80.0224 72.6805C80.0977 72.6484 80.1615 72.6022 80.2138 72.5419C80.266 72.4816 80.3032 72.4093 80.3253 72.3249H80.6809C80.6608 72.4615 80.6111 72.5846 80.5317 72.6941C80.4534 72.8026 80.3494 72.889 80.2198 72.9533C80.0912 73.0166 79.9415 73.0482 79.7707 73.0482ZM81.2008 73V70.6854H81.5564V73H81.2008ZM81.3816 70.2996C81.3123 70.2996 81.2525 70.276 81.2023 70.2288C81.1531 70.1816 81.1285 70.1248 81.1285 70.0585C81.1285 69.9922 81.1531 69.9354 81.2023 69.8882C81.2525 69.841 81.3123 69.8174 81.3816 69.8174C81.4509 69.8174 81.5102 69.841 81.5594 69.8882C81.6097 69.9354 81.6348 69.9922 81.6348 70.0585C81.6348 70.1248 81.6097 70.1816 81.5594 70.2288C81.5102 70.276 81.4509 70.2996 81.3816 70.2996ZM82.8889 73.0542C82.7422 73.0542 82.6091 73.0266 82.4896 72.9714C82.37 72.9151 82.2751 72.8342 82.2048 72.7288C82.1345 72.6223 82.0993 72.4937 82.0993 72.343C82.0993 72.2104 82.1254 72.1029 82.1777 72.0205C82.2299 71.9371 82.2997 71.8718 82.3871 71.8246C82.4745 71.7774 82.571 71.7422 82.6764 71.7191C82.7829 71.695 82.8899 71.6759 82.9974 71.6619C83.1381 71.6438 83.2521 71.6302 83.3395 71.6212C83.4279 71.6111 83.4922 71.5946 83.5324 71.5714C83.5736 71.5483 83.5941 71.5082 83.5941 71.4509V71.4388C83.5941 71.2902 83.5535 71.1746 83.4721 71.0922C83.3917 71.0099 83.2697 70.9687 83.1059 70.9687C82.9361 70.9687 82.803 71.0059 82.7066 71.0802C82.6101 71.1545 82.5423 71.2339 82.5031 71.3183L82.1656 71.1977C82.2259 71.0571 82.3062 70.9476 82.4067 70.8692C82.5082 70.7899 82.6187 70.7346 82.7382 70.7035C82.8588 70.6713 82.9773 70.6552 83.0939 70.6552C83.1682 70.6552 83.2536 70.6643 83.35 70.6824C83.4475 70.6994 83.5414 70.7351 83.6318 70.7894C83.7232 70.8436 83.7991 70.9255 83.8594 71.035C83.9196 71.1445 83.9498 71.2912 83.9498 71.475V73H83.5941V72.6866H83.5761C83.552 72.7368 83.5118 72.7905 83.4555 72.8478C83.3993 72.9051 83.3244 72.9538 83.231 72.994C83.1376 73.0342 83.0235 73.0542 82.8889 73.0542ZM82.9432 72.7348C83.0838 72.7348 83.2024 72.7072 83.2988 72.6519C83.3962 72.5966 83.4696 72.5253 83.5188 72.4379C83.569 72.3505 83.5941 72.2586 83.5941 72.1622V71.8367C83.5791 71.8547 83.5459 71.8713 83.4947 71.8864C83.4445 71.9005 83.3862 71.913 83.3199 71.9241C83.2546 71.9341 83.1908 71.9432 83.1285 71.9512C83.0672 71.9582 83.0175 71.9642 82.9793 71.9693C82.8869 71.9813 82.8005 72.0009 82.7201 72.028C82.6408 72.0542 82.5765 72.0938 82.5273 72.1471C82.479 72.1993 82.4549 72.2707 82.4549 72.3611C82.4549 72.4846 82.5006 72.5781 82.5921 72.6414C82.6845 72.7036 82.8015 72.7348 82.9432 72.7348ZM84.9545 69.9138V73H84.5989V69.9138H84.9545ZM86.7994 73V70.6854H87.1429V71.047H87.1731C87.2213 70.9235 87.2991 70.8275 87.4066 70.7592C87.5141 70.6899 87.6432 70.6552 87.7939 70.6552C87.9466 70.6552 88.0737 70.6899 88.1752 70.7592C88.2776 70.8275 88.3575 70.9235 88.4148 71.047H88.4389C88.4981 70.9275 88.5871 70.8326 88.7056 70.7622C88.8241 70.6909 88.9663 70.6552 89.1321 70.6552C89.339 70.6552 89.5083 70.72 89.6399 70.8496C89.7715 70.9782 89.8373 71.1786 89.8373 71.4509V73H89.4817V71.4509C89.4817 71.2801 89.4349 71.1581 89.3415 71.0847C89.2481 71.0114 89.1381 70.9747 89.0115 70.9747C88.8488 70.9747 88.7227 71.0239 88.6333 71.1224C88.5439 71.2198 88.4991 71.3434 88.4991 71.4931V73H88.1375V71.4147C88.1375 71.2831 88.0948 71.1771 88.0094 71.0968C87.924 71.0154 87.814 70.9747 87.6794 70.9747C87.587 70.9747 87.5006 70.9993 87.4202 71.0485C87.3408 71.0978 87.2765 71.1661 87.2273 71.2535C87.1791 71.3399 87.155 71.4398 87.155 71.5534V73H86.7994ZM91.1686 73.0542C91.022 73.0542 90.8889 73.0266 90.7693 72.9714C90.6498 72.9151 90.5548 72.8342 90.4845 72.7288C90.4142 72.6223 90.379 72.4937 90.379 72.343C90.379 72.2104 90.4051 72.1029 90.4574 72.0205C90.5096 71.9371 90.5794 71.8718 90.6668 71.8246C90.7542 71.7774 90.8507 71.7422 90.9562 71.7191C91.0627 71.695 91.1696 71.6759 91.2771 71.6619C91.4178 71.6438 91.5318 71.6302 91.6192 71.6212C91.7076 71.6111 91.7719 71.5946 91.8121 71.5714C91.8533 71.5483 91.8739 71.5082 91.8739 71.4509V71.4388C91.8739 71.2902 91.8332 71.1746 91.7518 71.0922C91.6714 71.0099 91.5494 70.9687 91.3856 70.9687C91.2159 70.9687 91.0827 71.0059 90.9863 71.0802C90.8899 71.1545 90.8221 71.2339 90.7829 71.3183L90.4453 71.1977C90.5056 71.0571 90.586 70.9476 90.6864 70.8692C90.7879 70.7899 90.8984 70.7346 91.018 70.7035C91.1385 70.6713 91.257 70.6552 91.3736 70.6552C91.4479 70.6552 91.5333 70.6643 91.6298 70.6824C91.7272 70.6994 91.8211 70.7351 91.9116 70.7894C92.003 70.8436 92.0788 70.9255 92.1391 71.035C92.1994 71.1445 92.2295 71.2912 92.2295 71.475V73H91.8739V72.6866H91.8558C91.8317 72.7368 91.7915 72.7905 91.7352 72.8478C91.679 72.9051 91.6041 72.9538 91.5107 72.994C91.4173 73.0342 91.3033 73.0542 91.1686 73.0542ZM91.2229 72.7348C91.3635 72.7348 91.4821 72.7072 91.5785 72.6519C91.676 72.5966 91.7493 72.5253 91.7985 72.4379C91.8488 72.3505 91.8739 72.2586 91.8739 72.1622V71.8367C91.8588 71.8547 91.8257 71.8713 91.7744 71.8864C91.7242 71.9005 91.6659 71.913 91.5996 71.9241C91.5343 71.9341 91.4705 71.9432 91.4082 71.9512C91.347 71.9582 91.2972 71.9642 91.2591 71.9693C91.1666 71.9813 91.0802 72.0009 90.9999 72.028C90.9205 72.0542 90.8562 72.0938 90.807 72.1471C90.7588 72.1993 90.7347 72.2707 90.7347 72.3611C90.7347 72.4846 90.7804 72.5781 90.8718 72.6414C90.9642 72.7036 91.0812 72.7348 91.2229 72.7348ZM93.2342 71.6076V73H92.8786V70.6854H93.2222V71.047H93.2523C93.3066 70.9295 93.3889 70.8351 93.4995 70.7637C93.61 70.6914 93.7526 70.6552 93.9274 70.6552C94.0841 70.6552 94.2213 70.6874 94.3388 70.7517C94.4563 70.815 94.5478 70.9114 94.6131 71.041C94.6784 71.1696 94.711 71.3324 94.711 71.5293V73H94.3554V71.5534C94.3554 71.3715 94.3082 71.2299 94.2137 71.1284C94.1193 71.0259 93.9897 70.9747 93.8249 70.9747C93.7114 70.9747 93.61 70.9993 93.5206 71.0485C93.4321 71.0978 93.3623 71.1696 93.3111 71.264C93.2599 71.3585 93.2342 71.473 93.2342 71.6076ZM96.042 73.0542C95.8953 73.0542 95.7622 73.0266 95.6427 72.9714C95.5231 72.9151 95.4282 72.8342 95.3579 72.7288C95.2875 72.6223 95.2524 72.4937 95.2524 72.343C95.2524 72.2104 95.2785 72.1029 95.3307 72.0205C95.383 71.9371 95.4528 71.8718 95.5402 71.8246C95.6276 71.7774 95.724 71.7422 95.8295 71.7191C95.936 71.695 96.043 71.6759 96.1505 71.6619C96.2911 71.6438 96.4052 71.6302 96.4926 71.6212C96.581 71.6111 96.6453 71.5946 96.6854 71.5714C96.7266 71.5483 96.7472 71.5082 96.7472 71.4509V71.4388C96.7472 71.2902 96.7065 71.1746 96.6252 71.0922C96.5448 71.0099 96.4227 70.9687 96.259 70.9687C96.0892 70.9687 95.9561 71.0059 95.8597 71.0802C95.7632 71.1545 95.6954 71.2339 95.6562 71.3183L95.3187 71.1977C95.379 71.0571 95.4593 70.9476 95.5598 70.8692C95.6612 70.7899 95.7718 70.7346 95.8913 70.7035C96.0119 70.6713 96.1304 70.6552 96.2469 70.6552C96.3213 70.6552 96.4067 70.6643 96.5031 70.6824C96.6006 70.6994 96.6945 70.7351 96.7849 70.7894C96.8763 70.8436 96.9522 70.9255 97.0124 71.035C97.0727 71.1445 97.1029 71.2912 97.1029 71.475V73H96.7472V72.6866H96.7291C96.705 72.7368 96.6649 72.7905 96.6086 72.8478C96.5523 72.9051 96.4775 72.9538 96.3841 72.994C96.2906 73.0342 96.1766 73.0542 96.042 73.0542ZM96.0962 72.7348C96.2369 72.7348 96.3554 72.7072 96.4519 72.6519C96.5493 72.5966 96.6227 72.5253 96.6719 72.4379C96.7221 72.3505 96.7472 72.2586 96.7472 72.1622V71.8367C96.7322 71.8547 96.699 71.8713 96.6478 71.8864C96.5975 71.9005 96.5393 71.913 96.473 71.9241C96.4077 71.9341 96.3439 71.9432 96.2816 71.9512C96.2203 71.9582 96.1706 71.9642 96.1324 71.9693C96.04 71.9813 95.9536 72.0009 95.8732 72.028C95.7939 72.0542 95.7296 72.0938 95.6803 72.1471C95.6321 72.1993 95.608 72.2707 95.608 72.3611C95.608 72.4846 95.6537 72.5781 95.7451 72.6414C95.8376 72.7036 95.9546 72.7348 96.0962 72.7348ZM98.6863 73.9162C98.5145 73.9162 98.3668 73.8941 98.2432 73.8499C98.1197 73.8067 98.0167 73.7494 97.9343 73.6781C97.8529 73.6078 97.7881 73.5324 97.7399 73.4521L98.0232 73.2532C98.0554 73.2954 98.096 73.3436 98.1453 73.3978C98.1945 73.4531 98.2618 73.5008 98.3472 73.541C98.4336 73.5822 98.5466 73.6028 98.6863 73.6028C98.8731 73.6028 99.0273 73.5576 99.1489 73.4671C99.2704 73.3767 99.3312 73.2351 99.3312 73.0422V72.572H99.3011C99.275 72.6142 99.2378 72.6665 99.1896 72.7288C99.1423 72.79 99.074 72.8448 98.9846 72.893C98.8962 72.9402 98.7767 72.9638 98.626 72.9638C98.4391 72.9638 98.2713 72.9196 98.1227 72.8312C97.975 72.7428 97.858 72.6142 97.7716 72.4455C97.6862 72.2767 97.6435 72.0717 97.6435 71.8306C97.6435 71.5935 97.6852 71.3871 97.7685 71.2113C97.8519 71.0345 97.968 70.8979 98.1166 70.8014C98.2653 70.704 98.4371 70.6552 98.632 70.6552C98.7827 70.6552 98.9022 70.6804 98.9906 70.7306C99.0801 70.7798 99.1484 70.8361 99.1956 70.8994C99.2438 70.9617 99.281 71.0129 99.3071 71.0531H99.3433V70.6854H99.6868V73.0663C99.6868 73.2652 99.6416 73.427 99.5512 73.5515C99.4618 73.6771 99.3413 73.769 99.1896 73.8273C99.0389 73.8866 98.8711 73.9162 98.6863 73.9162ZM98.6742 72.6444C98.8168 72.6444 98.9374 72.6117 99.0359 72.5464C99.1343 72.4811 99.2091 72.3872 99.2604 72.2646C99.3116 72.1421 99.3372 71.9954 99.3372 71.8246C99.3372 71.6578 99.3121 71.5107 99.2619 71.3831C99.2117 71.2555 99.1373 71.1555 99.0389 71.0832C98.9404 71.0109 98.8189 70.9747 98.6742 70.9747C98.5235 70.9747 98.3979 71.0129 98.2975 71.0892C98.198 71.1656 98.1232 71.2681 98.0729 71.3966C98.0237 71.5252 97.9991 71.6679 97.9991 71.8246C97.9991 71.9853 98.0242 72.1275 98.0744 72.2511C98.1257 72.3736 98.201 72.4701 98.3005 72.5404C98.4009 72.6097 98.5255 72.6444 98.6742 72.6444ZM101.308 73.0482C101.085 73.0482 100.893 72.999 100.731 72.9005C100.57 72.8011 100.446 72.6625 100.359 72.4846C100.273 72.3058 100.229 72.0979 100.229 71.8608C100.229 71.6237 100.273 71.4147 100.359 71.2339C100.446 71.0521 100.568 70.9104 100.724 70.8089C100.88 70.7065 101.063 70.6552 101.272 70.6552C101.393 70.6552 101.512 70.6753 101.629 70.7155C101.747 70.7557 101.854 70.821 101.95 70.9114C102.047 71.0008 102.124 71.1194 102.181 71.2671C102.238 71.4147 102.267 71.5966 102.267 71.8126V71.9632H100.482V71.6558H101.905C101.905 71.5252 101.879 71.4087 101.827 71.3062C101.775 71.2038 101.702 71.1229 101.607 71.0636C101.512 71.0043 101.401 70.9747 101.272 70.9747C101.13 70.9747 101.008 71.0099 100.904 71.0802C100.802 71.1495 100.723 71.2399 100.668 71.3514C100.613 71.4629 100.585 71.5825 100.585 71.7101V71.915C100.585 72.0898 100.615 72.238 100.675 72.3596C100.737 72.4801 100.822 72.572 100.93 72.6353C101.039 72.6976 101.165 72.7288 101.308 72.7288C101.402 72.7288 101.486 72.7157 101.561 72.6896C101.638 72.6625 101.704 72.6223 101.759 72.569C101.814 72.5148 101.857 72.4475 101.887 72.3671L102.231 72.4635C102.194 72.5801 102.134 72.6825 102.048 72.7709C101.963 72.8584 101.857 72.9267 101.732 72.9759C101.606 73.0241 101.465 73.0482 101.308 73.0482ZM102.808 73V70.6854H103.151V71.047H103.181C103.23 70.9235 103.307 70.8275 103.415 70.7592C103.522 70.6899 103.652 70.6552 103.802 70.6552C103.955 70.6552 104.082 70.6899 104.183 70.7592C104.286 70.8275 104.366 70.9235 104.423 71.047H104.447C104.506 70.9275 104.595 70.8326 104.714 70.7622C104.832 70.6909 104.975 70.6552 105.14 70.6552C105.347 70.6552 105.517 70.72 105.648 70.8496C105.78 70.9782 105.846 71.1786 105.846 71.4509V73H105.49V71.4509C105.49 71.2801 105.443 71.1581 105.35 71.0847C105.256 71.0114 105.146 70.9747 105.02 70.9747C104.857 70.9747 104.731 71.0239 104.642 71.1224C104.552 71.2198 104.507 71.3434 104.507 71.4931V73H104.146V71.4147C104.146 71.2831 104.103 71.1771 104.018 71.0968C103.932 71.0154 103.822 70.9747 103.688 70.9747C103.595 70.9747 103.509 70.9993 103.429 71.0485C103.349 71.0978 103.285 71.1661 103.236 71.2535C103.187 71.3399 103.163 71.4398 103.163 71.5534V73H102.808ZM107.466 73.0482C107.243 73.0482 107.051 72.999 106.889 72.9005C106.728 72.8011 106.604 72.6625 106.517 72.4846C106.431 72.3058 106.387 72.0979 106.387 71.8608C106.387 71.6237 106.431 71.4147 106.517 71.2339C106.604 71.0521 106.726 70.9104 106.882 70.8089C107.038 70.7065 107.221 70.6552 107.43 70.6552C107.551 70.6552 107.67 70.6753 107.787 70.7155C107.905 70.7557 108.012 70.821 108.108 70.9114C108.205 71.0008 108.282 71.1194 108.339 71.2671C108.396 71.4147 108.425 71.5966 108.425 71.8126V71.9632H106.64V71.6558H108.063C108.063 71.5252 108.037 71.4087 107.985 71.3062C107.933 71.2038 107.86 71.1229 107.765 71.0636C107.67 71.0043 107.559 70.9747 107.43 70.9747C107.288 70.9747 107.166 71.0099 107.062 71.0802C106.96 71.1495 106.881 71.2399 106.826 71.3514C106.771 71.4629 106.743 71.5825 106.743 71.7101V71.915C106.743 72.0898 106.773 72.238 106.833 72.3596C106.895 72.4801 106.98 72.572 107.088 72.6353C107.197 72.6976 107.323 72.7288 107.466 72.7288C107.56 72.7288 107.644 72.7157 107.719 72.6896C107.796 72.6625 107.862 72.6223 107.917 72.569C107.972 72.5148 108.015 72.4475 108.045 72.3671L108.389 72.4635C108.352 72.5801 108.292 72.6825 108.206 72.7709C108.121 72.8584 108.015 72.9267 107.89 72.9759C107.764 73.0241 107.623 73.0482 107.466 73.0482ZM109.321 71.6076V73H108.966V70.6854H109.309V71.047H109.339C109.394 70.9295 109.476 70.8351 109.587 70.7637C109.697 70.6914 109.84 70.6552 110.014 70.6552C110.171 70.6552 110.308 70.6874 110.426 70.7517C110.543 70.815 110.635 70.9114 110.7 71.041C110.765 71.1696 110.798 71.3324 110.798 71.5293V73H110.442V71.5534C110.442 71.3715 110.395 71.2299 110.301 71.1284C110.206 71.0259 110.077 70.9747 109.912 70.9747C109.798 70.9747 109.697 70.9993 109.608 71.0485C109.519 71.0978 109.449 71.1696 109.398 71.264C109.347 71.3585 109.321 71.473 109.321 71.6076ZM112.455 70.6854V70.9868H111.255V70.6854H112.455ZM111.605 70.1308H111.96V72.337C111.96 72.4374 111.975 72.5128 112.004 72.563C112.034 72.6122 112.072 72.6454 112.118 72.6625C112.166 72.6785 112.215 72.6866 112.268 72.6866C112.307 72.6866 112.339 72.6846 112.364 72.6805C112.389 72.6755 112.409 72.6715 112.424 72.6685L112.497 72.9879C112.473 72.997 112.439 73.006 112.396 73.0151C112.353 73.0251 112.298 73.0301 112.232 73.0301C112.131 73.0301 112.033 73.0085 111.936 72.9653C111.841 72.9221 111.761 72.8563 111.698 72.7679C111.636 72.6795 111.605 72.568 111.605 72.4334V70.1308Z" fill="#B9B9B9" />
</svg>
