<svg width="160" height="80" viewBox="0 0 160 80" fill="none" xmlns="http://www.w3.org/2000/svg">
	<rect width="160" height="80" fill="white" />
	<g clip-path="url(#clip0_13428_2256)">
		<mask id="mask0_13428_2256" style="mask-type:luminance" maskUnits="userSpaceOnUse" x="-16" y="-56" width="194" height="193">
			<path d="M177.063 -55.9746H-15.0627V136.151H177.063V-55.9746Z" fill="white" />
		</mask>
		<g mask="url(#mask0_13428_2256)">
			<path d="M24.4883 41.5127H8.99915V57.0018H24.4883V41.5127Z" fill="#B9B9B9" />
			<path d="M16.6458 35.9984C20.7288 35.9984 24.0388 32.6884 24.0388 28.6054C24.0388 24.5224 20.7288 21.2124 16.6458 21.2124C12.5628 21.2124 9.25281 24.5224 9.25281 28.6054C9.25281 32.6884 12.5628 35.9984 16.6458 35.9984Z" fill="#B9B9B9" />
			<path d="M36.6192 21.1816H31.1552V57.3089H36.6192V21.1816Z" fill="#E3E3E3" />
			<path d="M24.4883 41.5127L8.99915 57.0018H24.4883V41.5127Z" fill="#E3E3E3" />
			<path d="M47.2675 38.9297H44.9447V27.016C44.9447 25.301 45.4942 23.9023 46.5932 22.82C47.7088 21.7377 49.0825 21.1965 50.7143 21.1965C52.5126 21.1965 53.8613 21.6544 54.7604 22.5702C55.6762 23.4694 56.1341 24.5766 56.1341 25.8921C56.1341 27.5738 55.3515 28.781 53.7864 29.5136V29.6135C55.9343 30.2296 57.0083 31.7199 57.0083 34.0843C57.0083 37.3146 55.1018 38.9297 51.2887 38.9297H48.1667V36.7318H51.2638C52.4127 36.7318 53.2535 36.4987 53.7864 36.0324C54.3192 35.5662 54.5856 34.8169 54.5856 33.7846C54.5856 32.8854 54.2942 32.1944 53.7114 31.7115C53.1453 31.2287 52.371 30.9872 51.3886 30.9872H48.916V28.9142H50.5145C51.4136 28.9142 52.1796 28.6728 52.8123 28.1899C53.4617 27.6904 53.7864 27.0243 53.7864 26.1918C53.7864 25.3925 53.5366 24.7265 53.0371 24.1937C52.5542 23.6608 51.7633 23.3944 50.6643 23.3944C49.6653 23.3944 48.8494 23.7108 48.2166 24.3435C47.5839 24.9596 47.2675 25.8671 47.2675 27.0659V38.9297ZM66.2938 31.8864V34.1342C65.6611 33.6514 64.8868 33.4099 63.971 33.4099C63.1884 33.4099 62.5807 33.5681 62.1478 33.8845C61.7148 34.1842 61.4984 34.6171 61.4984 35.1832C61.4984 36.2822 62.3143 36.8317 63.9461 36.8317H67.2429V32.0612C67.2429 30.0464 66.2605 29.0391 64.2957 29.0391H60.2995V26.9411H64.4206C66.0357 26.9411 67.2762 27.3407 68.1421 28.1399C69.0079 28.9392 69.4408 30.0881 69.4408 31.5867V38.9297H63.8711C62.4558 38.9297 61.3319 38.6133 60.4993 37.9806C59.6668 37.3479 59.2505 36.4237 59.2505 35.2082C59.2505 33.9927 59.6918 33.0686 60.5743 32.4358C61.4567 31.8031 62.564 31.4868 63.8961 31.4868C64.6454 31.4868 65.4446 31.62 66.2938 31.8864ZM82.127 38.9297H77.8061C75.9579 38.9297 74.6342 38.6549 73.8349 38.1055C73.1189 37.6226 72.661 37.0481 72.4612 36.3821C72.2781 35.6994 72.1865 34.8086 72.1865 33.7096V26.9411H74.3844V33.6847C74.3844 33.9844 74.3927 34.2425 74.4094 34.4589C74.426 34.6587 74.4843 34.9252 74.5842 35.2582C74.6841 35.5745 74.8256 35.841 75.0088 36.0574C75.192 36.2572 75.4584 36.4404 75.808 36.6069C76.1577 36.7567 76.5823 36.8317 77.0818 36.8317H79.9291V26.9411H82.127V38.9297ZM87.4579 21.4463V26.9411H89.5809C91.4292 26.9411 92.7529 27.2158 93.5521 27.7653C94.2681 28.2482 94.7177 28.8309 94.9009 29.5136C95.1007 30.1797 95.2006 31.0622 95.2006 32.1611V38.9297H93.0027V32.1861C93.0027 31.8864 92.9943 31.6366 92.9777 31.4368C92.961 31.2203 92.9028 30.9539 92.8028 30.6376C92.7029 30.3045 92.5614 30.0381 92.3783 29.8383C92.1951 29.6219 91.9287 29.4387 91.579 29.2888C91.2293 29.1223 90.8047 29.0391 90.3052 29.0391H87.4579V38.9297H85.26V21.4463H87.4579ZM99.5609 28.5146C100.726 27.2991 102.183 26.6913 103.932 26.6913C104.781 26.6913 105.572 26.8578 106.304 27.1908C107.054 27.5072 107.703 27.9484 108.253 28.5146C108.819 29.0807 109.26 29.7467 109.576 30.5127C109.893 31.262 110.051 32.0695 110.051 32.9354C110.051 33.8012 109.893 34.6171 109.576 35.3831C109.277 36.1323 108.852 36.7901 108.303 37.3562C107.753 37.9223 107.104 38.3719 106.354 38.7049C105.605 39.0213 104.798 39.1795 103.932 39.1795C103.049 39.1795 102.233 39.0213 101.484 38.7049C100.751 38.3719 100.11 37.9223 99.5609 37.3562C99.0114 36.7901 98.5785 36.1323 98.2621 35.3831C97.9624 34.6171 97.8125 33.8012 97.8125 32.9354C97.8125 31.1704 98.3953 29.6968 99.5609 28.5146ZM103.932 28.7893C102.766 28.7893 101.825 29.1723 101.109 29.9382C100.41 30.7042 100.06 31.7032 100.06 32.9354C100.06 34.1675 100.41 35.1666 101.109 35.9325C101.825 36.6985 102.766 37.0814 103.932 37.0814C105.114 37.0814 106.055 36.6985 106.754 35.9325C107.453 35.1499 107.803 34.1509 107.803 32.9354C107.803 31.7199 107.453 30.7291 106.754 29.9632C106.055 29.1806 105.114 28.7893 103.932 28.7893ZM122.616 38.9297H118.295C116.447 38.9297 115.123 38.6549 114.324 38.1055C113.608 37.6226 113.15 37.0481 112.95 36.3821C112.767 35.6994 112.675 34.8086 112.675 33.7096V26.9411H114.873V33.6847C114.873 33.9844 114.882 34.2425 114.898 34.4589C114.915 34.6587 114.973 34.9252 115.073 35.2582C115.173 35.5745 115.315 35.841 115.498 36.0574C115.681 36.2572 115.947 36.4404 116.297 36.6069C116.647 36.7567 117.071 36.8317 117.571 36.8317H120.418V26.9411H122.616V38.9297ZM134.066 26.9411V29.0391H129.645C129.162 29.0391 128.746 29.1307 128.396 29.3138C128.047 29.497 127.872 29.7551 127.872 30.0881C127.872 30.2879 127.914 30.471 127.997 30.6376C128.08 30.7874 128.172 30.9123 128.272 31.0122C128.388 31.1121 128.555 31.2203 128.771 31.3369C129.004 31.4368 129.179 31.5117 129.296 31.5617C129.429 31.595 129.962 31.7615 130.894 32.0612C131.826 32.3609 132.518 32.6107 132.967 32.8105C133.417 33.0103 133.758 33.285 133.991 33.6347C134.241 33.9677 134.399 34.3007 134.466 34.6338C134.532 34.9501 134.566 35.2665 134.566 35.5829C134.566 37.8141 133.034 38.9297 129.97 38.9297H125.649V36.8317H129.97C131.535 36.8317 132.318 36.4154 132.318 35.5829C132.318 35.1832 132.085 34.8502 131.618 34.5838C131.169 34.3174 130.611 34.0926 129.945 33.9095C129.296 33.7263 128.638 33.5182 127.972 33.285C127.322 33.0353 126.765 32.644 126.298 32.1112C125.849 31.5617 125.624 30.8873 125.624 30.0881C125.624 29.0724 126.015 28.2981 126.798 27.7653C127.581 27.2158 128.53 26.9411 129.645 26.9411H134.066ZM142.936 26.6913C145.766 26.8079 147.182 27.9817 147.182 30.213C147.182 32.9937 145.358 34.384 141.712 34.384H140.688V32.4608H141.887C143.002 32.4608 143.777 32.2943 144.21 31.9613C144.642 31.6116 144.859 31.0372 144.859 30.2379C144.859 29.7218 144.667 29.3388 144.284 29.089C143.902 28.8226 143.41 28.6894 142.811 28.6894C141.629 28.6894 140.696 29.1057 140.014 29.9382C139.347 30.7708 139.014 31.7698 139.014 32.9354C139.014 34.1675 139.372 35.1666 140.088 35.9325C140.821 36.6985 141.77 37.0814 142.936 37.0814C143.985 37.0814 144.842 36.8234 145.508 36.3072L147.007 37.7808C145.858 38.7132 144.501 39.1795 142.936 39.1795C141.038 39.1795 139.522 38.6216 138.39 37.506C137.258 36.3904 136.692 34.9501 136.692 33.1851C136.692 31.2203 137.249 29.6302 138.365 28.4147C139.481 27.1992 141.004 26.6247 142.936 26.6913Z" fill="#B9B9B9" />
			<path d="M58.507 55.5957C58.3415 55.5957 58.2053 55.5422 58.0982 55.4351C57.9911 55.328 57.9376 55.1917 57.9376 55.0262V44.7614C57.9376 44.5959 57.9911 44.4596 58.0982 44.3525C58.2053 44.2454 58.3415 44.1919 58.507 44.1919H61.2375C61.9481 44.1919 62.5809 44.3428 63.1357 44.6446C63.6906 44.9366 64.1238 45.3503 64.4353 45.8857C64.7565 46.4113 64.9171 47.0197 64.9171 47.7109C64.9171 48.3728 64.7565 48.9617 64.4353 49.4777C64.1238 49.9936 63.6906 50.3976 63.1357 50.6896C62.5809 50.9816 61.9481 51.1276 61.2375 51.1276H59.0765V55.0262C59.0765 55.1917 59.023 55.328 58.9159 55.4351C58.8088 55.5422 58.6725 55.5957 58.507 55.5957ZM64.6105 55.5957C64.4839 55.5957 64.3817 55.5714 64.3038 55.5227C64.2357 55.474 64.1724 55.401 64.114 55.3037L61.3105 50.8356L62.4494 50.5436L65.0631 54.7196C65.2091 54.9532 65.2335 55.1577 65.1361 55.3329C65.0485 55.5081 64.8733 55.5957 64.6105 55.5957ZM59.0765 50.0325H61.2375C61.734 50.0325 62.172 49.9352 62.5517 49.7405C62.941 49.5361 63.2477 49.2586 63.4715 48.9082C63.6954 48.5578 63.8074 48.1587 63.8074 47.7109C63.8074 47.2339 63.6954 46.8153 63.4715 46.4551C63.2477 46.0852 62.941 45.7981 62.5517 45.5937C62.172 45.3892 61.734 45.287 61.2375 45.287H59.0765V50.0325ZM67.5332 55.5957C67.3677 55.5957 67.2314 55.5422 67.1243 55.4351C67.0172 55.328 66.9637 55.1917 66.9637 55.0262V44.7614C66.9637 44.5959 67.0172 44.4596 67.1243 44.3525C67.2314 44.2454 67.3677 44.1919 67.5332 44.1919H74.3813C74.537 44.1919 74.6685 44.2454 74.7755 44.3525C74.8923 44.4499 74.9507 44.5813 74.9507 44.7468C74.9507 44.8928 74.8923 45.0193 74.7755 45.1264C74.6685 45.2335 74.537 45.287 74.3813 45.287H68.1026V49.317H72.6729C72.8384 49.317 72.9747 49.3706 73.0818 49.4777C73.1888 49.5847 73.2424 49.7162 73.2424 49.8719C73.2424 50.0277 73.1888 50.1591 73.0818 50.2661C72.9747 50.3732 72.8384 50.4268 72.6729 50.4268H68.1026V54.5006H74.3813C74.537 54.5006 74.6685 54.5541 74.7755 54.6612C74.8923 54.7683 74.9507 54.8948 74.9507 55.0408C74.9507 55.2063 74.8923 55.3426 74.7755 55.4497C74.6685 55.547 74.537 55.5957 74.3813 55.5957H67.5332ZM76.4457 55.5957C76.2218 55.5957 76.0612 55.5032 75.9638 55.3183C75.8665 55.1333 75.8568 54.9532 75.9346 54.778L80.2275 44.5862C80.3346 44.3233 80.5195 44.1919 80.7823 44.1919C81.0354 44.1919 81.2155 44.3233 81.3226 44.5862L85.6301 54.7926C85.7177 54.9776 85.7031 55.1577 85.5863 55.3329C85.4792 55.5081 85.3234 55.5957 85.119 55.5957C85.0022 55.5957 84.8951 55.5665 84.7978 55.5081C84.7102 55.4497 84.6372 55.3621 84.5787 55.2453L80.5633 45.506H81.016L76.9713 55.2453C76.9227 55.3621 76.8497 55.4497 76.7523 55.5081C76.6647 55.5665 76.5625 55.5957 76.4457 55.5957ZM77.4094 52.8798L77.8474 51.9015H83.7757L84.2137 52.8798H77.4094ZM87.9097 55.5957C87.754 55.5957 87.6177 55.5422 87.5009 55.4351C87.3938 55.328 87.3403 55.1917 87.3403 55.0262V44.7614C87.3403 44.6056 87.3938 44.4742 87.5009 44.3671C87.6177 44.2503 87.754 44.1919 87.9097 44.1919C88.0655 44.1919 88.1969 44.2503 88.304 44.3671C88.4208 44.4742 88.4792 44.6056 88.4792 44.7614V54.5152H94.1884C94.3441 54.5152 94.4755 54.5687 94.5826 54.6758C94.6994 54.7732 94.7578 54.8997 94.7578 55.0554C94.7578 55.2112 94.6994 55.3426 94.5826 55.4497C94.4755 55.547 94.3441 55.5957 94.1884 55.5957H87.9097ZM101.428 55.5957C101.262 55.5957 101.126 55.5422 101.019 55.4351C100.912 55.328 100.858 55.1917 100.858 55.0262V44.7614C100.858 44.5959 100.912 44.4596 101.019 44.3525C101.126 44.2454 101.262 44.1919 101.428 44.1919H108.276C108.431 44.1919 108.563 44.2454 108.67 44.3525C108.787 44.4499 108.845 44.5813 108.845 44.7468C108.845 44.8928 108.787 45.0193 108.67 45.1264C108.563 45.2335 108.431 45.287 108.276 45.287H101.997V49.317H106.567C106.733 49.317 106.869 49.3706 106.976 49.4777C107.083 49.5847 107.137 49.7162 107.137 49.8719C107.137 50.0277 107.083 50.1591 106.976 50.2661C106.869 50.3732 106.733 50.4268 106.567 50.4268H101.997V54.5006H108.276C108.431 54.5006 108.563 54.5541 108.67 54.6612C108.787 54.7683 108.845 54.8948 108.845 55.0408C108.845 55.2063 108.787 55.3426 108.67 55.4497C108.563 55.547 108.431 55.5957 108.276 55.5957H101.428ZM114.472 55.7417C113.849 55.7417 113.27 55.6541 112.735 55.4789C112.209 55.2939 111.752 55.036 111.362 54.705C110.973 54.374 110.676 53.9895 110.471 53.5515C110.394 53.3957 110.389 53.2546 110.457 53.128C110.535 52.9918 110.661 52.8993 110.837 52.8506C110.973 52.8117 111.104 52.8263 111.231 52.8944C111.367 52.9626 111.469 53.0648 111.537 53.2011C111.683 53.4833 111.898 53.7364 112.18 53.9603C112.462 54.1842 112.798 54.3594 113.187 54.486C113.577 54.6028 114.005 54.6612 114.472 54.6612C114.988 54.6612 115.446 54.5785 115.845 54.413C116.244 54.2378 116.555 53.9895 116.779 53.6683C117.013 53.3373 117.13 52.9382 117.13 52.471C117.13 51.8772 116.911 51.3661 116.473 50.9378C116.035 50.5095 115.348 50.2369 114.414 50.1201C113.275 49.9838 112.384 49.6334 111.742 49.0688C111.099 48.4945 110.778 47.7936 110.778 46.9662C110.778 46.3724 110.934 45.8565 111.245 45.4184C111.567 44.9804 112.005 44.6446 112.559 44.4109C113.114 44.1676 113.752 44.0459 114.472 44.0459C115.008 44.0459 115.494 44.1335 115.932 44.3087C116.37 44.4742 116.75 44.6981 117.071 44.9804C117.402 45.253 117.67 45.5547 117.874 45.8857C117.972 46.0414 118.001 46.1923 117.962 46.3383C117.933 46.4843 117.85 46.5963 117.714 46.6742C117.568 46.7423 117.417 46.752 117.261 46.7034C117.115 46.6547 117.003 46.5622 116.925 46.4259C116.779 46.2021 116.594 45.9928 116.37 45.7981C116.156 45.5937 115.894 45.433 115.582 45.3162C115.271 45.1994 114.896 45.1361 114.458 45.1264C113.689 45.1264 113.071 45.2919 112.603 45.6229C112.136 45.9441 111.902 46.4162 111.902 47.0392C111.902 47.3702 111.99 47.6768 112.165 47.9591C112.34 48.2317 112.628 48.4702 113.027 48.6746C113.436 48.8693 113.981 49.0153 114.662 49.1126C115.879 49.2878 116.779 49.6626 117.363 50.2369C117.957 50.8015 118.254 51.5413 118.254 52.4564C118.254 52.982 118.157 53.4493 117.962 53.8581C117.777 54.267 117.509 54.6125 117.159 54.8948C116.818 55.1674 116.414 55.3767 115.947 55.5227C115.49 55.6687 114.998 55.7417 114.472 55.7417ZM123.366 55.5957C123.21 55.5957 123.074 55.5422 122.957 55.4351C122.85 55.3183 122.796 55.182 122.796 55.0262V44.1919H123.935V55.0262C123.935 55.182 123.882 55.3183 123.774 55.4351C123.667 55.5422 123.531 55.5957 123.366 55.5957ZM119.336 45.2286C119.18 45.2286 119.053 45.1799 118.956 45.0826C118.859 44.9853 118.81 44.8636 118.81 44.7176C118.81 44.5618 118.859 44.4353 118.956 44.3379C119.053 44.2406 119.18 44.1919 119.336 44.1919H127.41C127.566 44.1919 127.693 44.2406 127.79 44.3379C127.887 44.4353 127.936 44.5618 127.936 44.7176C127.936 44.8636 127.887 44.9853 127.79 45.0826C127.693 45.1799 127.566 45.2286 127.41 45.2286H119.336ZM127.822 55.5957C127.598 55.5957 127.437 55.5032 127.34 55.3183C127.243 55.1333 127.233 54.9532 127.311 54.778L131.604 44.5862C131.711 44.3233 131.896 44.1919 132.159 44.1919C132.412 44.1919 132.592 44.3233 132.699 44.5862L137.006 54.7926C137.094 54.9776 137.079 55.1577 136.963 55.3329C136.855 55.5081 136.7 55.5957 136.495 55.5957C136.378 55.5957 136.271 55.5665 136.174 55.5081C136.086 55.4497 136.013 55.3621 135.955 55.2453L131.94 45.506H132.392L128.348 55.2453C128.299 55.3621 128.226 55.4497 128.129 55.5081C128.041 55.5665 127.939 55.5957 127.822 55.5957ZM128.786 52.8798L129.224 51.9015H135.152L135.59 52.8798H128.786ZM140.862 55.5957C140.706 55.5957 140.57 55.5422 140.453 55.4351C140.346 55.3183 140.292 55.182 140.292 55.0262V44.1919H141.431V55.0262C141.431 55.182 141.378 55.3183 141.271 55.4351C141.164 55.5422 141.027 55.5957 140.862 55.5957ZM136.832 45.2286C136.676 45.2286 136.55 45.1799 136.452 45.0826C136.355 44.9853 136.306 44.8636 136.306 44.7176C136.306 44.5618 136.355 44.4353 136.452 44.3379C136.55 44.2406 136.676 44.1919 136.832 44.1919H144.906C145.062 44.1919 145.189 44.2406 145.286 44.3379C145.383 44.4353 145.432 44.5618 145.432 44.7176C145.432 44.8636 145.383 44.9853 145.286 45.0826C145.189 45.1799 145.062 45.2286 144.906 45.2286H136.832ZM147.685 55.5957C147.519 55.5957 147.383 55.5422 147.276 55.4351C147.169 55.328 147.115 55.1917 147.115 55.0262V44.7614C147.115 44.5959 147.169 44.4596 147.276 44.3525C147.383 44.2454 147.519 44.1919 147.685 44.1919H154.533C154.689 44.1919 154.82 44.2454 154.927 44.3525C155.044 44.4499 155.102 44.5813 155.102 44.7468C155.102 44.8928 155.044 45.0193 154.927 45.1264C154.82 45.2335 154.689 45.287 154.533 45.287H148.254V49.317H152.824C152.99 49.317 153.126 49.3706 153.233 49.4777C153.34 49.5847 153.394 49.7162 153.394 49.8719C153.394 50.0277 153.34 50.1591 153.233 50.2661C153.126 50.3732 152.99 50.4268 152.824 50.4268H148.254V54.5006H154.533C154.689 54.5006 154.82 54.5541 154.927 54.6612C155.044 54.7683 155.102 54.8948 155.102 55.0408C155.102 55.2063 155.044 55.3426 154.927 55.4497C154.82 55.547 154.689 55.5957 154.533 55.5957H147.685Z" fill="#B9B9B9" />
		</g>
	</g>
	<defs>
		<clipPath id="clip0_13428_2256">
			<rect width="142.68" height="41.8449" fill="white" transform="translate(8.99976 19)" />
		</clipPath>
	</defs>
</svg>
