<svg width="160" height="80" viewBox="0 0 160 80" fill="none" xmlns="http://www.w3.org/2000/svg">
	<rect width="160" height="80" fill="white" />
	<path d="M37.8612 32.6509L32.1848 38.3062L34.3705 40.4838L40.0795 34.8285L37.8612 32.6509Z" fill="#EBEBEB" />
	<path d="M26.3781 44.0913L20.7017 49.7466L22.8875 51.9567L28.5639 46.2689L26.3781 44.0913Z" fill="#BBBBBB" />
	<path d="M30.7828 36.9084L36.4592 31.2206L34.2734 29.043L28.5644 34.6983L30.7828 36.9084Z" fill="#BBBBBB" />
	<path d="M24.9748 42.6935L22.7564 40.4834L17.08 46.1712L19.2658 48.3488L24.9748 42.6935Z" fill="#EBEBEB" />
	<path d="M24.9748 38.3062L19.2658 32.6509L17.08 34.8285L22.7564 40.4838L24.9748 38.3062Z" fill="#EBEBEB" />
	<path d="M26.3781 36.9084L28.5639 34.6983L22.8875 29.043L20.7017 31.2206L26.3781 36.9084Z" fill="#BBBBBB" />
	<path d="M32.1848 42.6935L37.8612 48.3488L40.0795 46.1712L34.3705 40.4834L32.1848 42.6935Z" fill="#EBEBEB" />
	<path d="M36.4592 49.7466L30.7828 44.0913L28.5644 46.2689L34.2734 51.9567L36.4592 49.7466Z" fill="#BBBBBB" />
	<path d="M36.4587 54.1347L34.2729 51.957L28.5639 57.6123L22.8875 51.957L20.7017 54.1347L28.5639 62.0001L36.4587 54.1347Z" fill="#BBBBBB" />
	<path d="M17.0805 34.8285L14.8948 32.6509L7 40.4838L14.8948 48.3492L17.0805 46.1716L11.4041 40.4838L17.0805 34.8285Z" fill="#EBEBEB" />
	<path d="M42.2651 32.6509L40.0793 34.8285L45.7558 40.4838L40.0793 46.1716L42.2651 48.3492L50.1599 40.4838L42.2651 32.6509Z" fill="#EBEBEB" />
	<path d="M34.2729 29.043L36.4587 26.8654L28.5639 19L20.7017 26.8654L22.8875 29.043L28.5639 23.3877L34.2729 29.043Z" fill="#BBBBBB" />
	<path d="M67.6875 40.6042C68.3803 40.052 68.9345 39.2237 69.1424 38.1884V38.1194L67.6875 37.7743V37.8433C67.4797 38.6026 67.2026 39.2238 66.7176 39.6379C66.2327 40.052 65.6092 40.2591 64.9164 40.2591C64.3622 40.2591 63.8079 40.121 63.323 39.8449C62.8381 39.5689 62.4917 39.0857 62.2145 38.5335C61.9374 37.9124 61.8682 37.2222 61.8682 36.4629C61.8682 35.8417 61.9374 35.2206 62.1453 34.6684C62.3531 34.1163 62.6995 33.6331 63.1844 33.288C63.6694 32.9429 64.2929 32.8049 64.9857 32.8049C65.6092 32.8049 66.1634 32.9429 66.5791 33.288C66.9947 33.5641 67.3411 34.0472 67.549 34.7374V34.8065L69.0038 34.4614V34.3923C68.7267 33.4951 68.2417 32.8049 67.549 32.3217C66.8562 31.8386 66.0248 31.5625 65.055 31.5625C64.1543 31.5625 63.3923 31.7696 62.6302 32.1147C61.9374 32.5288 61.3139 33.0809 60.9676 33.8402C60.5519 34.5994 60.3441 35.4966 60.3441 36.4629C60.3441 37.3602 60.5519 38.2575 60.8983 39.0857C61.2447 39.914 61.7989 40.5351 62.4224 40.9493C63.1152 41.3634 63.9465 41.5705 65.055 41.5705C66.0941 41.4324 66.9947 41.1563 67.6875 40.6042Z" fill="#BBBBBB" />
	<path d="M82.6505 39.0851C83.0662 38.3259 83.274 37.4286 83.274 36.4623C83.274 35.496 83.0661 34.6678 82.7198 33.8395C82.3041 33.0803 81.7498 32.4592 81.0571 32.045C80.295 31.6309 79.4637 31.4238 78.5631 31.4238C77.1775 31.4238 75.9998 31.907 75.0992 32.8042C74.1986 33.7015 73.7829 35.0129 73.7829 36.6004C73.7829 37.4286 73.9907 38.2568 74.3371 39.0161C74.6835 39.7753 75.307 40.3965 75.9998 40.8106C76.7618 41.2248 77.5932 41.5008 78.4938 41.5008C79.3944 41.5008 80.1565 41.2938 80.9185 40.8796C81.6113 40.4655 82.2348 39.8443 82.6505 39.0851ZM78.4938 40.1894C77.5932 40.1894 76.7618 39.8443 76.1383 39.2231C75.5148 38.6019 75.2377 37.7047 75.2377 36.5314C75.2377 35.1509 75.5841 34.1156 76.2076 33.4944C76.8311 32.8733 77.5932 32.5972 78.4938 32.5972C79.1173 32.5972 79.6715 32.7352 80.2258 33.0803C80.7107 33.3564 81.1264 33.8395 81.3342 34.3917C81.6113 34.9439 81.7498 35.6341 81.7498 36.3933C81.7498 37.5667 81.4727 38.5329 80.8492 39.1541C80.2257 39.8443 79.3944 40.1894 78.4938 40.1894Z" fill="#BBBBBB" />
	<path d="M97.7542 31.7002H96.3687V41.4321H97.7542V31.7002Z" fill="#BBBBBB" />
	<path d="M93.6679 41.4319L95.8848 35.2891V31.8381L93.5293 38.464C93.3215 39.0162 93.1829 39.4303 93.1137 39.7754L92.698 38.6021L90.3425 31.769H90.204V35.2891L92.3516 41.5009H93.6679V41.4319Z" fill="#BBBBBB" />
	<path d="M89.6492 31.7002H88.2637V41.4321H89.6492V31.7002Z" fill="#BBBBBB" />
	<path d="M109.601 36.6697C110.155 36.1175 110.432 35.3583 110.432 34.53C110.432 34.0469 110.363 33.5638 110.155 33.2187C109.947 32.8045 109.67 32.4594 109.324 32.2524C108.977 32.0453 108.562 31.8382 108.077 31.7692C107.73 31.7002 107.245 31.7002 106.553 31.7002H104.751V33.0116H106.622C107.176 33.0116 107.592 33.0116 107.8 33.0806C108.146 33.1496 108.354 33.3567 108.562 33.6328C108.769 33.9088 108.839 34.254 108.839 34.5991C108.839 35.1512 108.7 35.4963 108.354 35.8414C108.007 36.1175 107.453 36.2555 106.622 36.2555H104.682V37.5669H106.622C108.077 37.5669 109.116 37.2909 109.601 36.6697Z" fill="#BBBBBB" />
	<path d="M104.267 31.7002H102.812V41.4321H104.267V31.7002Z" fill="#BBBBBB" />
	<path d="M120.825 31.7002H119.301L115.49 41.4321H117.015L117.43 40.3277L118.539 37.3599L118.747 36.7387L119.578 34.5991C119.786 34.1159 119.924 33.6327 119.994 33.1496C120.132 33.6327 120.34 34.1849 120.617 34.8061L121.587 37.3599H119.093L118.677 38.5332H122.072L123.18 41.4321H124.843L120.825 31.7002Z" fill="#BBBBBB" />
	<path d="M136.203 38.9473V41.4321H137.658V31.7002H136.273V39.0163L136.203 38.9473Z" fill="#BBBBBB" />
	<path d="M131.216 31.7002H129.83V41.4321H131.216V31.7002Z" fill="#BBBBBB" />
	<path d="M135.719 38.1883L131.7 32.3906V34.8063L135.719 40.6731V38.1883Z" fill="#BBBBBB" />
	<path d="M150.266 31.7002L148.326 34.53C147.98 35.0822 147.633 35.6343 147.356 36.1175L146.525 37.3599V41.4321H147.98V37.3599L151.929 31.7692H150.266V31.7002Z" fill="#BBBBBB" />
	<path d="M146.456 34.6681L144.516 31.7002H142.715L146.248 36.8767L147.079 35.6344L146.456 34.6681Z" fill="#BBBBBB" />
	<path d="M61.9386 49.3008V46.2639H62.9084V45.7808H60.4144V46.2639H61.3843V49.3008H61.9386Z" fill="#BBBBBB" />
	<path d="M67.2015 45.7808H66.7858L65.4695 49.3008H66.0238L66.3009 48.5416H67.6172L67.8943 49.3008H68.4485L67.2015 45.7808ZM66.5087 48.0585L66.9936 46.54L67.4786 48.0585H66.5087Z" fill="#BBBBBB" />
	<path d="M72.3979 46.5402C72.4672 46.4711 72.5364 46.4021 72.6057 46.3331C72.675 46.2641 72.8135 46.2641 72.9521 46.2641C73.0906 46.2641 73.2985 46.3331 73.3678 46.4021C73.5063 46.4711 73.5756 46.6092 73.5756 46.7472H74.1298C74.0605 46.4711 73.922 46.1951 73.7142 45.988C73.5063 45.781 73.2292 45.7119 72.8828 45.7119C72.6057 45.7119 72.3979 45.7809 72.19 45.919C71.9822 46.057 71.8437 46.1951 71.7744 46.3331C71.7051 46.4021 71.7051 46.5402 71.6358 46.6782C71.6358 46.8163 71.5665 47.0923 71.5665 47.5064C71.5665 47.9206 71.5665 48.1966 71.6358 48.3347C71.6358 48.4037 71.6358 48.4727 71.7051 48.5417C71.7051 48.6108 71.7744 48.6108 71.7744 48.6798C71.8437 48.8178 71.9822 48.9559 72.19 49.0939C72.3979 49.232 72.6057 49.301 72.8828 49.301C73.2292 49.301 73.5756 49.1629 73.7834 48.9559C73.9913 48.7488 74.1298 48.4037 74.1298 48.0586V47.3684H72.8828V47.8515H73.5756V48.0586C73.5756 48.2657 73.5063 48.4727 73.3678 48.6108C73.2292 48.7488 73.0906 48.8178 72.8828 48.8178C72.7443 48.8178 72.675 48.8178 72.5364 48.7488C72.4671 48.6798 72.3979 48.6108 72.3286 48.5417C72.2593 48.4727 72.19 48.3347 72.19 48.2657C72.19 48.1276 72.1208 47.9206 72.1208 47.5755C72.1208 47.2304 72.1207 47.0233 72.19 46.8853C72.2593 46.7472 72.3286 46.6092 72.3979 46.5402Z" fill="#BBBBBB" />
	<path d="M77.8016 45.7808V49.3008H80.0185V48.8177H78.2865V45.7808H77.8016Z" fill="#BBBBBB" />
	<path d="M84.1064 45.7808H83.5522V49.3008H84.1064V45.7808Z" fill="#BBBBBB" />
	<path d="M88.3335 46.8161L89.9269 49.3008H90.4118V45.7808H89.9269V48.3345H89.8576L88.2642 45.7808H87.7792V49.3008H88.3335V46.8161Z" fill="#BBBBBB" />
	<path d="M96.4384 46.333V45.7808H94.1523V49.3008H96.4384V48.8177H94.7065V47.7824H96.1614V47.2992H94.7065V46.333H96.4384Z" fill="#BBBBBB" />
	<path d="M104.059 48.5416C104.059 48.6106 104.128 48.6106 104.128 48.6796C104.198 48.8177 104.336 48.9557 104.544 49.0938C104.752 49.2318 104.96 49.3008 105.237 49.3008C105.583 49.3008 105.93 49.1628 106.137 48.9557C106.345 48.7487 106.484 48.4036 106.484 48.0585V47.3683H105.237V47.8514H105.93V48.0585C105.93 48.2655 105.86 48.4726 105.722 48.6106C105.583 48.7487 105.445 48.8177 105.237 48.8177C105.098 48.8177 105.029 48.8177 104.89 48.7487C104.821 48.6797 104.752 48.6106 104.683 48.5416C104.613 48.4726 104.544 48.3345 104.544 48.2655C104.544 48.1275 104.475 47.9204 104.475 47.5753C104.475 47.2302 104.475 47.0232 104.544 46.8851C104.544 46.7471 104.613 46.678 104.683 46.609C104.752 46.54 104.821 46.471 104.89 46.402C104.96 46.3329 105.098 46.333 105.237 46.333C105.375 46.333 105.583 46.4019 105.652 46.471C105.791 46.54 105.86 46.678 105.86 46.8161H106.414C106.345 46.54 106.207 46.2639 105.999 46.0569C105.791 45.8498 105.514 45.7808 105.167 45.7808C104.89 45.7808 104.683 45.8498 104.475 45.9879C104.267 46.1259 104.128 46.2639 104.059 46.402C103.99 46.471 103.99 46.609 103.92 46.7471C103.92 46.8851 103.851 47.1612 103.851 47.5753C103.851 47.9894 103.851 48.2655 103.92 48.4036C103.99 48.4726 103.99 48.5416 104.059 48.5416Z" fill="#BBBBBB" />
	<path d="M110.016 48.5417C110.016 48.6108 110.086 48.6108 110.086 48.6798C110.155 48.8178 110.294 48.9559 110.501 49.0939C110.709 49.232 110.917 49.301 111.194 49.301C111.471 49.301 111.679 49.232 111.887 49.0939C112.095 48.9559 112.233 48.8178 112.303 48.6798C112.372 48.6108 112.372 48.4727 112.441 48.3347C112.441 48.1966 112.441 47.9206 112.441 47.5064C112.441 47.0923 112.441 46.8163 112.441 46.6782C112.441 46.5402 112.372 46.4021 112.303 46.3331C112.233 46.1951 112.095 46.057 111.887 45.919C111.679 45.7809 111.471 45.7119 111.194 45.7119C110.917 45.7119 110.709 45.7809 110.501 45.919C110.294 46.057 110.155 46.1951 110.086 46.3331C110.016 46.4021 110.016 46.5402 109.947 46.6782C109.947 46.8163 109.878 47.0923 109.878 47.5064C109.878 47.9206 109.878 48.1966 109.947 48.3347C110.016 48.4727 110.016 48.5417 110.016 48.5417ZM110.501 46.8853C110.501 46.7472 110.571 46.6782 110.64 46.6092C110.709 46.5402 110.778 46.4711 110.848 46.4021C110.917 46.3331 111.056 46.3331 111.194 46.3331C111.333 46.3331 111.402 46.3331 111.541 46.4021C111.61 46.4711 111.679 46.5402 111.748 46.6092C111.818 46.6782 111.887 46.8162 111.887 46.8853C111.887 47.0233 111.956 47.2304 111.956 47.5755C111.956 47.9206 111.956 48.1276 111.887 48.2657C111.887 48.4037 111.818 48.4727 111.748 48.5417C111.679 48.6108 111.61 48.6798 111.541 48.7488C111.471 48.8178 111.333 48.8178 111.194 48.8178C111.056 48.8178 110.986 48.8178 110.848 48.7488C110.778 48.6798 110.709 48.6108 110.64 48.5417C110.571 48.4727 110.501 48.3347 110.501 48.2657C110.501 48.1276 110.432 47.9206 110.432 47.5755C110.501 47.2304 110.501 46.9543 110.501 46.8853Z" fill="#BBBBBB" />
	<path d="M118.33 46.333V45.7808H116.113V49.3008H118.33V48.8177H116.598V47.7824H118.053V47.2992H116.598V46.333H118.33Z" fill="#BBBBBB" />
	<path d="M122.901 48.8178C122.485 48.8178 122.208 48.6798 121.931 48.4727L121.585 48.8868C121.931 49.2319 122.416 49.37 122.901 49.37C123.732 49.37 124.148 49.0249 124.148 48.3347C124.148 48.0586 124.079 47.8515 123.94 47.6445C123.802 47.4374 123.525 47.3684 123.178 47.2994C123.04 47.2994 122.901 47.2304 122.762 47.2304C122.555 47.2304 122.485 47.1614 122.416 47.0233C122.347 46.9543 122.277 46.8162 122.277 46.7472C122.277 46.6092 122.347 46.4712 122.485 46.3331C122.624 46.2641 122.762 46.1951 122.901 46.1951C123.247 46.1951 123.525 46.2641 123.802 46.4711L124.079 46.057C123.732 45.85 123.386 45.7119 122.901 45.7119C122.555 45.7119 122.278 45.781 122.07 45.988C121.862 46.1951 121.793 46.4021 121.793 46.7472C121.793 47.0233 121.862 47.2304 122.07 47.3684C122.208 47.5755 122.485 47.6445 122.762 47.7135C122.901 47.7135 123.109 47.7825 123.247 47.7825C123.525 47.8515 123.732 47.9896 123.732 48.2657C123.525 48.6798 123.317 48.8178 122.901 48.8178Z" fill="#BBBBBB" />
	<path d="M134.263 49.3008V45.7808H133.778V47.2992H132.323V45.7808H131.838V49.3008H132.323V47.7824H133.778V49.3008H134.263Z" fill="#BBBBBB" />
	<path d="M140.292 46.333V45.7808H138.006V49.3008H140.292V48.8177H138.56V47.7824H140.015V47.2992H138.56V46.333H140.292Z" fill="#BBBBBB" />
	<path d="M146.178 46.8154C146.178 46.4703 146.04 46.2632 145.832 46.0562C145.624 45.9181 145.416 45.8491 145.139 45.8491H143.754V49.3691H144.308V47.8507H145.001L145.763 49.3691H146.386L145.555 47.7817C145.971 47.5746 146.178 47.2985 146.178 46.8154ZM145.555 47.1605C145.486 47.2985 145.278 47.2986 145.07 47.3676H144.239V46.3323H145.07C145.209 46.3323 145.347 46.4013 145.486 46.4703C145.624 46.5393 145.694 46.6774 145.694 46.8844C145.694 46.9534 145.624 47.0915 145.555 47.1605Z" fill="#BBBBBB" />
	<path d="M152 46.333V45.7808H149.783V49.3008H152V48.8177H150.268V47.7824H151.792V47.2992H150.268V46.333H152Z" fill="#BBBBBB" />
</svg>
