<svg width="160" height="80" viewBox="0 0 160 80" fill="none" xmlns="http://www.w3.org/2000/svg">
	<rect width="160" height="80" fill="white" />
	<g clip-path="url(#clip0_13428_2167)">
		<path d="M54.2977 29.8287C54.2977 30.0109 54.1486 30.16 53.9663 30.16H49.26C49.0777 30.16 48.9286 30.0109 48.9286 29.8287V25.1243C48.9286 24.9421 49.0777 24.793 49.26 24.793H53.9663C54.1486 24.793 54.2977 24.9421 54.2977 25.1243V29.8287Z" fill="#B9B9B9" />
		<path d="M61.0588 29.8287C61.0588 30.0109 60.9097 30.16 60.7274 30.16H56.0211C55.8388 30.16 55.6897 30.0109 55.6897 29.8287V25.1243C55.6897 24.9421 55.8388 24.793 56.0211 24.793H60.7274C60.9097 24.793 61.0588 24.9421 61.0588 25.1243V29.8287Z" fill="#B9B9B9" />
		<path d="M104.31 29.8287C104.31 30.0109 104.161 30.16 103.979 30.16H99.2726C99.0903 30.16 98.9412 30.0109 98.9412 29.8287V25.1243C98.9412 24.9421 99.0903 24.793 99.2726 24.793H103.979C104.161 24.793 104.31 24.9421 104.31 25.1243V29.8287Z" fill="#B9B9B9" />
		<path d="M111.071 29.8287C111.071 30.0109 110.922 30.16 110.74 30.16H106.034C105.851 30.16 105.702 30.0109 105.702 29.8287V25.1243C105.702 24.9421 105.851 24.793 106.034 24.793H110.74C110.922 24.793 111.071 24.9421 111.071 25.1243V29.8287Z" fill="#B9B9B9" />
		<path d="M121.777 25.3895L115.894 19.5089V15.3511C115.894 15.1192 115.695 14.937 115.463 14.937H113.607C113.375 14.937 113.193 15.1192 113.193 15.3511V16.8254L105.404 9.03987C105.189 8.82453 104.824 8.82453 104.592 9.03987L103.78 9.85155C103.565 10.0669 103.2 10.4313 102.968 10.6632L95.9252 17.7033L82.0052 3.78878C81.7898 3.55687 81.4252 3.20901 81.1932 2.9771L80.3978 2.16541C80.1823 1.95007 79.8178 1.95007 79.5858 2.16541L71.7972 9.95094V8.47666C71.7972 8.24475 71.6149 8.06254 71.3663 8.06254H69.5104C69.2784 8.06254 69.0795 8.26132 69.0795 8.47666V12.6345L64.0418 17.6702L56.9989 10.6301C56.7835 10.4148 56.4189 10.0503 56.1869 9.81842L55.3749 9.00674C55.1595 8.7914 54.7949 8.7914 54.5629 9.00674L46.7743 16.7923V15.318C46.7743 15.0861 46.5921 14.9039 46.3435 14.9039H44.4875C44.2555 14.9039 44.0566 15.0861 44.0566 15.318V19.4758L38.1738 25.3563C37.9583 25.5717 37.9583 25.9361 38.1738 26.168L38.9858 26.9797C39.2012 27.1951 39.5658 27.1951 39.7978 26.9797L54.5463 12.2203C54.7618 12.005 55.1264 12.005 55.3583 12.2203L70.1235 26.9797C70.3389 27.1951 70.7035 27.1951 70.9355 26.9797L71.7475 26.168C71.9629 25.9527 71.9629 25.5883 71.7475 25.3563L65.6492 19.2604L79.5692 5.34589C79.7846 5.13054 80.1492 5.13054 80.3812 5.34589L94.3012 19.2604L88.2029 25.3563C87.9875 25.5717 87.9875 25.9361 88.2029 26.168L89.0149 26.9797C89.2303 27.1951 89.5949 27.1951 89.8269 26.9797L104.575 12.2203C104.791 12.005 105.155 12.005 105.387 12.2203L120.136 26.9797C120.351 27.1951 120.716 27.1951 120.948 26.9797L121.76 26.168C122.009 25.9858 122.009 25.6214 121.777 25.3895Z" fill="#B9B9B9" />
		<path d="M55.7229 13.7941C55.64 13.7113 55.4909 13.5622 55.408 13.4794L55.0931 13.1647C55.0103 13.0818 54.8611 13.0818 54.7783 13.1647L48.5143 19.4428C48.4314 19.5256 48.4314 19.6747 48.5143 19.7575L48.8291 20.0722C48.912 20.1551 49.0611 20.1551 49.144 20.0722L54.7949 14.4236C54.8777 14.3408 55.0269 14.3408 55.1097 14.4236L60.7606 20.0722C60.8434 20.1551 60.9926 20.1551 61.0754 20.0722L61.3903 19.7575C61.4731 19.6747 61.4731 19.5256 61.3903 19.4428L55.7229 13.7941Z" fill="#B9B9B9" />
		<path d="M80.779 6.86981C80.6961 6.78698 80.547 6.6379 80.4641 6.55508L80.1493 6.24034C80.0664 6.15752 79.9173 6.15752 79.8344 6.24034L73.5538 12.5185C73.471 12.6013 73.471 12.7504 73.5538 12.8332L73.8687 13.1479C73.9516 13.2308 74.1007 13.2308 74.1836 13.1479L79.8344 7.49928C79.9173 7.41645 80.0664 7.41645 80.1493 7.49928L85.8001 13.1479C85.883 13.2308 86.0321 13.2308 86.115 13.1479L86.4298 12.8332C86.5127 12.7504 86.5127 12.6178 86.4298 12.5185L80.779 6.86981Z" fill="#B9B9B9" />
		<path d="M105.785 13.7941C105.702 13.7113 105.553 13.5622 105.47 13.4794L105.155 13.1647C105.073 13.0818 104.923 13.0818 104.841 13.1647L98.5601 19.4428C98.4772 19.5256 98.4772 19.6747 98.5601 19.7575L98.8749 20.0722C98.9578 20.1551 99.1069 20.1551 99.1898 20.0722L104.857 14.407C104.94 14.3242 105.089 14.3242 105.172 14.407L110.823 20.0557C110.906 20.1385 111.055 20.1385 111.138 20.0557L111.453 19.7409C111.535 19.6581 111.535 19.509 111.453 19.4262L105.785 13.7941Z" fill="#B9B9B9" />
		<path d="M80 36.0408C99.952 36.0408 117.219 40.2483 125.571 46.3774C123.069 38.5422 103.631 32.4297 80 32.4297C56.3692 32.4297 36.9309 38.5256 34.4286 46.3774C42.7806 40.2483 60.048 36.0408 80 36.0408Z" fill="#E3E3E3" />
		<path d="M54.2977 34.0527V31.5183C54.2977 31.3361 54.1486 31.187 53.9663 31.187H49.26C49.0777 31.187 48.9286 31.3361 48.9286 31.5183V35.5105C50.6023 34.9804 52.4086 34.5 54.2977 34.0527Z" fill="#B9B9B9" />
		<path d="M61.0588 32.7607V31.5183C61.0588 31.3361 60.9097 31.187 60.7274 31.187H56.0211C55.8388 31.187 55.6897 31.3361 55.6897 31.5183V33.7546C57.4131 33.3736 59.2028 33.0423 61.0588 32.7607Z" fill="#B9B9B9" />
		<path d="M104.31 33.738V31.5017C104.31 31.3195 104.161 31.1704 103.979 31.1704H99.2726C99.0903 31.1704 98.9412 31.3195 98.9412 31.5017V32.7441C100.797 33.0422 102.587 33.3735 104.31 33.738Z" fill="#B9B9B9" />
		<path d="M111.071 35.5105V31.5183C111.071 31.3361 110.922 31.187 110.74 31.187H106.034C105.851 31.187 105.702 31.3361 105.702 31.5183V34.0527C107.591 34.5 109.398 34.9804 111.071 35.5105Z" fill="#B9B9B9" />
		<path d="M79.304 23.7496C79.304 23.9318 79.1548 24.0809 78.9725 24.0809H74.2662C74.084 24.0809 73.9348 23.9318 73.9348 23.7496V19.0452C73.9348 18.863 74.084 18.7139 74.2662 18.7139H78.9725C79.1548 18.7139 79.304 18.863 79.304 19.0452V23.7496Z" fill="#B9B9B9" />
		<path d="M86.0651 23.7496C86.0651 23.9318 85.9159 24.0809 85.7336 24.0809H81.0274C80.8451 24.0809 80.6959 23.9318 80.6959 23.7496V19.0452C80.6959 18.863 80.8451 18.7139 81.0274 18.7139H85.7336C85.9159 18.7139 86.0651 18.863 86.0651 19.0452V23.7496Z" fill="#B9B9B9" />
		<path d="M79.304 30.1437C79.304 30.3259 79.1548 30.475 78.9725 30.475H74.2662C74.084 30.475 73.9348 30.3259 73.9348 30.1437V25.4392C73.9348 25.257 74.084 25.1079 74.2662 25.1079H78.9725C79.1548 25.1079 79.304 25.257 79.304 25.4392V30.1437Z" fill="#B9B9B9" />
		<path d="M86.0651 30.1437C86.0651 30.3259 85.9159 30.475 85.7336 30.475H81.0274C80.8451 30.475 80.6959 30.3259 80.6959 30.1437V25.4392C80.6959 25.257 80.8451 25.1079 81.0274 25.1079H85.7336C85.9159 25.1079 86.0651 25.257 86.0651 25.4392V30.1437Z" fill="#B9B9B9" />
		<path d="M22 52.7881H29.656C31.4291 52.7881 32.7549 53.1691 33.6331 53.9311C34.5114 54.6931 34.9589 55.7532 34.9589 57.1281C34.9589 57.8901 34.8429 58.5196 34.6274 59.0331C34.3954 59.53 34.1469 59.9441 33.8486 60.2423C33.5503 60.557 33.252 60.7724 32.9537 60.9049C32.6554 61.0374 32.44 61.1368 32.3074 61.17V61.2196C32.5394 61.2528 32.8046 61.319 33.0863 61.4516C33.368 61.5675 33.6166 61.7663 33.8651 62.0313C34.0971 62.2964 34.296 62.6277 34.4617 63.0584C34.6109 63.4725 34.6937 64.0026 34.6937 64.632C34.6937 65.5762 34.76 66.4376 34.9091 67.1996C35.0583 67.9781 35.2737 68.5248 35.572 68.8561H32.556C32.3406 68.5082 32.2246 68.1272 32.1914 67.7131C32.1583 67.299 32.1417 66.8849 32.1417 66.5039C32.1417 65.775 32.092 65.129 32.0091 64.5989C31.9263 64.0688 31.7606 63.6216 31.512 63.2737C31.28 62.9258 30.9486 62.6608 30.5343 62.4951C30.12 62.3295 29.5897 62.2467 28.9434 62.2467H24.8171V68.8561H22V52.7881ZM24.8171 60.0932H29.424C30.3189 60.0932 30.9983 59.8779 31.4623 59.4472C31.9263 59.0165 32.1583 58.387 32.1583 57.5257C32.1583 57.0121 32.0754 56.598 31.9263 56.2833C31.7771 55.9686 31.5783 55.7035 31.3131 55.5379C31.048 55.3557 30.7497 55.2397 30.4183 55.1734C30.0869 55.1072 29.7389 55.0906 29.3743 55.0906H24.8171V60.0932Z" fill="#B9B9B9" />
		<path d="M39.4663 63.6876C39.4663 64.1349 39.5326 64.5656 39.6652 64.9963C39.7978 65.4104 39.9801 65.7748 40.2452 66.0895C40.4938 66.4043 40.8252 66.6528 41.2063 66.835C41.5875 67.0172 42.0681 67.1166 42.5983 67.1166C43.3441 67.1166 43.9572 66.9509 44.4046 66.6362C44.8686 66.3215 45.2001 65.8245 45.4321 65.195H47.8515C47.7189 65.8245 47.4869 66.3877 47.1555 66.8847C46.8241 67.3816 46.4263 67.7957 45.9623 68.127C45.4983 68.4583 44.9846 68.7234 44.4046 68.889C43.8246 69.0547 43.2281 69.1541 42.5983 69.1541C41.6869 69.1541 40.8749 69.005 40.1789 68.7068C39.4663 68.4086 38.8863 67.9945 38.3892 67.4479C37.9086 66.9012 37.5275 66.2718 37.2955 65.5098C37.0469 64.7643 36.9309 63.9361 36.9309 63.0416C36.9309 62.2133 37.0635 61.4348 37.3286 60.6894C37.5938 59.9439 37.9583 59.2979 38.4555 58.7347C38.9361 58.1715 39.5326 57.7242 40.2121 57.3929C40.9081 57.0616 41.6869 56.896 42.5486 56.896C43.4601 56.896 44.2886 57.0948 45.0178 57.4758C45.7469 57.8568 46.3435 58.3703 46.8241 58.9997C47.3046 59.6292 47.6526 60.3581 47.8681 61.1698C48.0835 61.9814 48.1332 62.8263 48.0338 63.7042H39.4663V63.6876ZM45.4486 61.998C45.4155 61.6004 45.3326 61.2029 45.1835 60.8219C45.0343 60.4409 44.8521 60.1262 44.6035 59.8446C44.3549 59.563 44.0566 59.3476 43.7086 59.1654C43.3606 58.9997 42.9629 58.9004 42.5321 58.9004C42.0846 58.9004 41.6703 58.9832 41.3058 59.1323C40.9412 59.2813 40.6263 59.5133 40.3612 59.7783C40.0961 60.0599 39.8972 60.3746 39.7315 60.7556C39.5823 61.1366 39.4829 61.5342 39.4663 61.9649H45.4486V61.998Z" fill="#B9B9B9" />
		<path d="M59.6834 66.2556C59.6834 66.5703 59.7165 66.8022 59.7994 66.9347C59.8822 67.0673 60.0479 67.1335 60.2799 67.1335C60.3628 67.1335 60.4457 67.1335 60.5451 67.1335C60.6445 67.1335 60.7771 67.1169 60.9097 67.0838V68.8563C60.8268 68.8894 60.7108 68.9225 60.5617 68.9557C60.4125 68.9888 60.2799 69.0219 60.1308 69.055C59.9817 69.0882 59.8325 69.1047 59.6834 69.1213C59.5342 69.1379 59.4017 69.1379 59.3022 69.1379C58.7719 69.1379 58.3411 69.0385 57.9931 68.8231C57.6451 68.6078 57.4297 68.2434 57.3137 67.7299C56.7999 68.2268 56.1868 68.5912 55.4411 68.8066C54.6954 69.0219 53.9828 69.1379 53.2868 69.1379C52.7565 69.1379 52.2594 69.0716 51.7788 68.9225C51.2982 68.7734 50.8839 68.5747 50.5028 68.2931C50.1382 68.0115 49.8399 67.6636 49.6245 67.2329C49.4091 66.8022 49.2931 66.3053 49.2931 65.7421C49.2931 65.0298 49.4257 64.4334 49.6908 63.9862C49.9559 63.5389 50.3039 63.1911 50.7182 62.926C51.1491 62.6775 51.6297 62.4953 52.1599 62.3794C52.6902 62.2634 53.2205 62.1806 53.7674 62.1143C54.2314 62.0315 54.6788 61.9653 55.0931 61.9156C55.5074 61.8824 55.8885 61.8162 56.2034 61.7168C56.5182 61.634 56.7834 61.4849 56.9657 61.3027C57.1479 61.1204 57.2474 60.8388 57.2474 60.4578C57.2474 60.1265 57.1645 59.8615 57.0154 59.6462C56.8662 59.4308 56.6674 59.2817 56.4354 59.1658C56.2034 59.0498 55.9382 58.9836 55.6565 58.9339C55.3748 58.9007 55.1097 58.8842 54.8445 58.8842C54.1319 58.8842 53.5354 59.0333 53.0714 59.3314C52.6074 59.6296 52.3422 60.0934 52.2925 60.7229H49.7239C49.7737 59.9775 49.9559 59.348 50.2708 58.851C50.5857 58.3541 50.9834 57.9565 51.4805 57.6584C51.9611 57.3602 52.5245 57.1448 53.1377 57.0289C53.7508 56.9129 54.3805 56.8467 55.0268 56.8467C55.5902 56.8467 56.1537 56.9129 56.7171 57.0289C57.2639 57.1448 57.7777 57.3436 58.2085 57.6087C58.6559 57.8737 59.0039 58.2216 59.2691 58.6523C59.5342 59.0829 59.6668 59.5965 59.6668 60.2094V66.2556H59.6834ZM57.1314 63.0088C56.7337 63.2573 56.2697 63.423 55.6897 63.4727C55.1262 63.5224 54.5462 63.6052 53.9828 63.7046C53.7177 63.7543 53.4525 63.8205 53.2039 63.9034C52.9554 63.9862 52.7234 64.1021 52.5245 64.2346C52.3257 64.3837 52.1765 64.5659 52.0605 64.7979C51.9445 65.0298 51.8948 65.3114 51.8948 65.6427C51.8948 65.9243 51.9777 66.1727 52.1434 66.355C52.3091 66.5537 52.5079 66.7028 52.7399 66.8188C52.9719 66.9347 53.2205 67.0176 53.5022 67.0507C53.7839 67.1004 54.0325 67.117 54.2479 67.117C54.5297 67.117 54.8445 67.0838 55.1759 67.001C55.5074 66.9182 55.8222 66.8022 56.1039 66.62C56.4022 66.4378 56.6342 66.2059 56.8331 65.9408C57.0319 65.6592 57.1314 65.3279 57.1314 64.9138V63.0088Z" fill="#B9B9B9" />
		<path d="M62.5171 52.7881H65.0857V68.823H62.5171V52.7881Z" fill="#B9B9B9" />
		<path d="M74.4817 52.7881H86.0319V55.2066H77.2822V59.4141H85.3691V61.7H77.2822V66.3879H86.1811V68.8064H74.4651V52.7881H74.4817Z" fill="#B9B9B9" />
		<path d="M90.2081 65.0956C90.2909 65.841 90.5726 66.3711 91.0698 66.6693C91.5669 66.9675 92.1635 67.1165 92.8429 67.1165C93.0749 67.1165 93.3566 67.1 93.6715 67.0668C93.9864 67.0337 94.2681 66.9509 94.5332 66.8515C94.7984 66.7521 95.0304 66.5865 95.1961 66.3877C95.3618 66.1889 95.4446 65.9239 95.4281 65.5926C95.4115 65.2613 95.2955 64.9962 95.0635 64.7809C94.8315 64.5655 94.5498 64.3999 94.2018 64.2674C93.8538 64.1348 93.4561 64.0355 92.9921 63.9361C92.5446 63.8532 92.0806 63.7539 91.6166 63.6379C91.1361 63.5385 90.6721 63.406 90.2412 63.2569C89.7938 63.1078 89.3961 62.909 89.0481 62.644C88.7001 62.3955 88.4184 62.0642 88.2029 61.6667C87.9875 61.2691 87.8881 60.7722 87.8881 60.1924C87.8881 59.5629 88.0372 59.0328 88.3521 58.6022C88.6669 58.1715 89.0481 57.8236 89.5286 57.5751C89.9926 57.3101 90.5229 57.1279 91.1029 57.0285C91.6829 56.9291 92.2298 56.8794 92.7601 56.8794C93.3566 56.8794 93.9366 56.9457 94.4835 57.0782C95.0304 57.2107 95.5275 57.4095 95.9749 57.6911C96.4224 57.9727 96.7869 58.3537 97.0686 58.8009C97.3669 59.2647 97.5492 59.8114 97.6155 60.4574H94.9475C94.8315 59.8445 94.5498 59.4304 94.1024 59.2151C93.6549 58.9997 93.1578 58.9003 92.5778 58.9003C92.3955 58.9003 92.1801 58.9169 91.9315 58.95C91.6829 58.9831 91.4509 59.0328 91.2355 59.1157C91.0201 59.1985 90.8378 59.3144 90.6886 59.4801C90.5395 59.6292 90.4566 59.8445 90.4566 60.093C90.4566 60.4077 90.5726 60.6562 90.7881 60.855C91.0035 61.0538 91.2852 61.2029 91.6498 61.3354C91.9978 61.4679 92.3955 61.5673 92.8595 61.6667C93.3069 61.7495 93.7709 61.8489 94.2515 61.9648C94.7155 62.0642 95.1795 62.1967 95.6269 62.3458C96.0744 62.4949 96.4721 62.6937 96.8366 62.9587C97.1846 63.2072 97.4664 63.5385 97.6983 63.9195C97.9138 64.3171 98.0298 64.7809 98.0298 65.3607C98.0298 66.0564 97.8806 66.6362 97.5658 67.1165C97.2509 67.5969 96.8366 67.9779 96.3395 68.2927C95.8424 68.5908 95.2789 68.8062 94.6658 68.9387C94.0526 69.0712 93.4395 69.1375 92.8429 69.1375C92.1138 69.1375 91.4344 69.0546 90.8046 68.889C90.1749 68.7233 89.6446 68.4749 89.1806 68.1436C88.7166 67.8123 88.3686 67.3816 88.1035 66.8846C87.8384 66.3877 87.7058 65.7913 87.6892 65.0956H90.2081Z" fill="#B9B9B9" />
		<path d="M98.7754 57.2111H100.714V53.7324H103.283V57.2111H105.603V59.116H103.283V65.3113C103.283 65.5764 103.299 65.8083 103.316 66.0071C103.333 66.2058 103.399 66.3715 103.465 66.504C103.548 66.6365 103.664 66.7359 103.83 66.8022C103.995 66.8684 104.227 66.9016 104.509 66.9016C104.691 66.9016 104.874 66.9016 105.056 66.885C105.238 66.885 105.421 66.8519 105.603 66.8022V68.7734C105.321 68.8065 105.039 68.8397 104.774 68.8562C104.509 68.8894 104.227 68.9059 103.946 68.9059C103.266 68.9059 102.736 68.8397 102.322 68.7071C101.907 68.5746 101.593 68.3924 101.361 68.1439C101.129 67.8955 100.963 67.5807 100.897 67.2163C100.814 66.8353 100.764 66.4212 100.747 65.9408V59.0829H98.8085V57.2111H98.7754Z" fill="#B9B9B9" />
		<path d="M117.153 66.2556C117.153 66.5703 117.186 66.8022 117.269 66.9347C117.352 67.0673 117.518 67.1335 117.75 67.1335C117.833 67.1335 117.915 67.1335 118.015 67.1335C118.114 67.1335 118.247 67.1169 118.379 67.0838V68.8563C118.297 68.8894 118.181 68.9225 118.031 68.9557C117.882 68.9888 117.75 69.0219 117.601 69.055C117.451 69.0882 117.302 69.1047 117.153 69.1213C117.004 69.1379 116.871 69.1379 116.772 69.1379C116.242 69.1379 115.811 69.0385 115.463 68.8231C115.115 68.6078 114.899 68.2434 114.783 67.7299C114.27 68.2268 113.657 68.5912 112.911 68.8066C112.165 69.0385 111.453 69.1379 110.757 69.1379C110.226 69.1379 109.729 69.0716 109.249 68.9225C108.768 68.7734 108.354 68.5747 107.973 68.2931C107.608 68.0115 107.31 67.6636 107.094 67.2329C106.879 66.8022 106.763 66.3053 106.763 65.7421C106.763 65.0298 106.895 64.4334 107.161 63.9862C107.426 63.5389 107.774 63.1911 108.188 62.926C108.619 62.6775 109.099 62.4953 109.63 62.3794C110.16 62.2634 110.69 62.1806 111.237 62.1143C111.701 62.0315 112.149 61.9653 112.563 61.9156C112.977 61.8824 113.358 61.8162 113.673 61.7168C113.988 61.634 114.253 61.4849 114.435 61.3027C114.618 61.1204 114.717 60.8388 114.717 60.4578C114.717 60.1265 114.634 59.8615 114.485 59.6462C114.336 59.4308 114.137 59.2817 113.905 59.1658C113.673 59.0498 113.408 58.9836 113.126 58.9339C112.845 58.9007 112.579 58.8842 112.314 58.8842C111.602 58.8842 111.005 59.0333 110.541 59.3314C110.077 59.6296 109.812 60.0934 109.762 60.7229H107.194C107.243 59.9775 107.426 59.348 107.741 58.851C108.055 58.3541 108.453 57.9565 108.95 57.6584C109.431 57.3602 109.994 57.1448 110.607 57.0289C111.221 56.9129 111.85 56.8467 112.497 56.8467C113.06 56.8467 113.623 56.9129 114.187 57.0289C114.734 57.1448 115.247 57.3436 115.678 57.6087C116.126 57.8737 116.474 58.2216 116.739 58.6523C117.004 59.0829 117.137 59.5965 117.137 60.2094V66.2556H117.153ZM114.601 63.0088C114.203 63.2573 113.739 63.423 113.159 63.4727C112.596 63.5224 112.016 63.6052 111.453 63.7046C111.187 63.7543 110.922 63.8205 110.674 63.9034C110.425 63.9862 110.193 64.1021 109.994 64.2346C109.795 64.3837 109.646 64.5659 109.53 64.7979C109.414 65.0298 109.365 65.3114 109.365 65.6427C109.365 65.9243 109.447 66.1727 109.613 66.355C109.779 66.5537 109.978 66.7028 110.21 66.8188C110.442 66.9347 110.69 67.0176 110.972 67.0507C111.254 67.1004 111.502 67.117 111.718 67.117C111.999 67.117 112.314 67.0838 112.646 67.001C112.977 66.9182 113.292 66.8022 113.574 66.62C113.872 66.4378 114.104 66.2059 114.303 65.9408C114.502 65.6592 114.601 65.3279 114.601 64.9138V63.0088Z" fill="#B9B9B9" />
		<path d="M118.761 57.2111H120.699V53.7324H123.251V57.2111H125.571V59.116H123.251V65.3113C123.251 65.5764 123.268 65.8083 123.285 66.0071C123.301 66.2058 123.367 66.3715 123.434 66.504C123.517 66.6365 123.633 66.7359 123.798 66.8022C123.964 66.8684 124.196 66.9016 124.478 66.9016C124.66 66.9016 124.842 66.9016 125.025 66.885C125.207 66.885 125.389 66.8519 125.571 66.8022V68.7734C125.29 68.8065 125.008 68.8397 124.743 68.8562C124.478 68.8894 124.196 68.9059 123.914 68.9059C123.235 68.9059 122.705 68.8397 122.29 68.7071C121.876 68.5746 121.561 68.3924 121.329 68.1439C121.097 67.8955 120.931 67.5807 120.865 67.2163C120.782 66.8353 120.733 66.4212 120.716 65.9408V59.0829H118.777V57.2111H118.761Z" fill="#B9B9B9" />
		<path d="M129.416 63.6876C129.416 64.1349 129.482 64.5656 129.615 64.9963C129.747 65.4104 129.93 65.7748 130.195 66.0895C130.443 66.4043 130.775 66.6528 131.156 66.835C131.554 67.0172 132.018 67.1166 132.548 67.1166C133.294 67.1166 133.907 66.9509 134.354 66.6362C134.818 66.3215 135.15 65.8245 135.382 65.195H137.801C137.669 65.8245 137.437 66.3877 137.105 66.8847C136.774 67.3816 136.376 67.7957 135.912 68.127C135.448 68.4583 134.934 68.7234 134.354 68.889C133.774 69.0547 133.178 69.1541 132.548 69.1541C131.637 69.1541 130.825 69.005 130.129 68.7068C129.416 68.4086 128.836 67.9945 128.339 67.4479C127.858 66.9012 127.477 66.2718 127.245 65.5098C126.997 64.7643 126.881 63.9361 126.881 63.0416C126.881 62.2133 127.013 61.4348 127.278 60.6894C127.543 59.9439 127.908 59.2979 128.405 58.7347C128.886 58.1715 129.482 57.7242 130.162 57.3929C130.858 57.0616 131.637 56.896 132.498 56.896C133.41 56.896 134.238 57.0948 134.967 57.4758C135.697 57.8568 136.293 58.3703 136.774 58.9997C137.254 59.6292 137.602 60.3581 137.818 61.1698C138.033 61.9814 138.083 62.8263 137.983 63.7042H129.416V63.6876ZM135.382 61.998C135.349 61.6004 135.266 61.2029 135.117 60.8219C134.967 60.4409 134.785 60.1262 134.537 59.8446C134.288 59.563 133.99 59.3476 133.642 59.1654C133.294 58.9997 132.896 58.9004 132.465 58.9004C132.018 58.9004 131.603 58.9832 131.239 59.1323C130.874 59.2813 130.559 59.5133 130.294 59.7783C130.029 60.0599 129.83 60.3746 129.665 60.7556C129.515 61.1366 129.416 61.5342 129.399 61.9649H135.382V61.998Z" fill="#B9B9B9" />
		<path d="M37.1132 73.71H37.8589L38.6543 76.0125H38.6709L39.4497 73.71H40.1623L38.9692 76.9567C38.9194 77.0892 38.8532 77.2217 38.8034 77.3543C38.7537 77.4868 38.6874 77.5862 38.6046 77.6855C38.5217 77.7849 38.4389 77.8678 38.3229 77.9175C38.2069 77.9672 38.0577 78.0003 37.8754 78.0003C37.7097 78.0003 37.5606 77.9837 37.4114 77.9672V77.4039C37.4612 77.4039 37.5274 77.4205 37.5772 77.4371C37.6269 77.4536 37.6766 77.4536 37.7429 77.4536C37.8257 77.4536 37.892 77.4371 37.9417 77.4205C37.9914 77.4039 38.0412 77.3708 38.0743 77.3377C38.1074 77.3046 38.1406 77.2549 38.1572 77.2052C38.1737 77.1555 38.2069 77.0892 38.2234 77.023L38.3063 76.791L37.1132 73.71Z" fill="#B9B9B9" />
		<path d="M43.1285 76.8738C42.88 76.8738 42.6645 76.8406 42.4657 76.7578C42.2668 76.675 42.1177 76.559 41.9851 76.4265C41.8525 76.2774 41.7531 76.1118 41.6868 75.913C41.6205 75.7142 41.5874 75.4989 41.5874 75.267C41.5874 75.035 41.6205 74.8197 41.6868 74.6209C41.7531 74.4221 41.8525 74.2565 41.9851 74.1074C42.1177 73.9583 42.2834 73.8589 42.4657 73.7761C42.6645 73.6933 42.88 73.6602 43.1285 73.6602C43.3771 73.6602 43.5925 73.6933 43.7914 73.7761C43.9903 73.8589 44.1394 73.9749 44.272 74.1074C44.4045 74.2565 44.504 74.4221 44.5703 74.6209C44.6365 74.8197 44.6697 75.035 44.6697 75.267C44.6697 75.4989 44.6365 75.7308 44.5703 75.913C44.504 76.1118 44.4045 76.2774 44.272 76.4265C44.1394 76.5756 43.9737 76.675 43.7914 76.7578C43.5925 76.8241 43.3771 76.8738 43.1285 76.8738ZM43.1285 76.3271C43.2777 76.3271 43.4103 76.294 43.5263 76.2277C43.6423 76.1615 43.7251 76.0786 43.808 75.9792C43.8743 75.8799 43.924 75.7639 43.9737 75.6314C44.0068 75.4989 44.0234 75.3663 44.0234 75.2338C44.0234 75.1013 44.0068 74.9688 43.9737 74.8363C43.9405 74.7037 43.8908 74.5878 43.808 74.4884C43.7417 74.389 43.6423 74.3062 43.5263 74.2399C43.4103 74.1737 43.2777 74.1405 43.1285 74.1405C42.9794 74.1405 42.8468 74.1737 42.7308 74.2399C42.6148 74.3062 42.532 74.389 42.4491 74.4884C42.3828 74.5878 42.3331 74.7037 42.2834 74.8363C42.2503 74.9688 42.2337 75.1013 42.2337 75.2338C42.2337 75.3663 42.2503 75.4989 42.2834 75.6314C42.3165 75.7639 42.3663 75.8799 42.4491 75.9792C42.5154 76.0786 42.6148 76.1615 42.7308 76.2277C42.8468 76.294 42.9794 76.3271 43.1285 76.3271Z" fill="#B9B9B9" />
		<path d="M49.144 76.7744H48.4812V76.3437H48.4646C48.3818 76.4928 48.2492 76.6253 48.1 76.7081C47.9343 76.8075 47.7686 76.8406 47.6029 76.8406C47.2052 76.8406 46.9069 76.7412 46.7246 76.5425C46.5423 76.3437 46.4595 76.0455 46.4595 75.6314V73.6767H47.1389V75.5651C47.1389 75.8302 47.1886 76.0289 47.288 76.1283C47.3875 76.2443 47.5366 76.294 47.7189 76.294C47.868 76.294 47.984 76.2774 48.0835 76.2277C48.1829 76.178 48.2492 76.1283 48.3155 76.0455C48.3818 75.9792 48.4149 75.8799 48.448 75.7805C48.4812 75.6811 48.4812 75.5651 48.4812 75.4492V73.6602H49.1606V76.7744H49.144Z" fill="#B9B9B9" />
		<path d="M51.0498 73.7097H51.6795V74.3061H51.6961C51.7126 74.2233 51.7623 74.1404 51.8121 74.0576C51.8618 73.9748 51.9446 73.9085 52.0275 73.8423C52.1103 73.776 52.1932 73.7263 52.2926 73.6766C52.3921 73.6435 52.4915 73.6104 52.5909 73.6104C52.6738 73.6104 52.7235 73.6104 52.7566 73.6104C52.7898 73.6104 52.8229 73.6104 52.8561 73.6269V74.2729C52.8063 74.2729 52.7566 74.2564 52.7069 74.2564C52.6572 74.2564 52.6075 74.2398 52.5578 74.2398C52.4418 74.2398 52.3423 74.2564 52.2263 74.3061C52.1269 74.3558 52.0441 74.422 51.9612 74.5049C51.8783 74.5877 51.8286 74.7036 51.7789 74.8362C51.7292 74.9687 51.7126 75.1178 51.7126 75.2834V76.7411H51.0332V73.7097H51.0498Z" fill="#B9B9B9" />
		<path d="M56.8663 73.7099H57.38V72.7822H58.0595V73.7099H58.6726V74.2234H58.0595V75.8633C58.0595 75.9296 58.0595 75.9958 58.076 76.0455C58.076 76.0952 58.0926 76.1449 58.1258 76.178C58.1423 76.2112 58.1755 76.2443 58.2252 76.2609C58.2749 76.2774 58.3246 76.294 58.4075 76.294C58.4572 76.294 58.5069 76.294 58.5566 76.294C58.6063 76.294 58.656 76.2774 58.7058 76.2774V76.8075C58.6229 76.8075 58.5566 76.8241 58.4903 76.8241C58.424 76.8241 58.3412 76.8406 58.2749 76.8406C58.0926 76.8406 57.96 76.8241 57.844 76.7909C57.728 76.7578 57.6452 76.7081 57.5955 76.6419C57.5292 76.5756 57.496 76.4928 57.4629 76.3934C57.4463 76.294 57.4298 76.178 57.4298 76.0621V74.2565H56.916V73.7099H56.8663Z" fill="#B9B9B9" />
		<path d="M62.9148 76.095C62.9148 76.1778 62.9314 76.2441 62.948 76.2772C62.9645 76.3104 63.0143 76.3269 63.0805 76.3269C63.0971 76.3269 63.1303 76.3269 63.1468 76.3269C63.18 76.3269 63.2131 76.3269 63.2463 76.3104V76.7742C63.2297 76.7742 63.1965 76.7907 63.1468 76.8073C63.1137 76.8239 63.064 76.8239 63.0308 76.8404C62.9977 76.8404 62.948 76.857 62.9148 76.857C62.8817 76.857 62.8485 76.857 62.8154 76.857C62.6828 76.857 62.5668 76.8239 62.4674 76.7742C62.368 76.7245 62.3183 76.6251 62.2851 76.476C62.1525 76.6085 61.9868 76.7079 61.788 76.7576C61.5891 76.8239 61.4068 76.8404 61.2245 76.8404C61.092 76.8404 60.9594 76.8239 60.8268 76.7907C60.6943 76.7576 60.5948 76.6914 60.4954 76.6251C60.396 76.5588 60.3131 76.4594 60.2634 76.3435C60.2137 76.2275 60.1805 76.095 60.1805 75.9459C60.1805 75.7637 60.2137 75.5981 60.28 75.4821C60.3463 75.3662 60.4457 75.2668 60.5617 75.2005C60.6777 75.1343 60.7937 75.0846 60.9428 75.0514C61.0754 75.0183 61.2245 75.0017 61.3737 74.9852C61.4897 74.9686 61.6057 74.952 61.7217 74.9355C61.8377 74.9189 61.9371 74.9023 62.02 74.8858C62.1028 74.8692 62.1691 74.8195 62.2188 74.7698C62.2685 74.7201 62.2851 74.6539 62.2851 74.5545C62.2851 74.4717 62.2685 74.3888 62.2188 74.3391C62.1691 74.2894 62.1194 74.2397 62.0697 74.2066C62.0034 74.1735 61.9371 74.1569 61.8708 74.1404C61.788 74.1238 61.7217 74.1238 61.6554 74.1238C61.4731 74.1238 61.3074 74.1569 61.1914 74.2397C61.0754 74.3226 60.9925 74.4385 60.976 74.6042H60.2965C60.3131 74.4054 60.3628 74.2397 60.4457 74.1072C60.5285 73.9747 60.628 73.8753 60.7605 73.7925C60.8931 73.7097 61.0423 73.66 61.1914 73.6268C61.3571 73.5937 61.5228 73.5771 61.6885 73.5771C61.8377 73.5771 61.9868 73.5937 62.136 73.6268C62.2851 73.66 62.4177 73.7097 62.5337 73.7759C62.6497 73.8422 62.7491 73.9416 62.8154 74.0575C62.8817 74.1735 62.9148 74.306 62.9148 74.4717V76.095ZM62.2354 75.2502C62.136 75.3165 62.0034 75.3662 61.8543 75.3662C61.7051 75.3827 61.556 75.3993 61.4068 75.4324C61.3405 75.449 61.2577 75.4656 61.1914 75.4821C61.1251 75.4987 61.0588 75.5318 61.0091 75.5649C60.9594 75.5981 60.9097 75.6478 60.8931 75.714C60.86 75.7803 60.8434 75.8465 60.8434 75.9294C60.8434 76.0122 60.86 76.0619 60.9097 76.1116C60.9594 76.1613 61.0091 76.211 61.0754 76.2275C61.1417 76.2607 61.208 76.2772 61.2743 76.2938C61.3405 76.3104 61.4068 76.3104 61.4731 76.3104C61.556 76.3104 61.6223 76.2938 61.7217 76.2772C61.8045 76.2607 61.8874 76.2275 61.9703 76.1778C62.0531 76.1281 62.1194 76.0619 62.1691 75.9956C62.2188 75.9294 62.252 75.83 62.252 75.7306V75.2502H62.2354Z" fill="#B9B9B9" />
		<path d="M67.6875 76.6252C67.6875 77.089 67.5549 77.4369 67.2897 77.6688C67.0246 77.9007 66.66 78.0167 66.1629 78.0167C66.0137 78.0167 65.848 78.0001 65.6989 77.967C65.5497 77.9338 65.4006 77.8841 65.268 77.8013C65.1355 77.7185 65.036 77.6191 64.9366 77.5032C64.8537 77.3872 64.804 77.2215 64.7875 77.0559H65.4669C65.4834 77.1553 65.5166 77.2215 65.5663 77.2878C65.616 77.3541 65.6657 77.3872 65.732 77.4203C65.7983 77.4535 65.8646 77.47 65.9475 77.4866C66.0303 77.5032 66.1132 77.5032 66.196 77.5032C66.4777 77.5032 66.6766 77.4369 66.7926 77.3044C66.9252 77.1719 66.9749 76.9731 66.9749 76.7246V76.2608H66.9583C66.8589 76.4264 66.7263 76.559 66.5606 76.6583C66.3949 76.7577 66.2126 76.8074 66.0303 76.8074C65.7817 76.8074 65.5829 76.7577 65.4006 76.6749C65.2349 76.5921 65.0857 76.4761 64.9697 76.327C64.8537 76.178 64.7709 76.0123 64.7212 75.8135C64.6714 75.6147 64.6383 75.416 64.6383 75.1841C64.6383 74.9853 64.6714 74.7865 64.7377 74.5877C64.804 74.4055 64.8869 74.2399 65.0195 74.0908C65.1355 73.9583 65.2846 73.8423 65.4503 73.7595C65.616 73.6767 65.8149 73.627 66.0303 73.627C66.2292 73.627 66.3949 73.6601 66.5606 73.7429C66.7263 73.8257 66.8423 73.9583 66.9417 74.1239H66.9583V73.7098H67.6377V76.6252H67.6875ZM66.1795 76.2442C66.3286 76.2442 66.4612 76.2111 66.5606 76.1448C66.66 76.0786 66.7429 75.9957 66.8092 75.8964C66.8754 75.797 66.9252 75.681 66.9583 75.5485C66.9914 75.416 67.008 75.2835 67.008 75.1509C67.008 75.0184 66.9914 74.8859 66.9583 74.7699C66.9252 74.654 66.8754 74.538 66.8092 74.4386C66.7429 74.3392 66.66 74.273 66.5606 74.2067C66.4612 74.157 66.3286 74.1239 66.1795 74.1239C66.0303 74.1239 65.8977 74.157 65.7983 74.2233C65.6989 74.2896 65.616 74.3724 65.5497 74.4718C65.4834 74.5712 65.4337 74.6871 65.4172 74.8196C65.384 74.9522 65.3675 75.0681 65.3675 75.2006C65.3675 75.3331 65.384 75.4491 65.4172 75.5651C65.4503 75.681 65.5 75.797 65.5663 75.8964C65.6326 75.9957 65.7154 76.062 65.8149 76.1283C65.9143 76.2111 66.0469 76.2442 66.1795 76.2442Z" fill="#B9B9B9" />
		<path d="M69.5765 72.5337H70.256V76.7743H69.5765V72.5337Z" fill="#B9B9B9" />
		<path d="M72.1948 72.5337H72.8743V73.1797H72.1948V72.5337ZM72.1948 73.7098H72.8743V76.7909H72.1948V73.7098Z" fill="#B9B9B9" />
		<path d="M74.8131 73.7098H75.4594V74.157L75.476 74.1736C75.5754 74.008 75.708 73.8754 75.8737 73.776C76.0394 73.6766 76.2217 73.627 76.4205 73.627C76.752 73.627 77.0171 73.7098 77.216 73.892C77.4148 74.0742 77.5143 74.3227 77.5143 74.6705V76.7743H76.8348V74.8362C76.8348 74.5877 76.7685 74.4221 76.6857 74.3061C76.5863 74.1902 76.4371 74.1405 76.2382 74.1405C76.1222 74.1405 76.0228 74.157 75.9234 74.2067C75.824 74.2564 75.7577 74.3061 75.6914 74.3724C75.6251 74.4386 75.5754 74.538 75.5423 74.6374C75.5091 74.7368 75.4925 74.8362 75.4925 74.9521V76.7577H74.8131V73.7098Z" fill="#B9B9B9" />
		<path d="M79.9504 75.416C79.9504 75.5319 79.9669 75.6479 80.0001 75.7638C80.0332 75.8798 80.0829 75.9792 80.1492 76.062C80.2155 76.1448 80.2984 76.2111 80.3978 76.2608C80.4972 76.3105 80.6298 76.327 80.7624 76.327C80.9612 76.327 81.1269 76.2773 81.2429 76.1945C81.3589 76.1117 81.4584 75.9792 81.5081 75.8135H82.1544C82.1212 75.9792 82.0549 76.1283 81.9721 76.2608C81.8892 76.3933 81.7732 76.5093 81.6572 76.5921C81.5412 76.6749 81.3921 76.7412 81.2429 76.7909C81.0938 76.8406 80.9281 76.8571 80.7624 76.8571C80.5138 76.8571 80.2984 76.824 80.1161 76.7412C79.9338 76.6583 79.7681 76.559 79.6355 76.4099C79.5029 76.2608 79.4035 76.0951 79.3372 75.8964C79.2709 75.6976 79.2378 75.4822 79.2378 75.2503C79.2378 75.035 79.2709 74.8196 79.3372 74.6209C79.4035 74.4221 79.5029 74.2564 79.6355 74.1073C79.7681 73.9583 79.9172 73.8423 80.0995 73.7595C80.2818 73.6767 80.4806 73.627 80.7126 73.627C80.9612 73.627 81.1767 73.6766 81.3589 73.776C81.5578 73.8754 81.7069 74.008 81.8395 74.1736C81.9721 74.3392 82.0549 74.538 82.1212 74.7534C82.1709 74.9687 82.1875 75.2006 82.1709 75.416H79.9504ZM81.5247 74.9687C81.5247 74.8693 81.4915 74.7534 81.4584 74.654C81.4252 74.5546 81.3755 74.4718 81.3092 74.3889C81.2429 74.3227 81.1601 74.2564 81.0772 74.2067C80.9778 74.157 80.8784 74.1405 80.7624 74.1405C80.6464 74.1405 80.5304 74.157 80.4309 74.2067C80.3315 74.2564 80.2487 74.3061 80.1824 74.3724C80.1161 74.4386 80.0498 74.538 80.0167 74.6374C79.9669 74.7368 79.9504 74.8362 79.9504 74.9521H81.5247V74.9687Z" fill="#B9B9B9" />
		<path d="M89.5949 76.6252C89.5949 77.089 89.4623 77.4369 89.1972 77.6688C88.9321 77.9007 88.5675 78.0167 88.0703 78.0167C87.9212 78.0167 87.7555 78.0001 87.6063 77.967C87.4572 77.9338 87.3081 77.8841 87.1755 77.8013C87.0429 77.7185 86.9435 77.6191 86.8441 77.5032C86.7612 77.3872 86.7115 77.2215 86.6949 77.0559H87.3743C87.3909 77.1553 87.4241 77.2215 87.4738 77.2878C87.5235 77.3541 87.5732 77.3872 87.6395 77.4203C87.7058 77.4535 87.7721 77.47 87.8549 77.4866C87.9378 77.5032 88.0206 77.5032 88.1035 77.5032C88.3852 77.5032 88.5841 77.4369 88.7001 77.3044C88.8326 77.1719 88.8823 76.9731 88.8823 76.7246V76.2608H88.8658C88.7663 76.4264 88.6338 76.559 88.4681 76.6583C88.3023 76.7577 88.1201 76.8074 87.9378 76.8074C87.6892 76.8074 87.4903 76.7577 87.3081 76.6749C87.1423 76.5921 86.9932 76.4761 86.8772 76.327C86.7612 76.178 86.6783 76.0123 86.6286 75.8135C86.5789 75.6147 86.5458 75.416 86.5458 75.1841C86.5458 74.9853 86.5789 74.7865 86.6452 74.5877C86.7115 74.4055 86.7943 74.2399 86.9269 74.0908C87.0429 73.9583 87.1921 73.8423 87.3578 73.7595C87.5235 73.6767 87.7223 73.627 87.9378 73.627C88.1366 73.627 88.3023 73.6601 88.4681 73.7429C88.6338 73.8257 88.7498 73.9583 88.8492 74.1239H88.8658V73.7098H89.5452V76.6252H89.5949ZM88.0869 76.2442C88.2361 76.2442 88.3686 76.2111 88.4681 76.1448C88.5675 76.0786 88.6503 75.9957 88.7166 75.8964C88.7829 75.797 88.8326 75.681 88.8658 75.5485C88.8989 75.416 88.9155 75.2835 88.9155 75.1509C88.9155 75.0184 88.8989 74.8859 88.8658 74.7699C88.8326 74.654 88.7829 74.538 88.7166 74.4386C88.6503 74.3392 88.5675 74.273 88.4681 74.2067C88.3686 74.157 88.2361 74.1239 88.0869 74.1239C87.9378 74.1239 87.8052 74.157 87.7058 74.2233C87.6063 74.2896 87.5235 74.3724 87.4572 74.4718C87.3909 74.5712 87.3412 74.6871 87.3246 74.8196C87.2915 74.9522 87.2749 75.0681 87.2749 75.2006C87.2749 75.3331 87.2915 75.4491 87.3246 75.5651C87.3578 75.681 87.4075 75.797 87.4738 75.8964C87.5401 75.9957 87.6229 76.062 87.7223 76.1283C87.8218 76.2111 87.9543 76.2442 88.0869 76.2442Z" fill="#B9B9B9" />
		<path d="M92.876 76.8738C92.6274 76.8738 92.412 76.8406 92.2131 76.7578C92.0143 76.675 91.8651 76.559 91.7326 76.4265C91.6 76.2774 91.5006 76.1118 91.4343 75.913C91.368 75.7142 91.3348 75.4989 91.3348 75.267C91.3348 75.035 91.368 74.8197 91.4343 74.6209C91.5006 74.4221 91.6 74.2565 91.7326 74.1074C91.8651 73.9583 92.0308 73.8589 92.2131 73.7761C92.412 73.6933 92.6274 73.6602 92.876 73.6602C93.1246 73.6602 93.34 73.6933 93.5388 73.7761C93.7377 73.8589 93.8868 73.9749 94.0194 74.1074C94.152 74.2565 94.2514 74.4221 94.3177 74.6209C94.384 74.8197 94.4171 75.035 94.4171 75.267C94.4171 75.4989 94.384 75.7308 94.3177 75.913C94.2514 76.1118 94.152 76.2774 94.0194 76.4265C93.8868 76.5756 93.7211 76.675 93.5388 76.7578C93.34 76.8241 93.1246 76.8738 92.876 76.8738ZM92.876 76.3271C93.0251 76.3271 93.1577 76.294 93.2737 76.2277C93.3897 76.1615 93.4726 76.0786 93.5554 75.9792C93.6217 75.8799 93.6714 75.7639 93.7211 75.6314C93.7543 75.4989 93.7708 75.3663 93.7708 75.2338C93.7708 75.1013 93.7543 74.9688 93.7211 74.8363C93.688 74.7037 93.6383 74.5878 93.5554 74.4884C93.4891 74.389 93.3897 74.3062 93.2737 74.2399C93.1577 74.1737 93.0251 74.1405 92.876 74.1405C92.7268 74.1405 92.5943 74.1737 92.4783 74.2399C92.3623 74.3062 92.2794 74.389 92.1966 74.4884C92.1303 74.5878 92.0806 74.7037 92.0308 74.8363C91.9811 74.9688 91.9811 75.1013 91.9811 75.2338C91.9811 75.3663 91.9977 75.4989 92.0308 75.6314C92.064 75.7639 92.1137 75.8799 92.1966 75.9792C92.2628 76.0786 92.3623 76.1615 92.4783 76.2277C92.5943 76.294 92.7268 76.3271 92.876 76.3271Z" fill="#B9B9B9" />
		<path d="M96.7206 75.416C96.7206 75.5319 96.7372 75.6479 96.7703 75.7638C96.8035 75.8798 96.8532 75.9792 96.9195 76.062C96.9858 76.1448 97.0686 76.2111 97.1681 76.2608C97.2675 76.3105 97.4001 76.327 97.5326 76.327C97.7315 76.327 97.8972 76.2773 98.0132 76.1945C98.1292 76.1117 98.2286 75.9792 98.2783 75.8135H98.9246C98.8915 75.9792 98.8252 76.1283 98.7423 76.2608C98.6595 76.3933 98.5435 76.5093 98.4275 76.5921C98.3115 76.6749 98.1623 76.7412 98.0132 76.7909C97.8641 76.8406 97.6983 76.8571 97.5326 76.8571C97.2841 76.8571 97.0686 76.824 96.8863 76.7412C96.7041 76.6583 96.5383 76.559 96.4058 76.4099C96.2732 76.2608 96.1738 76.0951 96.1075 75.8964C96.0412 75.6976 96.0081 75.4822 96.0081 75.2503C96.0081 75.035 96.0412 74.8196 96.1075 74.6209C96.1738 74.4221 96.2732 74.2564 96.4058 74.1073C96.5383 73.9583 96.6875 73.8423 96.8698 73.7595C97.0521 73.6767 97.2509 73.627 97.4829 73.627C97.7315 73.627 97.9469 73.6766 98.1292 73.776C98.3281 73.8754 98.4772 74.008 98.6098 74.1736C98.7423 74.3392 98.8252 74.538 98.8915 74.7534C98.9412 74.9687 98.9578 75.2006 98.9412 75.416H96.7206ZM98.2949 74.9687C98.2949 74.8693 98.2618 74.7534 98.2286 74.654C98.1955 74.5546 98.1458 74.4718 98.0795 74.3889C98.0132 74.3227 97.9303 74.2564 97.8475 74.2067C97.7481 74.157 97.6486 74.1405 97.5326 74.1405C97.4166 74.1405 97.3006 74.157 97.2012 74.2067C97.1018 74.2564 97.0189 74.3061 96.9526 74.3724C96.8863 74.4386 96.8201 74.538 96.7869 74.6374C96.7372 74.7368 96.7206 74.8362 96.7206 74.9521H98.2949V74.9687Z" fill="#B9B9B9" />
		<path d="M101.195 75.7969C101.211 75.9957 101.294 76.1282 101.427 76.211C101.559 76.2938 101.709 76.327 101.891 76.327C101.957 76.327 102.023 76.327 102.106 76.3104C102.189 76.2938 102.272 76.2773 102.338 76.2607C102.405 76.2276 102.471 76.1944 102.521 76.1448C102.57 76.0951 102.587 76.0288 102.587 75.9294C102.587 75.8466 102.554 75.7638 102.487 75.7141C102.421 75.6644 102.355 75.6147 102.255 75.5815C102.156 75.5484 102.057 75.5153 101.941 75.4987C101.825 75.4822 101.709 75.449 101.576 75.4159C101.443 75.3828 101.327 75.3496 101.211 75.3165C101.095 75.2834 100.996 75.2171 100.897 75.1509C100.797 75.0846 100.731 75.0018 100.681 74.8858C100.631 74.7864 100.598 74.6539 100.598 74.4883C100.598 74.3226 100.631 74.1901 100.714 74.0741C100.797 73.9582 100.897 73.8754 101.029 73.7925C101.162 73.7263 101.294 73.6766 101.443 73.6434C101.593 73.6103 101.742 73.5938 101.874 73.5938C102.04 73.5938 102.189 73.6103 102.322 73.6434C102.471 73.6766 102.603 73.7263 102.719 73.8091C102.835 73.8919 102.935 73.9747 103.018 74.1073C103.101 74.2232 103.15 74.3723 103.167 74.5379H102.454C102.421 74.3723 102.355 74.2729 102.239 74.2067C102.123 74.157 101.99 74.1238 101.841 74.1238C101.791 74.1238 101.742 74.1238 101.675 74.1404C101.609 74.1404 101.543 74.157 101.493 74.1901C101.443 74.2066 101.394 74.2398 101.344 74.2895C101.311 74.3392 101.278 74.3889 101.278 74.4551C101.278 74.5379 101.311 74.6042 101.361 74.6539C101.41 74.7036 101.493 74.7533 101.593 74.7864C101.692 74.8196 101.791 74.8527 101.907 74.8692C102.023 74.8858 102.156 74.9189 102.272 74.9521C102.388 74.9852 102.521 75.0183 102.637 75.0515C102.753 75.0846 102.869 75.1509 102.951 75.2171C103.051 75.2834 103.117 75.3662 103.183 75.4656C103.233 75.565 103.266 75.6975 103.266 75.8466C103.266 76.0288 103.217 76.1779 103.134 76.3104C103.051 76.4429 102.935 76.5423 102.802 76.6251C102.67 76.708 102.521 76.7577 102.355 76.7908C102.189 76.8239 102.023 76.8405 101.874 76.8405C101.675 76.8405 101.493 76.8239 101.344 76.7742C101.178 76.7245 101.029 76.6583 100.913 76.5754C100.797 76.4926 100.698 76.3767 100.631 76.2441C100.565 76.1116 100.532 75.946 100.515 75.7638H101.195V75.7969Z" fill="#B9B9B9" />
		<path d="M107.807 72.5337H108.486V74.1074H108.503C108.586 73.9748 108.718 73.8589 108.867 73.7595C109.033 73.6601 109.215 73.627 109.414 73.627C109.746 73.627 110.011 73.7098 110.21 73.892C110.409 74.0742 110.508 74.3227 110.508 74.6706V76.7743H109.829V74.8362C109.829 74.5877 109.762 74.4221 109.679 74.3061C109.58 74.1902 109.431 74.1405 109.232 74.1405C109.116 74.1405 109.017 74.1571 108.917 74.2068C108.818 74.2564 108.751 74.3061 108.685 74.3724C108.619 74.4387 108.569 74.5381 108.536 74.6374C108.503 74.7368 108.486 74.8362 108.486 74.9522V76.7578H107.807V72.5337Z" fill="#B9B9B9" />
		<path d="M112.944 75.416C112.944 75.5319 112.961 75.6479 112.994 75.7638C113.027 75.8798 113.077 75.9792 113.143 76.062C113.209 76.1448 113.292 76.2111 113.391 76.2608C113.491 76.3105 113.623 76.327 113.756 76.327C113.955 76.327 114.121 76.2773 114.237 76.1945C114.353 76.1117 114.452 75.9792 114.502 75.8135H115.148C115.115 75.9792 115.049 76.1283 114.966 76.2608C114.883 76.3933 114.767 76.5093 114.651 76.5921C114.535 76.6749 114.386 76.7412 114.237 76.7909C114.087 76.8406 113.922 76.8571 113.756 76.8571C113.507 76.8571 113.292 76.824 113.11 76.7412C112.927 76.6583 112.762 76.559 112.629 76.4099C112.497 76.2608 112.397 76.0951 112.331 75.8964C112.265 75.6976 112.231 75.4822 112.231 75.2503C112.231 75.035 112.265 74.8196 112.331 74.6209C112.397 74.4221 112.497 74.2564 112.629 74.1073C112.762 73.9583 112.911 73.8423 113.093 73.7595C113.275 73.6767 113.474 73.627 113.706 73.627C113.955 73.627 114.17 73.6766 114.353 73.776C114.551 73.8754 114.701 74.008 114.833 74.1736C114.966 74.3392 115.049 74.538 115.115 74.7534C115.165 74.9687 115.181 75.2006 115.165 75.416H112.944ZM114.518 74.9687C114.518 74.8693 114.485 74.7534 114.452 74.654C114.419 74.5546 114.369 74.4718 114.303 74.3889C114.237 74.3227 114.154 74.2564 114.071 74.2067C113.971 74.157 113.872 74.1405 113.756 74.1405C113.64 74.1405 113.524 74.157 113.425 74.2067C113.325 74.2564 113.242 74.3061 113.176 74.3724C113.11 74.4386 113.043 74.538 113.01 74.6374C112.961 74.7368 112.944 74.8362 112.944 74.9521H114.518V74.9687Z" fill="#B9B9B9" />
		<path d="M116.905 73.7097H117.534V74.3061H117.551C117.567 74.2233 117.617 74.1404 117.667 74.0576C117.717 73.9748 117.799 73.9085 117.882 73.8423C117.965 73.776 118.048 73.7263 118.147 73.6766C118.247 73.6435 118.346 73.6104 118.446 73.6104C118.529 73.6104 118.578 73.6104 118.611 73.6104C118.645 73.6104 118.678 73.6104 118.711 73.6269V74.2729C118.661 74.2729 118.611 74.2564 118.562 74.2564C118.512 74.2564 118.462 74.2398 118.413 74.2398C118.297 74.2398 118.197 74.2564 118.081 74.3061C117.982 74.3558 117.899 74.422 117.816 74.5049C117.733 74.5877 117.683 74.7036 117.634 74.8362C117.584 74.9687 117.567 75.1178 117.567 75.2834V76.7411H116.888V73.7097H116.905Z" fill="#B9B9B9" />
		<path d="M120.617 75.416C120.617 75.5319 120.633 75.6479 120.666 75.7638C120.699 75.8798 120.749 75.9792 120.815 76.062C120.882 76.1448 120.965 76.2111 121.064 76.2608C121.163 76.3105 121.296 76.327 121.429 76.327C121.627 76.327 121.793 76.2773 121.909 76.1945C122.025 76.1117 122.125 75.9792 122.174 75.8135H122.821C122.787 75.9792 122.721 76.1283 122.638 76.2608C122.555 76.3933 122.439 76.5093 122.323 76.5921C122.207 76.6749 122.058 76.7412 121.909 76.7909C121.76 76.8406 121.594 76.8571 121.429 76.8571C121.18 76.8571 120.965 76.824 120.782 76.7412C120.6 76.6583 120.434 76.559 120.302 76.4099C120.169 76.2608 120.07 76.0951 120.003 75.8964C119.937 75.6976 119.904 75.4822 119.904 75.2503C119.904 75.035 119.937 74.8196 120.003 74.6209C120.07 74.4221 120.169 74.2564 120.302 74.1073C120.434 73.9583 120.583 73.8423 120.766 73.7595C120.948 73.6767 121.147 73.627 121.379 73.627C121.627 73.627 121.843 73.6766 122.025 73.776C122.224 73.8754 122.373 74.008 122.506 74.1736C122.638 74.3392 122.721 74.538 122.787 74.7534C122.837 74.9687 122.854 75.2006 122.837 75.416H120.617ZM122.207 74.9687C122.207 74.8693 122.174 74.7534 122.141 74.654C122.108 74.5546 122.058 74.4718 121.992 74.3889C121.926 74.3227 121.843 74.2564 121.76 74.2067C121.661 74.157 121.561 74.1405 121.445 74.1405C121.329 74.1405 121.213 74.157 121.114 74.2067C121.014 74.2564 120.931 74.3061 120.865 74.3724C120.799 74.4386 120.733 74.538 120.699 74.6374C120.65 74.7368 120.633 74.8362 120.633 74.9521H122.207V74.9687Z" fill="#B9B9B9" />
	</g>
	<defs>
		<clipPath id="clip0_13428_2167">
			<rect width="116" height="76" fill="white" transform="translate(22 2)" />
		</clipPath>
	</defs>
</svg>
