<svg width="41" height="41" viewBox="0 0 41 41" fill="none" xmlns="http://www.w3.org/2000/svg">
	<path d="M17.375 9.875H19.875C20.0408 9.875 20.1997 9.80915 20.3169 9.69194C20.4342 9.57473 20.5 9.41576 20.5 9.25V5.5C20.5 5.33424 20.4342 5.17527 20.3169 5.05806C20.1997 4.94085 20.0408 4.875 19.875 4.875H17.375C17.2092 4.875 17.0503 4.94085 16.9331 5.05806C16.8158 5.17527 16.75 5.33424 16.75 5.5V9.25C16.75 9.41576 16.8158 9.57473 16.9331 9.69194C17.0503 9.80915 17.2092 9.875 17.375 9.875ZM18 6.125H19.25V8.625H18V6.125ZM22.375 9.875H24.875C25.0408 9.875 25.1997 9.80915 25.3169 9.69194C25.4342 9.57473 25.5 9.41576 25.5 9.25V5.5C25.5 5.33424 25.4342 5.17527 25.3169 5.05806C25.1997 4.94085 25.0408 4.875 24.875 4.875H22.375C22.2092 4.875 22.0503 4.94085 21.9331 5.05806C21.8158 5.17527 21.75 5.33424 21.75 5.5V9.25C21.75 9.41576 21.8158 9.57473 21.9331 9.69194C22.0503 9.80915 22.2092 9.875 22.375 9.875ZM23 6.125H24.25V8.625H23V6.125ZM27.375 9.875H29.875C30.0408 9.875 30.1997 9.80915 30.3169 9.69194C30.4342 9.57473 30.5 9.41576 30.5 9.25V5.5C30.5 5.33424 30.4342 5.17527 30.3169 5.05806C30.1997 4.94085 30.0408 4.875 29.875 4.875H27.375C27.2092 4.875 27.0503 4.94085 26.9331 5.05806C26.8158 5.17527 26.75 5.33424 26.75 5.5V9.25C26.75 9.41576 26.8158 9.57473 26.9331 9.69194C27.0503 9.80915 27.2092 9.875 27.375 9.875ZM28 6.125H29.25V8.625H28V6.125ZM17.375 16.125H19.875C20.0408 16.125 20.1997 16.0592 20.3169 15.9419C20.4342 15.8247 20.5 15.6658 20.5 15.5V11.75C20.5 11.5842 20.4342 11.4253 20.3169 11.3081C20.1997 11.1908 20.0408 11.125 19.875 11.125H17.375C17.2092 11.125 17.0503 11.1908 16.9331 11.3081C16.8158 11.4253 16.75 11.5842 16.75 11.75V15.5C16.75 15.6658 16.8158 15.8247 16.9331 15.9419C17.0503 16.0592 17.2092 16.125 17.375 16.125ZM18 12.375H19.25V14.875H18V12.375ZM22.375 16.125H24.875C25.0408 16.125 25.1997 16.0592 25.3169 15.9419C25.4342 15.8247 25.5 15.6658 25.5 15.5V11.75C25.5 11.5842 25.4342 11.4253 25.3169 11.3081C25.1997 11.1908 25.0408 11.125 24.875 11.125H22.375C22.2092 11.125 22.0503 11.1908 21.9331 11.3081C21.8158 11.4253 21.75 11.5842 21.75 11.75V15.5C21.75 15.6658 21.8158 15.8247 21.9331 15.9419C22.0503 16.0592 22.2092 16.125 22.375 16.125ZM23 12.375H24.25V14.875H23V12.375ZM27.375 16.125H29.875C30.0408 16.125 30.1997 16.0592 30.3169 15.9419C30.4342 15.8247 30.5 15.6658 30.5 15.5V11.75C30.5 11.5842 30.4342 11.4253 30.3169 11.3081C30.1997 11.1908 30.0408 11.125 29.875 11.125H27.375C27.2092 11.125 27.0503 11.1908 26.9331 11.3081C26.8158 11.4253 26.75 11.5842 26.75 11.75V15.5C26.75 15.6658 26.8158 15.8247 26.9331 15.9419C27.0503 16.0592 27.2092 16.125 27.375 16.125ZM28 12.375H29.25V14.875H28V12.375ZM12.375 9.875H14.875C15.0408 9.875 15.1997 9.80915 15.3169 9.69194C15.4342 9.57473 15.5 9.41576 15.5 9.25V5.5C15.5 5.33424 15.4342 5.17527 15.3169 5.05806C15.1997 4.94085 15.0408 4.875 14.875 4.875H12.375C12.2092 4.875 12.0503 4.94085 11.9331 5.05806C11.8158 5.17527 11.75 5.33424 11.75 5.5V9.25C11.75 9.41576 11.8158 9.57473 11.9331 9.69194C12.0503 9.80915 12.2092 9.875 12.375 9.875ZM13 6.125H14.25V8.625H13V6.125ZM12.375 16.125H14.875C15.0408 16.125 15.1997 16.0592 15.3169 15.9419C15.4342 15.8247 15.5 15.6658 15.5 15.5V11.75C15.5 11.5842 15.4342 11.4253 15.3169 11.3081C15.1997 11.1908 15.0408 11.125 14.875 11.125H12.375C12.2092 11.125 12.0503 11.1908 11.9331 11.3081C11.8158 11.4253 11.75 11.5842 11.75 11.75V15.5C11.75 15.6658 11.8158 15.8247 11.9331 15.9419C12.0503 16.0592 12.2092 16.125 12.375 16.125ZM13 12.375H14.25V14.875H13V12.375ZM17.375 22.375H19.875C20.0408 22.375 20.1997 22.3092 20.3169 22.1919C20.4342 22.0747 20.5 21.9158 20.5 21.75V18C20.5 17.8342 20.4342 17.6753 20.3169 17.5581C20.1997 17.4408 20.0408 17.375 19.875 17.375H17.375C17.2092 17.375 17.0503 17.4408 16.9331 17.5581C16.8158 17.6753 16.75 17.8342 16.75 18V21.75C16.75 21.9158 16.8158 22.0747 16.9331 22.1919C17.0503 22.3092 17.2092 22.375 17.375 22.375ZM18 18.625H19.25V21.125H18V18.625ZM12.375 22.375H14.875C15.0408 22.375 15.1997 22.3092 15.3169 22.1919C15.4342 22.0747 15.5 21.9158 15.5 21.75V18C15.5 17.8342 15.4342 17.6753 15.3169 17.5581C15.1997 17.4408 15.0408 17.375 14.875 17.375H12.375C12.2092 17.375 12.0503 17.4408 11.9331 17.5581C11.8158 17.6753 11.75 17.8342 11.75 18V21.75C11.75 21.9158 11.8158 22.0747 11.9331 22.1919C12.0503 22.3092 12.2092 22.375 12.375 22.375ZM13 18.625H14.25V21.125H13V18.625ZM22.375 22.375H24.875C25.0408 22.375 25.1997 22.3092 25.3169 22.1919C25.4342 22.0747 25.5 21.9158 25.5 21.75V18C25.5 17.8342 25.4342 17.6753 25.3169 17.5581C25.1997 17.4408 25.0408 17.375 24.875 17.375H22.375C22.2092 17.375 22.0503 17.4408 21.9331 17.5581C21.8158 17.6753 21.75 17.8342 21.75 18V21.75C21.75 21.9158 21.8158 22.0747 21.9331 22.1919C22.0503 22.3092 22.2092 22.375 22.375 22.375ZM23 18.625H24.25V21.125H23V18.625ZM27.375 22.375H29.875C30.0408 22.375 30.1997 22.3092 30.3169 22.1919C30.4342 22.0747 30.5 21.9158 30.5 21.75V18C30.5 17.8342 30.4342 17.6753 30.3169 17.5581C30.1997 17.4408 30.0408 17.375 29.875 17.375H27.375C27.2092 17.375 27.0503 17.4408 26.9331 17.5581C26.8158 17.6753 26.75 17.8342 26.75 18V21.75C26.75 21.9158 26.8158 22.0747 26.9331 22.1919C27.0503 22.3092 27.2092 22.375 27.375 22.375ZM28 18.625H29.25V21.125H28V18.625ZM17.375 28.625H19.875C20.0408 28.625 20.1997 28.5592 20.3169 28.4419C20.4342 28.3247 20.5 28.1658 20.5 28V24.25C20.5 24.0842 20.4342 23.9253 20.3169 23.8081C20.1997 23.6908 20.0408 23.625 19.875 23.625H17.375C17.2092 23.625 17.0503 23.6908 16.9331 23.8081C16.8158 23.9253 16.75 24.0842 16.75 24.25V28C16.75 28.1658 16.8158 28.3247 16.9331 28.4419C17.0503 28.5592 17.2092 28.625 17.375 28.625ZM18 24.875H19.25V27.375H18V24.875ZM12.375 28.625H14.875C15.0408 28.625 15.1997 28.5592 15.3169 28.4419C15.4342 28.3247 15.5 28.1658 15.5 28V24.25C15.5 24.0842 15.4342 23.9253 15.3169 23.8081C15.1997 23.6908 15.0408 23.625 14.875 23.625H12.375C12.2092 23.625 12.0503 23.6908 11.9331 23.8081C11.8158 23.9253 11.75 24.0842 11.75 24.25V28C11.75 28.1658 11.8158 28.3247 11.9331 28.4419C12.0503 28.5592 12.2092 28.625 12.375 28.625ZM13 24.875H14.25V27.375H13V24.875ZM22.375 28.625H24.875C25.0408 28.625 25.1997 28.5592 25.3169 28.4419C25.4342 28.3247 25.5 28.1658 25.5 28V24.25C25.5 24.0842 25.4342 23.9253 25.3169 23.8081C25.1997 23.6908 25.0408 23.625 24.875 23.625H22.375C22.2092 23.625 22.0503 23.6908 21.9331 23.8081C21.8158 23.9253 21.75 24.0842 21.75 24.25V28C21.75 28.1658 21.8158 28.3247 21.9331 28.4419C22.0503 28.5592 22.2092 28.625 22.375 28.625ZM23 24.875H24.25V27.375H23V24.875ZM27.375 28.625H29.875C30.0408 28.625 30.1997 28.5592 30.3169 28.4419C30.4342 28.3247 30.5 28.1658 30.5 28V24.25C30.5 24.0842 30.4342 23.9253 30.3169 23.8081C30.1997 23.6908 30.0408 23.625 29.875 23.625H27.375C27.2092 23.625 27.0503 23.6908 26.9331 23.8081C26.8158 23.9253 26.75 24.0842 26.75 24.25V28C26.75 28.1658 26.8158 28.3247 26.9331 28.4419C27.0503 28.5592 27.2092 28.625 27.375 28.625ZM28 24.875H29.25V27.375H28V24.875Z" fill="#A3ABB0" />
	<path d="M38.6246 24.875H32.9996V3C32.9996 2.83424 32.9337 2.67527 32.8165 2.55806C32.6993 2.44085 32.5404 2.375 32.3746 2.375H9.8746C9.70884 2.375 9.54987 2.44085 9.43266 2.55806C9.31545 2.67527 9.2496 2.83424 9.2496 3V25.4275C8.72408 25.0895 8.11716 24.8993 7.4927 24.8771C6.86824 24.8548 6.24933 25.0013 5.70109 25.3011C5.15286 25.6009 4.69556 26.0429 4.37733 26.5807C4.0591 27.1184 3.89169 27.732 3.89272 28.3569C3.89338 28.704 3.94713 29.0491 4.0521 29.38C3.28121 29.6563 2.6327 30.196 2.221 30.9039C1.8093 31.6118 1.66088 32.4424 1.80193 33.2491C1.94298 34.0557 2.36443 34.7866 2.99191 35.3128C3.61939 35.839 4.41257 36.1267 5.23147 36.125C5.75901 36.1218 6.27862 35.9964 6.7496 35.7588V38C6.7496 38.1658 6.81545 38.3247 6.93266 38.4419C7.04987 38.5592 7.20884 38.625 7.3746 38.625C7.54036 38.625 7.69933 38.5592 7.81654 38.4419C7.93375 38.3247 7.9996 38.1658 7.9996 38V35.7588C8.39057 35.9518 8.81486 36.0683 9.2496 36.1019V38C9.2496 38.1658 9.31545 38.3247 9.43266 38.4419C9.54987 38.5592 9.70884 38.625 9.8746 38.625H37.3746C37.5404 38.625 37.6993 38.5592 37.8165 38.4419C37.9338 38.3247 37.9996 38.1658 37.9996 38V28.625H38.6246C38.7904 28.625 38.9493 28.5592 39.0665 28.4419C39.1838 28.3247 39.2496 28.1658 39.2496 28V25.5C39.2496 25.3342 39.1838 25.1753 39.0665 25.0581C38.9493 24.9408 38.7904 24.875 38.6246 24.875ZM7.3746 32.375C7.20884 32.375 7.04987 32.4408 6.93266 32.5581C6.81545 32.6753 6.7496 32.8342 6.7496 33V34.25C6.34437 34.6483 5.79964 34.8725 5.23147 34.875C4.66014 34.8772 4.10987 34.6595 3.69471 34.267C3.27955 33.8745 3.03134 33.3373 3.00152 32.7667C2.97171 32.1962 3.16258 31.636 3.53457 31.2024C3.90656 30.7687 4.43115 30.4948 4.9996 30.4375C5.10384 30.4263 5.20359 30.3891 5.28968 30.3293C5.37577 30.2695 5.44542 30.1889 5.49223 30.0951C5.53904 30.0013 5.5615 29.8972 5.55755 29.7925C5.55359 29.6877 5.52335 29.5856 5.4696 29.4956C5.25939 29.1529 5.1474 28.7589 5.14585 28.3569C5.14585 27.7649 5.38099 27.1973 5.79955 26.7787C6.21811 26.3601 6.78579 26.125 7.37772 26.125C7.96965 26.125 8.53734 26.3601 8.9559 26.7787C9.37445 27.1973 9.6096 27.7649 9.6096 28.3569C9.60805 28.7589 9.49605 29.1529 9.28585 29.4956C9.2321 29.5856 9.20186 29.6877 9.1979 29.7925C9.19395 29.8972 9.21641 30.0013 9.26322 30.0951C9.31003 30.1889 9.37968 30.2695 9.46577 30.3293C9.55186 30.3891 9.65161 30.4263 9.75585 30.4375C10.3246 30.4948 10.8494 30.7689 11.2215 31.2029C11.5935 31.6369 11.7842 32.1975 11.754 32.7683C11.7238 33.3391 11.4749 33.8764 11.0591 34.2687C10.6433 34.6609 10.0925 34.8781 9.52085 34.875C8.9516 34.8733 8.4056 34.649 7.9996 34.25V33C7.9996 32.8342 7.93375 32.6753 7.81654 32.5581C7.69933 32.4408 7.54036 32.375 7.3746 32.375ZM24.2496 37.375H17.9996V31.125H24.2496V37.375ZM31.7496 37.375H25.4996V30.5C25.4996 30.3342 25.4338 30.1753 25.3165 30.0581C25.1993 29.9408 25.0404 29.875 24.8746 29.875H17.3746C17.2088 29.875 17.0499 29.9408 16.9327 30.0581C16.8154 30.1753 16.7496 30.3342 16.7496 30.5V37.375H10.4996V35.9819C11.2037 35.7765 11.8247 35.3534 12.2735 34.7733C12.7222 34.1932 12.9758 33.4858 12.9977 32.7527C13.0196 32.0196 12.8088 31.2984 12.3955 30.6925C11.9822 30.0866 11.3877 29.6271 10.6971 29.38C10.8021 29.0491 10.8558 28.704 10.8565 28.3569C10.8559 27.8277 10.7338 27.3057 10.4996 26.8313V3.625H31.7496V37.375ZM36.7496 37.375H32.9996V28.625H36.7496V37.375ZM37.9996 27.375H32.9996V26.125H37.9996V27.375Z" fill="#A3ABB0" />
</svg>
