<svg width="41" height="41" viewBox="0 0 41 41" fill="none" xmlns="http://www.w3.org/2000/svg">
	<g clip-path="url(#clip0_13442_15596)">
		<path d="M30.5344 14.4126V14.4426L30.5607 14.4567L40.5543 19.8132C40.5545 19.8133 40.5547 19.8135 40.5549 19.8136C40.5833 19.8298 40.6105 19.8427 40.6342 19.8541C40.641 19.8573 40.6476 19.8605 40.6539 19.8635C40.6827 19.8776 40.7053 19.89 40.7252 19.9063C40.7627 19.9372 40.7985 19.9888 40.8291 20.1151C40.8911 20.372 40.9238 20.9027 40.9389 22.0792C40.9554 23.372 40.9507 25.4369 40.9431 28.7595C40.9369 31.4727 40.9289 35.0245 40.9289 39.6793C40.9289 39.9078 40.8529 40.0943 40.7236 40.2236C40.5943 40.3529 40.4078 40.4289 40.1793 40.4289H1.79958C1.57107 40.4289 1.38453 40.3529 1.25524 40.2236C1.12595 40.0943 1.05 39.9078 1.05 39.6793V12.4937C1.05 12.2651 1.12595 12.0786 1.25524 11.9493C1.38453 11.82 1.57107 11.7441 1.79958 11.7441H11.3945H11.4445V11.6941V5.29746C11.4445 5.06895 11.5205 4.88241 11.6497 4.75312C11.779 4.62384 11.9656 4.54789 12.1941 4.54789H12.9937H13.0437V4.49789V1.29958C13.0437 1.07107 13.1196 0.884526 13.2489 0.755239C13.3782 0.625952 13.5647 0.55 13.7932 0.55H28.1856C28.4141 0.55 28.6007 0.625952 28.73 0.755239C28.8592 0.884526 28.9352 1.07107 28.9352 1.29958V4.49789V4.54789H28.9852H29.7848C30.0133 4.54789 30.1998 4.62384 30.3291 4.75312C30.4584 4.88241 30.5344 5.06895 30.5344 5.29746V14.4126ZM14.5928 2.04915H14.5428V2.09915V4.49789V4.54789H14.5928H27.386H27.436V4.49789V2.09915V2.04915H27.386H14.5928ZM11.3945 33.3327H11.4445V33.2827V31.6835V31.6335H11.3945H5.79746H5.74746V31.6835V33.2827V33.3327H5.79746H11.3945ZM11.3945 26.1365H11.4445V26.0865V24.4873V24.4373H11.3945H5.79746H5.74746V24.4873V26.0865V26.1365H5.79746H11.3945ZM11.3945 18.9403H11.4445V18.8903V17.2911V17.2411H11.3945H5.79746H5.74746V17.2911V18.8903V18.9403H5.79746H11.3945ZM2.59915 13.2432H2.54915V13.2932V38.8797V38.9297H2.59915H11.3945H11.4445V38.8797V34.8818V34.8318H11.3945H4.99789C4.76937 34.8318 4.58283 34.7559 4.45355 34.6266C4.32426 34.4973 4.24831 34.3107 4.24831 34.0822V30.8839C4.24831 30.6554 4.32426 30.4689 4.45355 30.3396C4.58283 30.2103 4.76937 30.1344 4.99789 30.1344H11.3945H11.4445V30.0844V27.6856V27.6356H11.3945H4.99789C4.76937 27.6356 4.58283 27.5597 4.45355 27.4304C4.32426 27.3011 4.24831 27.1146 4.24831 26.886V23.6877C4.24831 23.4592 4.32426 23.2727 4.45355 23.1434C4.58283 23.0141 4.76937 22.9382 4.99789 22.9382H11.3945H11.4445V22.8882V20.4894V20.4394H11.3945H4.99789C4.76937 20.4394 4.58283 20.3635 4.45355 20.2342C4.32426 20.1049 4.24831 19.9184 4.24831 19.6898V16.4915C4.24831 16.263 4.32426 16.0765 4.45355 15.9472C4.58283 15.8179 4.76937 15.742 4.99789 15.742H11.3945H11.4445V15.692V13.2932V13.2432H11.3945H2.59915ZM12.9937 6.04704H12.9437V6.09704V38.8797V38.9297H12.9937H15.3924H15.4424V38.8797V30.8839C15.4424 30.6554 15.5183 30.4689 15.6476 30.3396C15.7769 30.2103 15.9635 30.1344 16.192 30.1344H25.7869C26.0154 30.1344 26.2019 30.2103 26.3312 30.3396C26.4605 30.4689 26.5365 30.6554 26.5365 30.8839V38.8797V38.9297H26.5865H28.9852H29.0352V38.8797V6.09704V6.04704H28.9852H12.9937ZM16.9415 38.8797V38.9297H16.9915H24.9873H25.0373V38.8797V31.6835V31.6335H24.9873H16.9915H16.9415V31.6835V38.8797ZM39.3797 38.9297H39.4297V38.8797V20.9692V20.9393L39.4033 20.9251L30.608 16.2076L30.5344 16.1681V16.2517V38.8797V38.9297H30.5844H39.3797Z" fill="#A3ABB0" stroke="white" stroke-width="0.1" />
		<path d="M16.9917 10.045H16.9417V10.095V11.6942V11.7442H16.9917H18.5909H18.6409V11.6942V10.095V10.045H18.5909H16.9917ZM23.3883 10.045H23.3383V10.095V11.6942V11.7442H23.3883H24.9875H25.0375V11.6942V10.095V10.045H24.9875H23.3883ZM16.9917 17.2412H16.9417V17.2912V18.8904V18.9404H16.9917H18.5909H18.6409V18.8904V17.2912V17.2412H18.5909H16.9917ZM23.3883 17.2412H23.3383V17.2912V18.8904V18.9404H23.3883H24.9875H25.0375V18.8904V17.2912V17.2412H24.9875H23.3883ZM16.9917 24.4374H16.9417V24.4874V26.0865V26.1365H16.9917H18.5909H18.6409V26.0865V24.4874V24.4374H18.5909H16.9917ZM23.3883 24.4374H23.3383V24.4874V26.0865V26.1365H23.3883H24.9875H25.0375V26.0865V24.4874V24.4374H24.9875H23.3883ZM33.7829 24.4374H33.7329V24.4874V26.0865V26.1365H33.7829H35.382H35.432V26.0865V24.4874V24.4374H35.382H33.7829ZM33.7829 31.6336H33.7329V31.6836V33.2827V33.3327H33.7829H35.382H35.432V33.2827V31.6836V31.6336H35.382H33.7829ZM19.3905 13.2433H16.1922C15.9636 13.2433 15.7771 13.1674 15.6478 13.0381C15.5185 12.9088 15.4426 12.7222 15.4426 12.4937V9.29543C15.4426 9.06692 15.5185 8.88038 15.6478 8.75109C15.7771 8.6218 15.9636 8.54585 16.1922 8.54585H19.3905C19.619 8.54585 19.8055 8.6218 19.9348 8.75109C20.0641 8.88038 20.14 9.06692 20.14 9.29543V12.4937C20.14 12.7222 20.0641 12.9088 19.9348 13.0381C19.8055 13.1674 19.619 13.2433 19.3905 13.2433ZM25.7871 13.2433H22.5888C22.3603 13.2433 22.1737 13.1674 22.0444 13.0381C21.9151 12.9088 21.8392 12.7222 21.8392 12.4937V9.29543C21.8392 9.06692 21.9151 8.88038 22.0444 8.75109C22.1737 8.6218 22.3603 8.54585 22.5888 8.54585H25.7871C26.0156 8.54585 26.2021 8.6218 26.3314 8.75109C26.4607 8.88038 26.5367 9.06692 26.5367 9.29543V12.4937C26.5367 12.7222 26.4607 12.9088 26.3314 13.0381C26.2021 13.1674 26.0156 13.2433 25.7871 13.2433ZM19.3905 20.4395H16.1922C15.9636 20.4395 15.7771 20.3636 15.6478 20.2343C15.5185 20.105 15.4426 19.9184 15.4426 19.6899V16.4916C15.4426 16.2631 15.5185 16.0766 15.6478 15.9473C15.7771 15.818 15.9636 15.742 16.1922 15.742H19.3905C19.619 15.742 19.8055 15.818 19.9348 15.9473C20.0641 16.0766 20.14 16.2631 20.14 16.4916V19.6899C20.14 19.9184 20.0641 20.105 19.9348 20.2343C19.8055 20.3636 19.619 20.4395 19.3905 20.4395ZM25.7871 20.4395H22.5888C22.3603 20.4395 22.1737 20.3636 22.0444 20.2343C21.9151 20.105 21.8392 19.9184 21.8392 19.6899V16.4916C21.8392 16.2631 21.9151 16.0766 22.0444 15.9473C22.1737 15.818 22.3603 15.742 22.5888 15.742H25.7871C26.0156 15.742 26.2021 15.818 26.3314 15.9473C26.4607 16.0766 26.5367 16.2631 26.5367 16.4916V19.6899C26.5367 19.9184 26.4607 20.105 26.3314 20.2343C26.2021 20.3636 26.0156 20.4395 25.7871 20.4395ZM19.3905 27.6357H16.1922C15.9636 27.6357 15.7771 27.5597 15.6478 27.4305C15.5185 27.3012 15.4426 27.1146 15.4426 26.8861V23.6878C15.4426 23.4593 15.5185 23.2728 15.6478 23.1435C15.7771 23.0142 15.9636 22.9382 16.1922 22.9382H19.3905C19.619 22.9382 19.8055 23.0142 19.9348 23.1435C20.0641 23.2728 20.14 23.4593 20.14 23.6878V26.8861C20.14 27.1146 20.0641 27.3012 19.9348 27.4305C19.8055 27.5597 19.619 27.6357 19.3905 27.6357ZM25.7871 27.6357H22.5888C22.3603 27.6357 22.1737 27.5597 22.0444 27.4305C21.9151 27.3012 21.8392 27.1146 21.8392 26.8861V23.6878C21.8392 23.4593 21.9151 23.2728 22.0444 23.1435C22.1737 23.0142 22.3603 22.9382 22.5888 22.9382H25.7871C26.0156 22.9382 26.2021 23.0142 26.3314 23.1435C26.4607 23.2728 26.5367 23.4593 26.5367 23.6878V26.8861C26.5367 27.1146 26.4607 27.3012 26.3314 27.4305C26.2021 27.5597 26.0156 27.6357 25.7871 27.6357ZM36.1816 27.6357H32.9833C32.7548 27.6357 32.5682 27.5597 32.4389 27.4305C32.3096 27.3012 32.2337 27.1146 32.2337 26.8861V23.6878C32.2337 23.4593 32.3096 23.2728 32.4389 23.1435C32.5682 23.0142 32.7548 22.9382 32.9833 22.9382H36.1816C36.4101 22.9382 36.5966 23.0142 36.7259 23.1435C36.8552 23.2728 36.9312 23.4593 36.9312 23.6878V26.8861C36.9312 27.1146 36.8552 27.3012 36.7259 27.4305C36.5966 27.5597 36.4101 27.6357 36.1816 27.6357ZM36.1816 34.8319H32.9833C32.7548 34.8319 32.5682 34.7559 32.4389 34.6267C32.3096 34.4974 32.2337 34.3108 32.2337 34.0823V30.884C32.2337 30.6555 32.3096 30.469 32.4389 30.3397C32.5682 30.2104 32.7548 30.1344 32.9833 30.1344H36.1816C36.4101 30.1344 36.5966 30.2104 36.7259 30.3397C36.8552 30.469 36.9312 30.6555 36.9312 30.884V34.0823C36.9312 34.3108 36.8552 34.4974 36.7259 34.6267C36.5966 34.7559 36.4101 34.8319 36.1816 34.8319Z" fill="#A3ABB0" stroke="white" stroke-width="0.1" />
	</g>
	<defs>
		<clipPath id="clip0_13442_15596">
			<rect width="40" height="40" fill="white" transform="translate(0.5 0.5)" />
		</clipPath>
	</defs>
</svg>
