<svg width="41" height="41" viewBox="0 0 41 41" fill="none" xmlns="http://www.w3.org/2000/svg">
	<g clip-path="url(#clip0_13442_15603)">
		<path d="M17.1315 9.2395H11.2041C10.6654 9.2395 10.2275 9.67747 10.2275 10.2161V19.8984C10.2275 20.4367 10.6654 20.875 11.2041 20.875H17.1314C17.6701 20.875 18.108 20.4367 18.108 19.8984V10.2161C18.108 9.67747 17.6702 9.2395 17.1315 9.2395ZM13.5817 19.7031H11.3994V17.3068H13.5817V19.7031ZM13.5817 16.135H11.3994V13.9792H13.5817V16.135ZM13.5817 12.8073H11.3994V10.4114H13.5817V12.8073ZM16.9362 19.7031H14.7536V17.3068H16.9362V19.7031ZM16.9362 16.135H14.7536V13.9792H16.9362V16.135ZM16.9362 12.8073H14.7536V10.4114H16.9362V12.8073ZM24.9901 32.6325C24.8347 32.6325 24.6857 32.6942 24.5758 32.8041C24.4659 32.914 24.4042 33.063 24.4042 33.2184V34.6253C24.4042 34.7807 24.4659 34.9297 24.5758 35.0396C24.6857 35.1495 24.8347 35.2112 24.9901 35.2112C25.1455 35.2112 25.2946 35.1495 25.4044 35.0396C25.5143 34.9297 25.5761 34.7807 25.5761 34.6253V33.2184C25.5761 33.063 25.5143 32.914 25.4044 32.8041C25.2946 32.6942 25.1455 32.6325 24.9901 32.6325Z" fill="#A3ABB0" />
		<path d="M40.4946 26.7152C40.4682 26.5107 40.3616 26.3251 40.1983 26.1991L27.7846 16.5944C27.5127 16.3827 27.1777 16.2682 26.8331 16.2691C26.4855 16.2691 26.1565 16.3816 25.881 16.5947L24.0035 18.0473V16.3645C24.0035 16.0408 23.7414 15.7786 23.4176 15.7786C23.0939 15.7786 22.8317 16.0408 22.8317 16.3645V18.954L13.4682 26.1988C13.3047 26.3258 13.198 26.5123 13.1714 26.7176C13.1581 26.819 13.1649 26.9221 13.1916 27.0209C13.2182 27.1197 13.2641 27.2122 13.3267 27.2932L14.2767 28.5289C14.3494 28.6238 14.443 28.7005 14.5502 28.7532C14.6575 28.806 14.7754 28.8332 14.8949 28.8328C15.0664 28.8328 15.2358 28.7752 15.3719 28.6698L26.8331 19.802L35.4961 26.5049V38.7133H30.7769V37.6146C30.7769 37.2909 30.5147 37.0287 30.191 37.0287C29.8672 37.0287 29.605 37.2909 29.605 37.6146V38.7133H24.0603V29.7367H29.605V34.8606C29.605 35.1845 29.8671 35.4466 30.191 35.4466C30.5148 35.4466 30.7769 35.1845 30.7769 34.8606V29.5414C30.7769 29.0031 30.3386 28.5648 29.8003 28.5648H23.8653C23.3267 28.5648 22.8884 29.0031 22.8884 29.5414V38.7133H18.4359V37.1151C18.4359 36.5764 17.998 36.1385 17.4593 36.1385H16.8984C16.9451 35.9053 16.9704 35.6645 16.9704 35.418C16.9704 33.3901 15.3204 31.7403 13.2924 31.7403C12.1917 31.7403 11.1617 32.2454 10.4729 33.0645C10.206 32.9801 9.92771 32.9371 9.64776 32.9372C9.43659 32.9372 9.22901 32.9607 9.02729 33.0077C8.38917 31.9145 7.19839 31.2114 5.9112 31.2114C5.77417 31.2114 5.63862 31.22 5.50495 31.2356V11.6217L14.1683 4.91828L22.832 11.6217V13.6298C22.832 13.9536 23.0941 14.2157 23.4179 14.2157C23.5733 14.2157 23.7224 14.154 23.8322 14.0441C23.9421 13.9342 24.0039 13.7852 24.0039 13.6298V12.5284L25.6298 13.7863C25.7664 13.8918 25.934 13.9491 26.1065 13.9493C26.2261 13.9498 26.3442 13.9225 26.4516 13.8697C26.5589 13.8168 26.6525 13.7399 26.7251 13.6448L26.7315 13.6362L27.6415 12.407L27.6473 12.3996C27.7074 12.3243 27.8671 12.1244 27.8298 11.8316C27.8168 11.7303 27.784 11.6326 27.7331 11.5441C27.6823 11.4555 27.6144 11.3779 27.5335 11.3156L15.1202 1.71094C14.8449 1.4982 14.5159 1.38563 14.1683 1.38563C13.8207 1.38563 13.4917 1.4982 13.2162 1.71125L9.80792 4.34828V3.60977C10.2687 3.53164 10.6209 3.13063 10.6209 2.64812V1.47656C10.6209 0.937891 10.1826 0.5 9.64432 0.5H4.8962C4.35784 0.5 3.91964 0.937891 3.91964 1.47656V2.64781C3.91964 3.13063 4.27174 3.53133 4.7326 3.60977V8.27523L0.804401 11.3148C0.640544 11.4415 0.533522 11.6279 0.506744 11.8333C0.493267 11.9348 0.500032 12.038 0.526649 12.1369C0.553266 12.2358 0.599208 12.3284 0.661822 12.4095L1.61182 13.6452C1.68442 13.7402 1.77802 13.8171 1.8853 13.8698C1.99258 13.9226 2.11062 13.9498 2.23018 13.9494C2.40167 13.9494 2.57073 13.8917 2.70745 13.7864L4.33307 12.5285V31.5801C3.40292 32.0378 2.68667 32.8862 2.42057 33.921C1.53706 34.2616 0.930104 35.1198 0.930104 36.0939C0.930104 36.2013 0.93776 36.3069 0.951744 36.4106C0.765885 36.5886 0.649947 36.8382 0.649947 37.115V38.9087C0.649947 39.4471 1.08784 39.8853 1.62651 39.8853H38.3664C38.5218 39.8853 38.6708 39.8236 38.7807 39.7137C38.8906 39.6038 38.9523 39.4548 38.9523 39.2994C38.9523 38.9756 38.6901 38.7134 38.3664 38.7134H36.668V27.4117L38.2943 28.6699C38.4309 28.7752 38.5985 28.8325 38.771 28.8329C38.8906 28.8334 39.0088 28.8061 39.1161 28.7532C39.2234 28.7003 39.317 28.6232 39.3896 28.528L39.396 28.5198L40.3064 27.2902L40.3124 27.2826C40.3722 27.2076 40.5315 27.0076 40.4946 26.7153V26.7152ZM13.2924 32.9121C14.6743 32.9121 15.7985 34.0363 15.7985 35.4179C15.7985 35.6684 15.7607 35.9102 15.6921 36.1384H12.3498C12.3751 35.9895 12.3892 35.8363 12.3892 35.6801C12.3892 34.8851 12.0489 34.1685 11.5071 33.6668C11.9704 33.1965 12.6113 32.9121 13.2924 32.9121ZM5.09151 1.67188H9.44909V2.4525H5.09151V1.67188ZM8.63604 3.62438V5.25492L5.90456 7.36859V3.62438H8.63604ZM2.30135 12.6191L1.82862 12.0042L13.9329 2.63805C14.0022 2.58469 14.0813 2.5575 14.1682 2.5575C14.2552 2.5575 14.3342 2.58469 14.4032 2.63773L26.4912 11.9911L26.0298 12.6145L14.5269 3.71414C14.4242 3.63475 14.2981 3.59168 14.1683 3.59168C14.0385 3.59168 13.9124 3.63475 13.8097 3.71414L2.30135 12.6191ZM17.2641 38.7135H1.82182V37.3103H7.21917C7.37457 37.3103 7.5236 37.2486 7.63349 37.1387C7.74337 37.0288 7.8051 36.8798 7.8051 36.7244C7.8051 36.569 7.74337 36.4199 7.63349 36.3101C7.5236 36.2002 7.37457 36.1384 7.21917 36.1384H2.10354C2.10292 36.1234 2.10198 36.1088 2.10198 36.0939C2.10198 35.5412 2.49471 35.0636 3.03635 34.9586C3.15588 34.9354 3.26522 34.8756 3.34919 34.7874C3.43315 34.6993 3.48756 34.5872 3.50487 34.4666C3.67573 33.2792 4.71034 32.3835 5.91112 32.3835C6.90846 32.3835 7.82034 33.0095 8.18018 33.9409C8.20915 34.016 8.25332 34.0844 8.30991 34.1418C8.3665 34.1991 8.4343 34.2442 8.50909 34.2741C8.58395 34.304 8.66416 34.3181 8.74472 34.3156C8.82528 34.313 8.90445 34.2939 8.97729 34.2595C9.18683 34.1601 9.41588 34.1089 9.64776 34.1093C10.5132 34.1093 11.2173 34.814 11.2173 35.6804C11.2173 35.84 11.1923 35.9934 11.1478 36.1384H10.0317C9.87627 36.1384 9.72723 36.2002 9.61735 36.3101C9.50746 36.4199 9.44573 36.569 9.44573 36.7244C9.44573 37.0481 9.70784 37.3103 10.0317 37.3103H17.264L17.2641 38.7135ZM38.6948 27.498L27.1917 18.5978C27.089 18.5183 26.9629 18.4751 26.8331 18.4751C26.7032 18.4751 26.5771 18.5183 26.4745 18.5978L14.9657 27.5025L14.4931 26.8877L26.5978 17.5218C26.6647 17.4689 26.7477 17.4404 26.8331 17.4409C26.9198 17.4409 26.9991 17.468 27.0681 17.5215L39.1561 26.8745L38.6948 27.498Z" fill="#A3ABB0" />
	</g>
	<defs>
		<clipPath id="clip0_13442_15603">
			<rect width="40" height="40" fill="white" transform="translate(0.5 0.5)" />
		</clipPath>
	</defs>
</svg>
