<svg width="41" height="41" viewBox="0 0 41 41" fill="none" xmlns="http://www.w3.org/2000/svg">
	<g clip-path="url(#clip0_13442_15635)">
		<path fill-rule="evenodd" clip-rule="evenodd" d="M38.7657 29.6506H29.6503C29.4394 29.6506 29.2519 29.5568 29.1582 29.3459C29.0645 29.1585 29.0645 28.971 29.1582 28.7601L30.3298 26.8855H29.6503C29.4394 26.8855 29.2519 26.7918 29.1582 26.5809C29.0645 26.3934 29.0645 26.2059 29.1582 25.995L30.3298 24.1204H29.6503C29.4394 24.1204 29.2519 24.0267 29.1582 23.8158C29.0645 23.6283 29.0645 23.4408 29.1582 23.2534L33.7042 15.8251C33.7979 15.6611 34.0088 15.5674 34.1963 15.5674C34.3837 15.5674 34.5946 15.6611 34.6884 15.8251L39.2343 23.2534C39.3281 23.394 39.3281 23.6283 39.2343 23.8158C39.1406 24.0267 38.9297 24.1204 38.7423 24.1204H38.0627L39.2343 25.995C39.3281 26.1591 39.3281 26.3934 39.2343 26.5809C39.1406 26.7918 38.9297 26.8855 38.7423 26.8855H38.0627L39.2343 28.7601C39.3281 28.9241 39.3281 29.1585 39.2343 29.3459C39.164 29.51 38.9766 29.6506 38.7657 29.6506ZM30.6813 28.5024H37.7581L36.6099 26.6277C36.4927 26.4637 36.4927 26.2294 36.6099 26.0419C36.7036 25.831 36.8911 25.7373 37.0785 25.7373H37.7581L36.6099 23.8626C36.4927 23.6986 36.4927 23.4643 36.6099 23.2768C36.7036 23.0894 36.8911 22.9722 37.0785 22.9722H37.7581L34.2197 17.2077L30.6813 22.9722H31.3609C31.5718 22.9722 31.7592 23.0894 31.853 23.2768C31.9467 23.4643 31.9467 23.6752 31.853 23.8626L30.6813 25.7373H31.3609C31.5718 25.7373 31.7592 25.831 31.853 26.0419C31.9467 26.2294 31.9467 26.4168 31.853 26.6277L30.6813 28.5024Z" fill="#A3ABB0" />
		<path fill-rule="evenodd" clip-rule="evenodd" d="M35.6027 35.04H33.5406C33.2126 35.04 32.9548 34.7823 32.9548 34.4542V29.0647C32.9548 28.7366 33.2126 28.4788 33.5406 28.4788H35.6027C35.9074 28.4788 36.1651 28.7366 36.1651 29.0647V34.4542C36.1651 34.7823 35.9074 35.04 35.6027 35.04ZM34.103 33.8918H35.0169V29.6505H34.103V33.8918ZM18.2624 35.0166H2.21082C1.88276 35.0166 1.625 34.7354 1.625 34.4308V20.6757C1.625 20.3476 1.88276 20.0898 2.21082 20.0898H18.2624C18.5904 20.0898 18.8482 20.3476 18.8482 20.6757V34.4542C18.8482 34.7354 18.5904 35.0166 18.2624 35.0166ZM2.79665 33.8684H17.7234V21.2381H2.79665V33.8684Z" fill="#A3ABB0" />
		<path fill-rule="evenodd" clip-rule="evenodd" d="M27.9873 35.0401H18.3095C17.9814 35.0401 17.7236 34.7823 17.7236 34.4543V20.6757C17.7236 20.5351 17.7471 20.418 17.8408 20.3242L22.6914 14.302C22.9257 14.0442 23.371 14.0442 23.5584 14.302L28.409 20.3242C28.5028 20.418 28.5496 20.5351 28.5496 20.6757V34.4777C28.5731 34.7823 28.3153 35.0401 27.9873 35.0401ZM18.8953 33.8919H27.4249V20.8632L23.1366 15.5673L18.8953 20.8632V33.8919Z" fill="#A3ABB0" />
		<path fill-rule="evenodd" clip-rule="evenodd" d="M18.3094 21.2381H2.21094C2.02347 21.2381 1.83601 21.1209 1.71884 20.9569C1.62511 20.8163 1.60168 20.6054 1.69541 20.4179L4.5308 14.3957C4.62453 14.2082 4.81199 14.0676 5.04632 14.0676H23.1131C23.3474 14.0676 23.5349 14.2082 23.6286 14.3957C23.7224 14.6066 23.6989 14.8175 23.5583 15.0284L18.7546 21.0272C18.6608 21.1678 18.4968 21.2381 18.3094 21.2381ZM3.12482 20.0899H18.0516L21.9649 15.2158H5.44468L3.12482 20.0899ZM23.1365 24.5656C21.9415 24.5656 20.9573 23.6048 20.9573 22.3863C20.9573 21.1912 21.9415 20.2539 23.1365 20.2539C24.355 20.2539 25.3158 21.2381 25.3158 22.3863C25.3158 23.6048 24.355 24.5656 23.1365 24.5656ZM23.1365 21.3787C22.5507 21.3787 22.1055 21.8474 22.1055 22.3863C22.1055 22.9721 22.5507 23.4408 23.1365 23.4408C23.7224 23.4408 24.191 22.9721 24.191 22.3863C24.191 21.8239 23.7224 21.3787 23.1365 21.3787Z" fill="#A3ABB0" />
		<path fill-rule="evenodd" clip-rule="evenodd" d="M16.7859 18.2385H8.60778C8.30315 18.2385 8.02196 17.9808 8.02196 17.6527C8.02196 17.3247 8.32659 17.0903 8.60778 17.0903H16.7859C17.0905 17.0903 17.3717 17.3715 17.3717 17.6762C17.3717 18.0042 17.0905 18.2385 16.7859 18.2385ZM13.3881 31.9234H7.15494C6.21762 31.9234 5.44434 31.1501 5.44434 30.1893V24.9404C5.44434 23.9796 6.21762 23.2063 7.15494 23.2063H13.3881C14.3488 23.2063 15.1221 24.0265 15.1221 24.9404V30.2362C15.1456 31.1735 14.3723 31.9234 13.3881 31.9234ZM7.15494 24.3077C6.82688 24.3077 6.56912 24.6123 6.56912 24.8935V30.1893C6.56912 30.5174 6.82688 30.7752 7.15494 30.7752H13.3881C13.7162 30.7752 13.9739 30.5174 13.9739 30.1893V24.9404C13.9739 24.6123 13.6927 24.3545 13.3881 24.3545H7.15494V24.3077Z" fill="#A3ABB0" />
		<path fill-rule="evenodd" clip-rule="evenodd" d="M14.5597 28.1507H5.98328C5.65522 28.1507 5.39746 27.8929 5.39746 27.5648C5.39746 27.2368 5.65522 26.979 5.98328 26.979H14.5597C14.8878 26.979 15.1456 27.2368 15.1456 27.5648C15.1456 27.8929 14.8878 28.1507 14.5597 28.1507Z" fill="#A3ABB0" />
		<path fill-rule="evenodd" clip-rule="evenodd" d="M10.2714 31.9236C9.94331 31.9236 9.68555 31.6658 9.68555 31.3378V23.7689C9.68555 23.4409 9.94331 23.1831 10.2714 23.1831C10.5994 23.1831 10.8572 23.4409 10.8572 23.7689V31.3612C10.8572 31.6658 10.5994 31.9236 10.2714 31.9236ZM25.1981 35.0402C24.8701 35.0402 24.6123 34.7824 24.6123 34.4543V27.7994H21.6832V34.4778C21.6832 34.8058 21.4254 35.0636 21.0974 35.0636C20.7693 35.0636 20.5116 34.8058 20.5116 34.4778V27.2136C20.5116 26.8855 20.7693 26.6277 21.0974 26.6277H25.1513C25.4793 26.6277 25.7371 26.8855 25.7371 27.2136V34.4543C25.7371 34.7824 25.5262 35.0402 25.1981 35.0402Z" fill="#A3ABB0" />
		<path fill-rule="evenodd" clip-rule="evenodd" d="M39.9142 37.149H1.08582C0.757762 37.149 0.5 36.8913 0.5 36.5632V34.4308C0.5 34.1027 0.757762 33.845 1.08582 33.845H39.9142C40.2422 33.845 40.5 34.1027 40.5 34.4308V36.5632C40.5 36.8913 40.2422 37.149 39.9142 37.149ZM1.67165 36.0242H39.3518V35.0166H1.67165V36.0242ZM29.2288 11.9586C27.8931 11.9586 26.8152 10.9041 26.8152 9.56846C26.8152 8.23279 27.8931 7.15487 29.2288 7.15487C30.5644 7.15487 31.6189 8.23279 31.6189 9.56846C31.6658 10.9041 30.5644 11.9586 29.2288 11.9586ZM29.2288 8.30309C28.5492 8.30309 27.9634 8.88891 27.9634 9.56846C27.9634 10.248 28.5023 10.8338 29.2288 10.8338C29.9318 10.8338 30.4941 10.2715 30.4941 9.56846C30.5176 8.84204 29.9318 8.30309 29.2288 8.30309ZM29.2288 6.21756C28.9007 6.21756 28.6429 5.95979 28.6429 5.65517V4.43665C28.6429 4.10859 28.9007 3.85083 29.2288 3.85083C29.5568 3.85083 29.8146 4.10859 29.8146 4.43665V5.65517C29.8146 5.95979 29.5568 6.21756 29.2288 6.21756ZM32.0173 7.34234C31.8767 7.34234 31.7127 7.29547 31.6189 7.17831C31.408 6.96741 31.408 6.59248 31.6189 6.38159L32.5094 5.49113C32.7203 5.28024 33.0952 5.28024 33.3061 5.49113C33.5404 5.72546 33.5404 6.07696 33.3061 6.31129L32.4391 7.17831C32.2985 7.3189 32.1813 7.34234 32.0173 7.34234ZM34.384 10.1543H33.1655C32.8374 10.1543 32.5797 9.89652 32.5797 9.56846C32.5797 9.2404 32.8374 8.98264 33.1655 8.98264H34.384C34.7121 8.98264 34.9698 9.2404 34.9698 9.56846C34.9698 9.89652 34.7121 10.1543 34.384 10.1543ZM32.8843 13.7864C32.7203 13.7864 32.6031 13.7161 32.4625 13.6224L31.5955 12.7553C31.3612 12.521 31.3612 12.1695 31.5955 11.9352C31.8298 11.7009 32.1813 11.7009 32.4156 11.9352L33.2827 12.8022C33.517 13.0365 33.517 13.388 33.2827 13.6224C33.1655 13.763 33.0249 13.7864 32.8843 13.7864ZM29.2288 15.2861C28.9007 15.2861 28.6429 15.0283 28.6429 14.7003V13.4583C28.6429 13.1303 28.9007 12.8725 29.2288 12.8725C29.5568 12.8725 29.8146 13.1303 29.8146 13.4583V14.7003C29.8146 15.0518 29.5568 15.2861 29.2288 15.2861ZM25.5732 13.7864C25.4561 13.7864 25.292 13.7161 25.1983 13.6224C24.964 13.388 24.964 13.0365 25.1983 12.8022L26.0653 11.9352C26.2996 11.7009 26.6511 11.7009 26.8855 11.9352C27.1198 12.1695 27.1198 12.521 26.8855 12.7553L25.995 13.6224C25.8779 13.763 25.7373 13.7864 25.5732 13.7864ZM25.3155 10.1543H24.097C23.7689 10.1543 23.5111 9.89652 23.5111 9.56846C23.5111 9.2404 23.7689 8.98264 24.097 8.98264H25.3155C25.6435 8.98264 25.9013 9.2404 25.9013 9.56846C25.9013 9.89652 25.6435 10.1543 25.3155 10.1543ZM26.4637 7.34234C26.3231 7.34234 26.1591 7.29547 26.0653 7.17831L25.1983 6.31129C24.964 6.07696 24.964 5.72546 25.1983 5.49113C25.4092 5.28024 25.7841 5.28024 25.995 5.49113L26.8855 6.38159C27.1198 6.59248 27.1198 6.96741 26.8855 7.17831C26.7917 7.3189 26.6277 7.34234 26.4637 7.34234Z" fill="#A3ABB0" />
	</g>
	<defs>
		<clipPath id="clip0_13442_15635">
			<rect width="40" height="40" fill="white" transform="translate(0.5 0.5)" />
		</clipPath>
	</defs>
</svg>
