<svg width="41" height="41" viewBox="0 0 41 41" fill="none" xmlns="http://www.w3.org/2000/svg">
	<g clip-path="url(#clip0_13442_15655)">
		<path d="M21.9998 31.8107C21.8486 31.8107 21.7035 31.8708 21.5966 31.9777C21.4896 32.0846 21.4296 32.2297 21.4296 32.3809V33.5593C21.4296 33.7106 21.4896 33.8556 21.5966 33.9626C21.7035 34.0695 21.8486 34.1296 21.9998 34.1296C22.151 34.1296 22.2961 34.0695 22.403 33.9626C22.51 33.8556 22.57 33.7106 22.57 33.5593V32.3809C22.57 32.2297 22.5099 32.0847 22.403 31.9777C22.2961 31.8708 22.151 31.8107 21.9998 31.8107ZM14.6811 27.2487H10.8819C10.4409 27.2487 10.0821 27.6074 10.0821 28.0484V32.8474C10.0821 33.2884 10.4409 33.6472 10.8818 33.6472H14.6811C15.1221 33.6472 15.4808 33.2884 15.4808 32.8474V28.0484C15.4808 27.6074 15.122 27.2487 14.6811 27.2487ZM14.3405 32.5068H11.2225V28.3891H14.3405V32.5068ZM30.1177 27.2487H26.3184C25.8774 27.2487 25.5187 27.6074 25.5187 28.0484V32.8474C25.5187 33.2884 25.8774 33.6472 26.3184 33.6472H30.1177C30.5587 33.6472 30.9174 33.2884 30.9174 32.8474V28.0484C30.9174 27.6074 30.5587 27.2487 30.1177 27.2487ZM29.777 32.5068H26.6592V28.3891H29.777V32.5068ZM14.6811 16.398H10.8819C10.4409 16.398 10.0821 16.7568 10.0821 17.1978V21.9967C10.0821 22.4377 10.4409 22.7965 10.8818 22.7965H14.6811C15.1221 22.7965 15.4808 22.4377 15.4808 21.9967V17.1978C15.4808 16.7568 15.122 16.398 14.6811 16.398ZM14.3405 21.6561H11.2225V17.5384H14.3405V21.6561ZM22.3994 16.398H18.6001C18.1591 16.398 17.8004 16.7568 17.8004 17.1978V21.9967C17.8004 22.4377 18.1592 22.7965 18.6001 22.7965H22.3994C22.8404 22.7965 23.1992 22.4377 23.1992 21.9967V17.1978C23.1992 16.7568 22.8404 16.398 22.3994 16.398ZM22.0588 21.6561H18.9408V17.5384H22.0588V21.6561ZM30.1177 16.398H26.3184C25.8774 16.398 25.5187 16.7568 25.5187 17.1978V21.9967C25.5187 22.4377 25.8774 22.7965 26.3184 22.7965H30.1177C30.5587 22.7965 30.9174 22.4377 30.9174 21.9967V17.1978C30.9174 16.7568 30.5587 16.398 30.1177 16.398ZM29.777 21.6561H26.6592V17.5384H29.777V21.6561ZM14.6812 6.42188H10.8819C10.4409 6.42188 10.0821 6.78062 10.0821 7.22164V12.0206C10.082 12.4616 10.4409 12.8204 10.8819 12.8204H14.6812C15.1222 12.8204 15.4809 12.4616 15.4809 12.0206V7.22164C15.4809 6.78062 15.1221 6.42188 14.6812 6.42188ZM14.3405 11.68H11.2225V7.56226H14.3405V11.68ZM22.3994 6.42188H18.6001C18.1591 6.42188 17.8004 6.78062 17.8004 7.22164V12.0206C17.8004 12.4616 18.1592 12.8204 18.6001 12.8204H22.3994C22.8404 12.8204 23.1992 12.4616 23.1992 12.0206V7.22164C23.1992 6.78062 22.8404 6.42188 22.3994 6.42188ZM22.0588 11.68H18.9408V7.56226H22.0588V11.68ZM30.1178 6.42188H26.3185C25.8775 6.42188 25.5188 6.78062 25.5188 7.22164V12.0206C25.5187 12.4616 25.8774 12.8204 26.3185 12.8204H30.1178C30.5587 12.8204 30.9175 12.4616 30.9175 12.0206V7.22164C30.9175 6.78062 30.5587 6.42188 30.1178 6.42188ZM29.777 11.68H26.6592V7.56226H29.777V11.68Z" fill="#A3ABB0" />
		<path d="M37.0847 37.3827H36.199C36.0873 35.9106 35.0551 34.6923 33.6775 34.3034L33.6584 3.93772H34.35C34.7587 3.93772 35.0911 3.6053 35.0911 3.19671V1.24101C35.0911 0.832421 34.7587 0.5 34.35 0.5H30.3813C30.0663 0.5 29.811 0.755233 29.811 1.07023C29.811 1.38523 30.0663 1.64046 30.3813 1.64046H33.9506V2.79733H7.04908V1.64046H31.815C32.1299 1.64046 32.3853 1.38523 32.3853 1.07023C32.3853 0.755233 32.1299 0.5 31.815 0.5H6.64963C6.24104 0.5 5.90862 0.832421 5.90862 1.24101V3.19679C5.90862 3.60538 6.24104 3.9378 6.64963 3.9378H7.31924L7.33135 28.1148C7.33143 28.266 7.39155 28.411 7.49848 28.5178C7.60541 28.6247 7.75041 28.6847 7.90158 28.6847C8.05281 28.6846 8.19819 28.6244 8.30505 28.5174C8.41191 28.4104 8.47189 28.2653 8.47181 28.1141L8.4597 3.93772H32.5179L32.537 34.1778C32.5351 34.1779 32.5333 34.1782 32.5314 34.1783C32.5116 34.1794 32.4919 34.1817 32.4721 34.1832C32.4252 34.1867 32.3782 34.1903 32.3317 34.1956C32.3063 34.1985 32.2813 34.2027 32.2561 34.2061C32.2155 34.2117 32.1749 34.2171 32.1348 34.2241C32.1075 34.2288 32.0805 34.2347 32.0534 34.24C32.0159 34.2474 31.9782 34.2548 31.941 34.2635C31.913 34.2699 31.8854 34.2774 31.8576 34.2846C31.8217 34.2939 31.7859 34.3032 31.7506 34.3135C31.7226 34.3217 31.6949 34.3308 31.6672 34.3397C31.6326 34.3507 31.5981 34.3622 31.5638 34.3742C31.5362 34.3841 31.5088 34.3946 31.4814 34.4052C31.4479 34.4182 31.4145 34.4313 31.3814 34.4453C31.3541 34.4567 31.3272 34.4687 31.3003 34.4809C31.2083 34.5224 31.1181 34.568 31.0302 34.6177C31.0046 34.6321 30.9791 34.6467 30.9539 34.6618C30.9231 34.6803 30.8927 34.6993 30.8623 34.7188C30.8377 34.7346 30.8132 34.7503 30.789 34.7667C30.7589 34.7871 30.7294 34.8082 30.6999 34.8296C30.6766 34.8465 30.6531 34.8633 30.6302 34.8808C30.6008 34.9032 30.572 34.9266 30.5434 34.95C30.5213 34.968 30.4991 34.9856 30.4776 35.0042C30.4487 35.0289 30.4206 35.0547 30.3925 35.0805C30.3722 35.0991 30.3517 35.1172 30.3318 35.1363C30.3028 35.1642 30.2749 35.1932 30.2469 35.2221C30.229 35.2406 30.2106 35.2585 30.1931 35.2774C30.1627 35.3101 30.1336 35.3441 30.1044 35.3781C30.0903 35.3946 30.0756 35.4103 30.0618 35.427C30.0192 35.4784 29.978 35.531 29.9384 35.5848C29.8732 35.5983 29.809 35.6146 29.7455 35.6325C29.7245 35.6385 29.7041 35.6455 29.6834 35.6519C29.641 35.665 29.5989 35.6785 29.5574 35.6935C29.5336 35.7021 29.5102 35.7115 29.4867 35.7208C29.4247 35.745 29.3637 35.7715 29.3036 35.8003C29.2672 35.8177 29.2313 35.836 29.1957 35.855C29.1735 35.8668 29.1513 35.8785 29.1295 35.8909C29.0917 35.9124 29.0547 35.9352 29.0181 35.9583C28.9999 35.9698 28.9813 35.9806 28.9635 35.9925C28.9098 36.0279 28.8574 36.0652 28.8063 36.1042C28.8031 36.1067 28.8 36.1096 28.7968 36.112C28.749 36.1491 28.7025 36.1877 28.6573 36.2276C28.641 36.2421 28.6254 36.2574 28.6094 36.2721C28.5778 36.3011 28.5469 36.3308 28.5167 36.3612C28.4991 36.379 28.4821 36.3974 28.465 36.4156C28.4201 36.4636 28.3768 36.5131 28.3353 36.5641C28.3098 36.5955 28.2852 36.6276 28.261 36.6601C28.2463 36.6799 28.2314 36.6996 28.2172 36.7199C28.1918 36.756 28.1678 36.7931 28.144 36.8305C28.1329 36.8481 28.1212 36.8652 28.1104 36.8829C28.0767 36.9385 28.0449 36.9953 28.0152 37.0531C28.0131 37.0573 28.0113 37.0617 28.0092 37.0658C27.9818 37.1199 27.9563 37.175 27.9324 37.231C27.9238 37.2513 27.9163 37.272 27.9081 37.2924C27.8961 37.3224 27.8834 37.3521 27.8724 37.3827H24.1764V28.2175C24.1764 27.6829 23.7414 27.248 23.2068 27.248H17.7928C17.2582 27.248 16.8233 27.6829 16.8233 28.2175V37.3828H13.1273C13.1163 37.3522 13.1036 37.3224 13.0916 37.2923C13.0834 37.2719 13.0759 37.2512 13.0673 37.2311C13.0438 37.1758 13.0185 37.1213 12.9914 37.0677C12.989 37.0629 12.987 37.0579 12.9845 37.0531C12.9549 36.9954 12.9232 36.9388 12.8895 36.8833C12.8786 36.8651 12.8666 36.8477 12.8552 36.8297C12.8319 36.7927 12.8078 36.7562 12.7828 36.7202C12.7684 36.6997 12.7534 36.6799 12.7384 36.6597C12.7145 36.6275 12.69 36.5957 12.6648 36.5645C12.6233 36.5135 12.58 36.464 12.535 36.416C12.5178 36.3976 12.5007 36.3792 12.483 36.3612C12.453 36.3308 12.422 36.3016 12.3907 36.2726C12.3745 36.2577 12.3588 36.2422 12.3423 36.2277C12.2971 36.1876 12.2505 36.1491 12.2027 36.1121C12.1995 36.1096 12.1966 36.1069 12.1933 36.1044C12.1422 36.0653 12.0897 36.0281 12.036 35.9926C12.0183 35.9808 11.9999 35.9701 11.982 35.9587C11.9452 35.9352 11.9078 35.9127 11.87 35.891C11.8483 35.8786 11.8263 35.8671 11.8042 35.8553C11.7684 35.8363 11.7324 35.8178 11.6958 35.8003C11.6725 35.7892 11.6491 35.7784 11.6255 35.7678C11.5883 35.7513 11.5506 35.7357 11.5125 35.7207C11.4892 35.7116 11.466 35.7023 11.4424 35.6938C11.4005 35.6788 11.3583 35.6649 11.3158 35.6519C11.2952 35.6456 11.275 35.6385 11.2542 35.6327C11.1905 35.6144 11.1261 35.5985 11.0613 35.5849C11.0217 35.5312 10.9807 35.4787 10.9381 35.4274C10.9242 35.4106 10.9095 35.3949 10.8954 35.3784C10.8667 35.3445 10.8373 35.3111 10.8073 35.2784C10.7895 35.2592 10.7709 35.241 10.7528 35.2224C10.7251 35.1938 10.6975 35.1652 10.6689 35.1377C10.6489 35.1185 10.6283 35.1002 10.6079 35.0814C10.5802 35.0557 10.552 35.0304 10.5234 35.0056C10.5018 34.987 10.4796 34.9692 10.4575 34.9512C10.429 34.9279 10.4005 34.9048 10.3713 34.8824C10.3483 34.8649 10.3249 34.8479 10.3015 34.8309C10.2723 34.8096 10.2427 34.7887 10.2128 34.7683C10.1887 34.7519 10.1642 34.7361 10.1397 34.7203C10.1095 34.7009 10.079 34.682 10.0483 34.6635C9.93647 34.5967 9.82101 34.5363 9.70243 34.4824C9.67587 34.4704 9.64923 34.4584 9.62235 34.447C9.58899 34.4328 9.55532 34.4196 9.5215 34.4066C9.49454 34.3962 9.46767 34.3857 9.44048 34.376C9.40579 34.3635 9.37064 34.3522 9.33548 34.3409C9.30845 34.3322 9.28157 34.3231 9.25431 34.3151C9.2179 34.3043 9.18103 34.2949 9.14415 34.2853C9.11751 34.2785 9.09111 34.271 9.06431 34.2648C9.02494 34.2556 8.98501 34.2478 8.94525 34.24C8.92048 34.2351 8.89595 34.2296 8.87111 34.2252C8.82371 34.2172 8.77615 34.2101 8.72845 34.2041C8.71048 34.2017 8.69275 34.1985 8.6747 34.1964C8.60959 34.1887 8.54428 34.1829 8.47884 34.1789L8.47416 26.7288C8.47407 26.5776 8.41396 26.4327 8.30702 26.3258C8.20009 26.219 8.0551 26.1589 7.90392 26.159C7.7527 26.1591 7.60732 26.2193 7.50045 26.3263C7.39359 26.4333 7.33361 26.5784 7.33369 26.7296L7.33846 34.2989C5.95268 34.6828 4.91269 35.9049 4.80065 37.383H3.91496C3.05558 37.383 2.35645 38.0821 2.35645 38.9415C2.35645 39.8009 3.05558 40.5 3.91496 40.5H37.0847C37.9442 40.5 38.6433 39.8009 38.6433 38.9415C38.6433 38.0819 37.9441 37.3827 37.0847 37.3827ZM29.1917 37.3166L29.1946 37.3127C29.2185 37.2817 29.2439 37.2519 29.2699 37.2227C29.2764 37.2153 29.2831 37.2081 29.2899 37.2007C29.3152 37.1732 29.3414 37.1465 29.3685 37.1206L29.3726 37.1166C29.4084 37.0832 29.4457 37.0513 29.4843 37.0212C29.5137 36.9981 29.5437 36.9756 29.5745 36.9545C29.5761 36.9534 29.5776 36.9523 29.5792 36.9513C29.6199 36.9238 29.6619 36.8982 29.705 36.8745C29.7381 36.8561 29.7718 36.8385 29.8063 36.8224L29.8103 36.8203C29.8554 36.7996 29.9014 36.7809 29.9481 36.7643C29.9849 36.7512 30.0219 36.7388 30.0597 36.7282L30.0621 36.7275C30.1107 36.7142 30.1598 36.7031 30.2094 36.6943C30.2495 36.6868 30.2899 36.6809 30.3305 36.6764C30.4166 36.6674 30.4994 36.6388 30.5729 36.593C30.6463 36.5471 30.7083 36.4852 30.7542 36.4118C31.1847 35.7237 31.9251 35.3129 32.7348 35.3129C32.7816 35.3129 32.8298 35.3146 32.8787 35.3178L32.8862 35.3184C32.9351 35.3217 32.9847 35.3265 33.035 35.333C33.0372 35.3333 33.0394 35.3332 33.0415 35.3335C34.0979 35.4728 34.9341 36.3207 35.0547 37.3829H29.1447C29.1602 37.3605 29.1753 37.338 29.1917 37.3166ZM23.036 28.3884V37.3827H17.9637V28.3884H23.036ZM7.97564 35.3313L7.97814 35.3311C8.02514 35.3254 8.0723 35.321 8.11955 35.3179L8.12783 35.3173C8.17348 35.3144 8.2192 35.3129 8.26494 35.3128C9.07454 35.3128 9.81501 35.7236 10.2456 36.4117C10.306 36.508 10.3939 36.584 10.498 36.6299C10.5524 36.6543 10.6104 36.67 10.6697 36.6764C10.7203 36.682 10.7707 36.6898 10.8206 36.7C10.86 36.7077 10.8991 36.7169 10.9377 36.7274L10.9402 36.7282C10.9877 36.7416 11.0345 36.7572 11.0806 36.7749C11.1174 36.7889 11.154 36.8038 11.1895 36.8203C11.1906 36.8208 11.1916 36.8214 11.1927 36.822C11.2365 36.8425 11.2794 36.8651 11.3212 36.8895C11.355 36.9091 11.3884 36.9294 11.4207 36.9513C11.422 36.952 11.423 36.953 11.4243 36.9538C11.4637 36.9809 11.502 37.0096 11.539 37.0399C11.5692 37.0645 11.5988 37.0899 11.6272 37.1166L11.6308 37.1201C11.6581 37.1459 11.6843 37.1729 11.7098 37.2006C11.743 37.2365 11.7748 37.2737 11.8049 37.3123L11.8086 37.3172C11.8248 37.3384 11.8398 37.3606 11.855 37.3826H5.94487C6.06604 36.3148 6.91088 35.4635 7.97564 35.3313ZM37.0847 39.3595H3.91496C3.68441 39.3595 3.49683 39.1719 3.49683 38.9413C3.49683 38.7108 3.68441 38.5232 3.91496 38.5232H37.0847C37.3152 38.5232 37.5028 38.7108 37.5028 38.9413C37.5028 39.1719 37.3152 39.3595 37.0847 39.3595Z" fill="#A3ABB0" />
	</g>
	<defs>
		<clipPath id="clip0_13442_15655">
			<rect width="40" height="40" fill="white" transform="translate(0.5 0.5)" />
		</clipPath>
	</defs>
</svg>
