<svg width="41" height="41" viewBox="0 0 41 41" fill="none" xmlns="http://www.w3.org/2000/svg">
	<g clip-path="url(#clip0_13442_15610)">
		<path d="M37.8333 39V6.99997H39.1667C39.3435 6.99997 39.5131 6.92974 39.6381 6.80471C39.7631 6.67969 39.8333 6.51012 39.8333 6.33331V1.66664C39.8333 1.57418 39.8141 1.48273 39.7768 1.3981C39.7396 1.31347 39.6852 1.23752 39.617 1.17506C39.5488 1.11261 39.4684 1.06502 39.3808 1.03532C39.2932 1.00562 39.2004 0.994467 39.1083 1.00256L16.4417 3.00256C16.2756 3.01714 16.121 3.09342 16.0084 3.21635C15.8958 3.33928 15.8333 3.49993 15.8333 3.66664V6.33331C15.8333 6.51012 15.9036 6.67969 16.0286 6.80471C16.1536 6.92974 16.3232 6.99997 16.5 6.99997H17.8333V17.6666H19.1667V6.99997H36.5V39H32.1312C32.3741 38.6049 32.5019 38.1497 32.5 37.6859C32.5 36.7325 32.0008 36.2296 31.6363 35.8625C31.3105 35.5345 31.1667 35.3737 31.1667 35C31.1667 33.3435 30.2507 31.6666 28.5 31.6666C26.7493 31.6666 25.8333 33.3435 25.8333 35C25.8333 35.3737 25.6894 35.5345 25.3638 35.8625C24.9993 36.2296 24.5 36.7325 24.5 37.6859C24.4981 38.1497 24.6258 38.6048 24.8686 39H17.8333V30.3333C17.8333 30.1565 17.7631 29.9869 17.6381 29.8619C17.513 29.7369 17.3435 29.6666 17.1667 29.6666H13.1667C12.9899 29.6666 12.8203 29.7369 12.6953 29.8619C12.5702 29.9869 12.5 30.1565 12.5 30.3333V39H10.5V27.2276L18.5 23.7276L26.5 27.2276V31H27.8333V27.811L28.8994 28.2776C29.0009 28.322 29.1118 28.3405 29.2222 28.3312C29.3326 28.322 29.439 28.2854 29.5317 28.2248C29.6243 28.1641 29.7005 28.0813 29.7531 27.9839C29.8058 27.8864 29.8334 27.7774 29.8333 27.6666V24.3333C29.8333 24.2037 29.7956 24.0769 29.7246 23.9684C29.6537 23.86 29.5527 23.7745 29.4339 23.7226L18.7673 19.0559C18.683 19.019 18.592 19 18.5 19C18.408 19 18.317 19.019 18.2327 19.0559L7.56608 23.7226C7.44734 23.7745 7.34633 23.86 7.27539 23.9684C7.20445 24.0769 7.16667 24.2037 7.16667 24.3333V27.6666C7.16667 27.7774 7.19426 27.8864 7.24695 27.9838C7.29964 28.0812 7.37577 28.164 7.46845 28.2246C7.56114 28.2852 7.66747 28.3218 7.77784 28.331C7.8882 28.3402 7.99912 28.3218 8.10058 28.2774L9.16667 27.8107V39H4.5V27.6666H5.83333V26.3333H1.83333V11.6666H16.5V10.3333H12.1095L9.63808 7.86189C9.57618 7.79999 9.50268 7.75088 9.42179 7.71738C9.34091 7.68388 9.25422 7.66664 9.16667 7.66664H3.83333C3.65652 7.66664 3.48695 7.73688 3.36193 7.8619C3.2369 7.98693 3.16667 8.1565 3.16667 8.33331V10.3333H1.16667C0.989856 10.3333 0.820286 10.4035 0.695262 10.5286C0.570238 10.6536 0.5 10.8232 0.5 11V27C0.5 27.1768 0.570238 27.3464 0.695262 27.4714C0.820286 27.5964 0.989856 27.6666 1.16667 27.6666H3.16667V39H0.5V40.3333H40.5V39H37.8333ZM17.1667 4.27706L38.5 2.39472V5.66664H17.1667V4.27706ZM8.5 26.6473V24.7693L18.5 20.3943L28.5 24.7693V26.6473L27.8333 26.3556V26.3333H27.7823L18.7673 22.3892C18.683 22.3523 18.592 22.3333 18.5 22.3333C18.408 22.3333 18.317 22.3523 18.2327 22.3892L9.21767 26.3333H9.16667V26.3556L8.5 26.6473ZM4.5 8.99997H8.89058L10.2239 10.3333H4.5V8.99997ZM13.8333 31H16.5V39H13.8333V31ZM27.1667 39C26.7995 39 25.8333 38.5959 25.8333 37.6859C25.8333 37.2982 25.9794 37.1347 26.31 36.8018C26.6715 36.4376 27.1667 35.939 27.1667 35C27.1667 33.418 28.0388 33 28.5 33C29.5547 33 29.8333 34.3083 29.8333 35C29.8333 35.939 30.3284 36.4376 30.6899 36.8018C31.0204 37.1351 31.1666 37.2982 31.1666 37.6859C31.1667 38.5959 30.2004 39 29.8333 39H27.1667Z" fill="#A3ABB0" />
		<path d="M19.8337 31C19.6568 31 19.4873 31.0702 19.3623 31.1953C19.2372 31.3203 19.167 31.4899 19.167 31.6667V35C19.167 35.1768 19.2372 35.3464 19.3623 35.4714C19.4873 35.5964 19.6568 35.6667 19.8337 35.6667H23.8337C24.0105 35.6667 24.18 35.5964 24.3051 35.4714C24.4301 35.3464 24.5003 35.1768 24.5003 35V31.6667C24.5003 31.4899 24.4301 31.3203 24.3051 31.1953C24.18 31.0702 24.0105 31 23.8337 31H19.8337ZM23.167 34.3333H20.5003V32.3333H23.167V34.3333ZM14.5003 27H15.8337V28.3333H14.5003V27ZM10.5003 21V14.3333H16.5003V13H3.83366C3.65685 13 3.48728 13.0702 3.36225 13.1953C3.23723 13.3203 3.16699 13.4899 3.16699 13.6667V24.3333C3.16699 24.5101 3.23723 24.6797 3.36225 24.8047C3.48728 24.9298 3.65685 25 3.83366 25H5.83366V23.6667H4.50033V14.3333H9.16699V21H10.5003ZM21.8337 14.3333H25.8337C26.0105 14.3333 26.18 14.2631 26.3051 14.1381C26.4301 14.013 26.5003 13.8435 26.5003 13.6667V9.66667C26.5003 9.48986 26.4301 9.32029 26.3051 9.19526C26.18 9.07024 26.0105 9 25.8337 9H21.8337C21.6568 9 21.4873 9.07024 21.3623 9.19526C21.2372 9.32029 21.167 9.48986 21.167 9.66667V13.6667C21.167 13.8435 21.2372 14.013 21.3623 14.1381C21.4873 14.2631 21.6568 14.3333 21.8337 14.3333ZM22.5003 10.3333H25.167V13H22.5003V10.3333ZM29.8337 14.3333H33.8337C34.0105 14.3333 34.18 14.2631 34.3051 14.1381C34.4301 14.013 34.5003 13.8435 34.5003 13.6667V9.66667C34.5003 9.48986 34.4301 9.32029 34.3051 9.19526C34.18 9.07024 34.0105 9 33.8337 9H29.8337C29.6568 9 29.4873 9.07024 29.3623 9.19526C29.2372 9.32029 29.167 9.48986 29.167 9.66667V13.6667C29.167 13.8435 29.2372 14.013 29.3623 14.1381C29.4873 14.2631 29.6568 14.3333 29.8337 14.3333ZM30.5003 10.3333H33.167V13H30.5003V10.3333ZM21.167 19H22.5003V17.6667H25.167V21H26.5003V17C26.5003 16.8232 26.4301 16.6536 26.3051 16.5286C26.18 16.4036 26.0105 16.3333 25.8337 16.3333H21.8337C21.6568 16.3333 21.4873 16.4036 21.3623 16.5286C21.2372 16.6536 21.167 16.8232 21.167 17V19ZM29.167 21C29.167 21.1768 29.2372 21.3464 29.3623 21.4714C29.4873 21.5964 29.6568 21.6667 29.8337 21.6667H33.8337C34.0105 21.6667 34.18 21.5964 34.3051 21.4714C34.4301 21.3464 34.5003 21.1768 34.5003 21V17C34.5003 16.8232 34.4301 16.6536 34.3051 16.5286C34.18 16.4036 34.0105 16.3333 33.8337 16.3333H29.8337C29.6568 16.3333 29.4873 16.4036 29.3623 16.5286C29.2372 16.6536 29.167 16.8232 29.167 17V21ZM30.5003 17.6667H33.167V20.3333H30.5003V17.6667ZM31.167 27.6667V29H33.8337C34.0105 29 34.18 28.9298 34.3051 28.8047C34.4301 28.6797 34.5003 28.5101 34.5003 28.3333V24.3333C34.5003 24.1565 34.4301 23.9869 34.3051 23.8619C34.18 23.7369 34.0105 23.6667 33.8337 23.6667H31.167V25H33.167V27.6667H31.167ZM5.83366 29.6667H7.16699V31H5.83366V29.6667Z" fill="#A3ABB0" />
	</g>
	<defs>
		<clipPath id="clip0_13442_15610">
			<rect width="40" height="40" fill="white" transform="translate(0.5 0.5)" />
		</clipPath>
	</defs>
</svg>
