<svg width="41" height="41" viewBox="0 0 41 41" fill="none" xmlns="http://www.w3.org/2000/svg">
	<g clip-path="url(#clip0_13442_15583)">
		<path d="M6.70723 15.6739H9.46585C9.64876 15.6739 9.82418 15.6012 9.95351 15.4719C10.0828 15.3426 10.1555 15.1671 10.1555 14.9842V9.467C10.1555 9.28409 10.0828 9.10867 9.95351 8.97934C9.82418 8.85 9.64876 8.77734 9.46585 8.77734H6.70723C6.52433 8.77734 6.34891 8.85 6.21957 8.97934C6.09024 9.10867 6.01758 9.28409 6.01758 9.467V14.9842C6.01758 15.1671 6.09024 15.3426 6.21957 15.4719C6.34891 15.6012 6.52433 15.6739 6.70723 15.6739ZM7.39689 10.1567H8.7762V14.2946H7.39689V10.1567ZM13.6038 15.6739H16.3624C16.5453 15.6739 16.7207 15.6012 16.8501 15.4719C16.9794 15.3426 17.0521 15.1671 17.0521 14.9842V9.467C17.0521 9.28409 16.9794 9.10867 16.8501 8.97934C16.7207 8.85 16.5453 8.77734 16.3624 8.77734H13.6038C13.4209 8.77734 13.2455 8.85 13.1161 8.97934C12.9868 9.10867 12.9141 9.28409 12.9141 9.467V14.9842C12.9141 15.1671 12.9868 15.3426 13.1161 15.4719C13.2455 15.6012 13.4209 15.6739 13.6038 15.6739ZM14.2934 10.1567H15.6727V14.2946H14.2934V10.1567ZM6.70723 23.9498H9.46585C9.64876 23.9498 9.82418 23.8771 9.95351 23.7478C10.0828 23.6184 10.1555 23.443 10.1555 23.2601V17.7429C10.1555 17.56 10.0828 17.3845 9.95351 17.2552C9.82418 17.1259 9.64876 17.0532 9.46585 17.0532H6.70723C6.52433 17.0532 6.34891 17.1259 6.21957 17.2552C6.09024 17.3845 6.01758 17.56 6.01758 17.7429V23.2601C6.01758 23.443 6.09024 23.6184 6.21957 23.7478C6.34891 23.8771 6.52433 23.9498 6.70723 23.9498ZM7.39689 18.4325H8.7762V22.5704H7.39689V18.4325ZM13.6038 23.9498H16.3624C16.5453 23.9498 16.7207 23.8771 16.8501 23.7478C16.9794 23.6184 17.0521 23.443 17.0521 23.2601V17.7429C17.0521 17.56 16.9794 17.3845 16.8501 17.2552C16.7207 17.1259 16.5453 17.0532 16.3624 17.0532H13.6038C13.4209 17.0532 13.2455 17.1259 13.1161 17.2552C12.9868 17.3845 12.9141 17.56 12.9141 17.7429V23.2601C12.9141 23.443 12.9868 23.6184 13.1161 23.7478C13.2455 23.8771 13.4209 23.9498 13.6038 23.9498ZM14.2934 18.4325H15.6727V22.5704H14.2934V18.4325ZM9.46585 32.2256C9.64876 32.2256 9.82418 32.153 9.95351 32.0236C10.0828 31.8943 10.1555 31.7189 10.1555 31.536V26.0187C10.1555 25.8358 10.0828 25.6604 9.95351 25.5311C9.82418 25.4017 9.64876 25.3291 9.46585 25.3291H6.70723C6.52433 25.3291 6.34891 25.4017 6.21957 25.5311C6.09024 25.6604 6.01758 25.8358 6.01758 26.0187V31.536C6.01758 31.7189 6.09024 31.8943 6.21957 32.0236C6.34891 32.153 6.52433 32.2256 6.70723 32.2256H9.46585ZM7.39689 26.7084H8.7762V30.8463H7.39689V26.7084ZM13.6038 32.2256H16.3624C16.5453 32.2256 16.7207 32.153 16.8501 32.0236C16.9794 31.8943 17.0521 31.7189 17.0521 31.536V26.0187C17.0521 25.8358 16.9794 25.6604 16.8501 25.5311C16.7207 25.4017 16.5453 25.3291 16.3624 25.3291H13.6038C13.4209 25.3291 13.2455 25.4017 13.1161 25.5311C12.9868 25.6604 12.9141 25.8358 12.9141 26.0187V31.536C12.9141 31.7189 12.9868 31.8943 13.1161 32.0236C13.2455 32.153 13.4209 32.2256 13.6038 32.2256ZM14.2934 26.7084H15.6727V30.8463H14.2934V26.7084ZM27.3969 22.5704H21.8796C21.6967 22.5704 21.5213 22.6431 21.392 22.7724C21.2626 22.9018 21.19 23.0772 21.19 23.2601V26.0187C21.19 26.2016 21.2626 26.3771 21.392 26.5064C21.5213 26.6357 21.6967 26.7084 21.8796 26.7084H27.3969C27.5798 26.7084 27.7552 26.6357 27.8845 26.5064C28.0139 26.3771 28.0865 26.2016 28.0865 26.0187V23.2601C28.0865 23.0772 28.0139 22.9018 27.8845 22.7724C27.7552 22.6431 27.5798 22.5704 27.3969 22.5704ZM26.7072 25.3291H22.5693V23.9498H26.7072V25.3291ZM35.6727 22.5704H30.1555C29.9726 22.5704 29.7972 22.6431 29.6678 22.7724C29.5385 22.9018 29.4659 23.0772 29.4659 23.2601V26.0187C29.4659 26.2016 29.5385 26.3771 29.6678 26.5064C29.7972 26.6357 29.9726 26.7084 30.1555 26.7084H35.6727C35.8557 26.7084 36.0311 26.6357 36.1604 26.5064C36.2897 26.3771 36.3624 26.2016 36.3624 26.0187V23.2601C36.3624 23.0772 36.2897 22.9018 36.1604 22.7724C36.0311 22.6431 35.8557 22.5704 35.6727 22.5704ZM34.9831 25.3291H30.8452V23.9498H34.9831V25.3291ZM27.3969 28.0877H21.8796C21.6967 28.0877 21.5213 28.1604 21.392 28.2897C21.2626 28.419 21.19 28.5944 21.19 28.7773V31.536C21.19 31.7189 21.2626 31.8943 21.392 32.0236C21.5213 32.153 21.6967 32.2256 21.8796 32.2256H27.3969C27.5798 32.2256 27.7552 32.153 27.8845 32.0236C28.0139 31.8943 28.0865 31.7189 28.0865 31.536V28.7773C28.0865 28.5944 28.0139 28.419 27.8845 28.2897C27.7552 28.1604 27.5798 28.0877 27.3969 28.0877ZM26.7072 30.8463H22.5693V29.467H26.7072V30.8463ZM35.6727 28.0877H30.1555C29.9726 28.0877 29.7972 28.1604 29.6678 28.2897C29.5385 28.419 29.4659 28.5944 29.4659 28.7773V31.536C29.4659 31.7189 29.5385 31.8943 29.6678 32.0236C29.7972 32.153 29.9726 32.2256 30.1555 32.2256H35.6727C35.8557 32.2256 36.0311 32.153 36.1604 32.0236C36.2897 31.8943 36.3624 31.7189 36.3624 31.536V28.7773C36.3624 28.5944 36.2897 28.419 36.1604 28.2897C36.0311 28.1604 35.8557 28.0877 35.6727 28.0877ZM34.9831 30.8463H30.8452V29.467H34.9831V30.8463Z" fill="#A3ABB0" />
		<path d="M39.8103 39.1207H38.431V20.5C38.431 20.3171 38.3584 20.1417 38.229 20.0123C38.0997 19.883 37.9243 19.8103 37.7414 19.8103H20.5V6.7069C20.5 6.52399 20.4273 6.34857 20.298 6.21924C20.1687 6.0899 19.9933 6.01724 19.8103 6.01724H17.7414V3.94828C17.7414 3.76537 17.6687 3.58995 17.5394 3.46062C17.41 3.33128 17.2346 3.25862 17.0517 3.25862H14.9828V1.18966C14.9828 1.00675 14.9101 0.831331 14.7808 0.701995C14.6514 0.57266 14.476 0.5 14.2931 0.5H8.77586C8.59295 0.5 8.41754 0.57266 8.2882 0.701995C8.15887 0.831331 8.08621 1.00675 8.08621 1.18966V3.25862H6.01724C5.83433 3.25862 5.65892 3.33128 5.52958 3.46062C5.40025 3.58995 5.32759 3.76537 5.32759 3.94828V6.01724H3.25862C3.07571 6.01724 2.9003 6.0899 2.77096 6.21924C2.64163 6.34857 2.56897 6.52399 2.56897 6.7069V39.1207H1.18966C1.00675 39.1207 0.831331 39.1933 0.701995 39.3227C0.57266 39.452 0.5 39.6274 0.5 39.8103C0.5 39.9933 0.57266 40.1687 0.701995 40.298C0.831331 40.4273 1.00675 40.5 1.18966 40.5H39.8103C39.9933 40.5 40.1687 40.4273 40.298 40.298C40.4273 40.1687 40.5 39.9933 40.5 39.8103C40.5 39.6274 40.4273 39.452 40.298 39.3227C40.1687 39.1933 39.9933 39.1207 39.8103 39.1207ZM9.46552 1.87931H13.6034V3.25862H9.46552V1.87931ZM6.7069 4.63793H16.3621V6.01724H6.7069V4.63793ZM3.94828 7.39655H19.1207V39.1207H14.9828V34.2931C14.9828 34.1102 14.9101 33.9348 14.7808 33.8054C14.6514 33.6761 14.476 33.6034 14.2931 33.6034H8.77586C8.59295 33.6034 8.41754 33.6761 8.2882 33.8054C8.15887 33.9348 8.08621 34.1102 8.08621 34.2931V39.1207H3.94828V7.39655ZM9.46552 34.9828H10.8448V39.1207H9.46552V34.9828ZM12.2241 39.1207V34.9828H13.6034V39.1207H12.2241ZM27.4834 39.1207V34.9828H30.1552V39.1207H27.4834ZM31.5345 39.1207V34.2931C31.5345 34.1102 31.4618 33.9348 31.3325 33.8054C31.2032 33.6761 31.0277 33.6034 30.8448 33.6034H26.7938C26.6109 33.6034 26.4355 33.6761 26.3061 33.8054C26.1768 33.9348 26.1041 34.1102 26.1041 34.2931V39.1207H20.5V21.1897H37.0517V39.1207H31.5345Z" fill="#A3ABB0" />
	</g>
	<defs>
		<clipPath id="clip0_13442_15583">
			<rect width="40" height="40" fill="white" transform="translate(0.5 0.5)" />
		</clipPath>
	</defs>
</svg>
