<svg width="41" height="41" viewBox="0 0 41 41" fill="none" xmlns="http://www.w3.org/2000/svg">
	<path d="M15.6933 8.11508H25.3068C25.4518 8.11508 25.5909 8.05746 25.6935 7.9549C25.7961 7.85234 25.8537 7.71324 25.8537 7.5682V4.49414C25.8537 4.3491 25.7961 4.21 25.6935 4.10744C25.5909 4.00488 25.4518 3.94727 25.3068 3.94727H15.6933C15.5482 3.94727 15.4091 4.00488 15.3066 4.10744C15.204 4.21 15.1464 4.3491 15.1464 4.49414V7.5682C15.1464 7.71324 15.204 7.85234 15.3066 7.9549C15.4091 8.05746 15.5482 8.11508 15.6933 8.11508ZM16.2402 5.04102H24.7599V7.02133H16.2402V5.04102ZM15.6933 14.1495H25.3068C25.4518 14.1495 25.5909 14.0918 25.6935 13.9893C25.7961 13.8867 25.8537 13.7476 25.8537 13.6026V10.5286C25.8537 10.3836 25.7961 10.2445 25.6935 10.1419C25.5909 10.0393 25.4518 9.98172 25.3068 9.98172H15.6933C15.5482 9.98172 15.4091 10.0393 15.3066 10.1419C15.204 10.2445 15.1464 10.3836 15.1464 10.5286V13.6026C15.1464 13.7476 15.204 13.8867 15.3066 13.9893C15.4091 14.0918 15.5482 14.1495 15.6933 14.1495ZM16.2402 11.0755H24.7599V13.0557H16.2402V11.0755ZM15.6933 20.1839H25.3068C25.4518 20.1839 25.5909 20.1263 25.6935 20.0237C25.7961 19.9212 25.8537 19.7821 25.8537 19.637V16.563C25.8537 16.4179 25.7961 16.2788 25.6935 16.1763C25.5909 16.0737 25.4518 16.0161 25.3068 16.0161H15.6933C15.5482 16.0161 15.4091 16.0737 15.3066 16.1763C15.204 16.2788 15.1464 16.4179 15.1464 16.563V19.637C15.1464 19.7821 15.204 19.9212 15.3066 20.0237C15.4091 20.1263 15.5482 20.1839 15.6933 20.1839ZM16.2402 17.1098H24.7599V19.0902H16.2402V17.1098ZM15.6933 26.2184H25.3068C25.4518 26.2184 25.5909 26.1607 25.6935 26.0582C25.7961 25.9556 25.8537 25.8165 25.8537 25.6715V22.5975C25.8537 22.4525 25.7961 22.3134 25.6935 22.2108C25.5909 22.1082 25.4518 22.0506 25.3068 22.0506H15.6933C15.5482 22.0506 15.4091 22.1082 15.3066 22.2108C15.204 22.3134 15.1464 22.4525 15.1464 22.5975V25.6715C15.1464 25.8165 15.204 25.9556 15.3066 26.0582C15.4091 26.1607 15.5482 26.2184 15.6933 26.2184ZM16.2402 23.1445H24.7599V25.1247H16.2402V23.1445ZM39.25 38.7031H37.4531V7.5682C37.4531 7.42316 37.3955 7.28406 37.2929 7.1815C37.1904 7.07895 37.0513 7.02133 36.9062 7.02133H28.4273V1.75C28.4273 1.60496 28.3697 1.46586 28.2672 1.3633C28.1646 1.26074 28.0255 1.20312 27.8805 1.20312H13.1195C12.9745 1.20312 12.8354 1.26074 12.7328 1.3633C12.6303 1.46586 12.5727 1.60496 12.5727 1.75V7.02133H4.09375C3.94871 7.02133 3.80961 7.07895 3.70705 7.1815C3.60449 7.28406 3.54688 7.42316 3.54688 7.5682V38.7031H1.75C1.60496 38.7031 1.46586 38.7607 1.3633 38.8633C1.26074 38.9659 1.20313 39.105 1.20312 39.25C1.20313 39.395 1.26074 39.5341 1.3633 39.6367C1.46586 39.7393 1.60496 39.7969 1.75 39.7969H39.25C39.395 39.7969 39.5341 39.7393 39.6367 39.6367C39.7393 39.5341 39.7969 39.395 39.7969 39.25C39.7969 39.105 39.7393 38.9659 39.6367 38.8633C39.5341 38.7607 39.395 38.7031 39.25 38.7031ZM36.3594 8.11508V38.7031H28.4273V8.11508H36.3594ZM27.3336 2.29688V38.7031H25.8536V30.2392C25.8536 30.0942 25.796 29.9551 25.6934 29.8525C25.5909 29.75 25.4518 29.6923 25.3067 29.6923H15.6933C15.5482 29.6923 15.4091 29.75 15.3066 29.8525C15.204 29.9551 15.1464 30.0942 15.1464 30.2392V38.7031H13.6664V2.29688H27.3336ZM21.0469 30.7861H24.7598V38.7031H21.0469V30.7861ZM19.9531 38.7031H16.2402V30.7861H19.9531V38.7031ZM4.64062 8.11508H12.5727V38.7031H4.64062V8.11508ZM30.8773 14.1495H33.9095C34.0545 14.1495 34.1936 14.0918 34.2962 13.9893C34.3987 13.8867 34.4563 13.7476 34.4563 13.6026V10.5705C34.4563 10.4255 34.3987 10.2864 34.2962 10.1838C34.1936 10.0813 34.0545 10.0237 33.9095 10.0237H30.8773C30.7323 10.0237 30.5932 10.0813 30.4906 10.1838C30.3881 10.2864 30.3305 10.4255 30.3305 10.5705V13.6026C30.3305 13.7476 30.3881 13.8867 30.4906 13.9893C30.5932 14.0918 30.7323 14.1495 30.8773 14.1495ZM31.4242 11.1174H33.3626V13.0557H31.4242V11.1174ZM30.8773 19.8472H33.9095C34.0545 19.8472 34.1936 19.7896 34.2962 19.687C34.3987 19.5845 34.4563 19.4454 34.4563 19.3003V16.2682C34.4563 16.1232 34.3987 15.9841 34.2962 15.8815C34.1936 15.7789 34.0545 15.7213 33.9095 15.7213H30.8773C30.7323 15.7213 30.5932 15.7789 30.4906 15.8815C30.3881 15.9841 30.3305 16.1232 30.3305 16.2682V19.3003C30.3305 19.4454 30.3881 19.5845 30.4906 19.687C30.5932 19.7896 30.7323 19.8472 30.8773 19.8472ZM31.4242 16.8151H33.3626V18.7534H31.4242V16.8151ZM30.8773 25.5448H33.9095C34.0545 25.5448 34.1936 25.4871 34.2962 25.3846C34.3987 25.282 34.4563 25.1429 34.4563 24.9979V21.9658C34.4563 21.8207 34.3987 21.6816 34.2962 21.5791C34.1936 21.4765 34.0545 21.4189 33.9095 21.4189H30.8773C30.7323 21.4189 30.5932 21.4765 30.4906 21.5791C30.3881 21.6816 30.3305 21.8207 30.3305 21.9658V24.9979C30.3305 25.1429 30.3881 25.282 30.4906 25.3846C30.5932 25.4871 30.7323 25.5448 30.8773 25.5448ZM31.4242 22.5127H33.3626V24.4511H31.4242V22.5127ZM30.8773 31.2424H33.9095C34.0545 31.2424 34.1936 31.1848 34.2962 31.0822C34.3987 30.9797 34.4563 30.8406 34.4563 30.6955V27.6635C34.4563 27.5185 34.3987 27.3794 34.2962 27.2768C34.1936 27.1743 34.0545 27.1166 33.9095 27.1166H30.8773C30.7323 27.1166 30.5932 27.1743 30.4906 27.2768C30.3881 27.3794 30.3305 27.5185 30.3305 27.6635V30.6955C30.3305 30.8406 30.3881 30.9797 30.4906 31.0822C30.5932 31.1848 30.7323 31.2424 30.8773 31.2424ZM31.4242 28.2104H33.3626V30.1487H31.4242V28.2104ZM30.8773 36.9402H33.9095C34.0545 36.9402 34.1936 36.8826 34.2962 36.7801C34.3987 36.6775 34.4563 36.5384 34.4563 36.3934V33.3612C34.4563 33.2162 34.3987 33.0771 34.2962 32.9746C34.1936 32.872 34.0545 32.8144 33.9095 32.8144H30.8773C30.7323 32.8144 30.5932 32.872 30.4906 32.9746C30.3881 33.0771 30.3305 33.2162 30.3305 33.3612V36.3934C30.3305 36.5384 30.3881 36.6775 30.4906 36.7801C30.5932 36.8826 30.7323 36.9402 30.8773 36.9402ZM31.4242 33.9081H33.3626V35.8465H31.4242V33.9081ZM10.1227 10.0237H7.09062C6.94558 10.0237 6.80649 10.0813 6.70393 10.1838C6.60137 10.2864 6.54375 10.4255 6.54375 10.5705V13.6026C6.54375 13.7476 6.60137 13.8867 6.70393 13.9893C6.80649 14.0918 6.94558 14.1495 7.09062 14.1495H10.1227C10.1945 14.1495 10.2656 14.1353 10.3319 14.1078C10.3983 14.0803 10.4586 14.0401 10.5094 13.9893C10.5601 13.9385 10.6004 13.8782 10.6279 13.8119C10.6554 13.7455 10.6695 13.6744 10.6695 13.6026V10.5705C10.6695 10.4255 10.6119 10.2864 10.5094 10.1838C10.4068 10.0813 10.2677 10.0237 10.1227 10.0237ZM9.57578 13.0557H7.6375V11.1174H9.57578V13.0557ZM10.1227 15.7213H7.09062C6.94558 15.7213 6.80649 15.7789 6.70393 15.8815C6.60137 15.9841 6.54375 16.1232 6.54375 16.2682V19.3003C6.54375 19.4454 6.60137 19.5845 6.70393 19.687C6.80649 19.7896 6.94558 19.8472 7.09062 19.8472H10.1227C10.1945 19.8472 10.2656 19.833 10.3319 19.8056C10.3983 19.7781 10.4586 19.7378 10.5094 19.687C10.5601 19.6362 10.6004 19.5759 10.6279 19.5096C10.6554 19.4432 10.6695 19.3721 10.6695 19.3003V16.2682C10.6695 16.1232 10.6119 15.9841 10.5094 15.8815C10.4068 15.7789 10.2677 15.7213 10.1227 15.7213ZM9.57578 18.7534H7.6375V16.8151H9.57578V18.7534ZM10.1227 21.419H7.09062C6.94558 21.419 6.80649 21.4766 6.70393 21.5792C6.60137 21.6817 6.54375 21.8208 6.54375 21.9659V24.998C6.54375 25.143 6.60137 25.2821 6.70393 25.3847C6.80649 25.4872 6.94558 25.5448 7.09062 25.5448H10.1227C10.1945 25.5448 10.2656 25.5307 10.3319 25.5032C10.3983 25.4757 10.4586 25.4354 10.5094 25.3847C10.5601 25.3339 10.6004 25.2736 10.6279 25.2072C10.6554 25.1409 10.6695 25.0698 10.6695 24.998V21.9659C10.6695 21.8208 10.6119 21.6817 10.5094 21.5792C10.4068 21.4766 10.2677 21.419 10.1227 21.419ZM9.57578 24.451H7.6375V22.5127H9.57578V24.451ZM10.1227 27.1166H7.09062C6.94558 27.1166 6.80649 27.1743 6.70393 27.2768C6.60137 27.3794 6.54375 27.5185 6.54375 27.6635V30.6955C6.54375 30.8406 6.60137 30.9797 6.70393 31.0822C6.80649 31.1848 6.94558 31.2424 7.09062 31.2424H10.1227C10.1945 31.2424 10.2656 31.2283 10.3319 31.2008C10.3983 31.1733 10.4586 31.133 10.5094 31.0822C10.5601 31.0315 10.6004 30.9712 10.6279 30.9048C10.6554 30.8385 10.6695 30.7674 10.6695 30.6955V27.6635C10.6695 27.5185 10.6119 27.3794 10.5094 27.2768C10.4068 27.1743 10.2677 27.1166 10.1227 27.1166ZM9.57578 30.1487H7.6375V28.2104H9.57578V30.1487ZM10.1227 32.8144H7.09062C6.94558 32.8144 6.80649 32.872 6.70393 32.9746C6.60137 33.0771 6.54375 33.2162 6.54375 33.3612V36.3934C6.54375 36.5384 6.60137 36.6775 6.70393 36.7801C6.80649 36.8826 6.94558 36.9402 7.09062 36.9402H10.1227C10.1945 36.9402 10.2656 36.9261 10.3319 36.8986C10.3983 36.8711 10.4586 36.8308 10.5094 36.7801C10.5601 36.7293 10.6004 36.669 10.6279 36.6026C10.6554 36.5363 10.6695 36.4652 10.6695 36.3934V33.3612C10.6695 33.2162 10.6119 33.0771 10.5094 32.9746C10.4068 32.872 10.2677 32.8144 10.1227 32.8144ZM9.57578 35.8465H7.6375V33.9081H9.57578V35.8465Z" fill="#A3ABB0" />
</svg>
