<svg width="41" height="41" viewBox="0 0 41 41" fill="none" xmlns="http://www.w3.org/2000/svg">
	<g clip-path="url(#clip0_13442_15577)">
		<path d="M11.4598 27.1656C10.4427 27.1656 9.61453 27.9937 9.61453 29.0117C9.61453 30.0281 10.4427 30.8555 11.4598 30.8555C12.477 30.8555 13.3052 30.0281 13.3052 29.0117C13.3052 27.9937 12.477 27.1656 11.4598 27.1656ZM11.4598 29.6055C11.1317 29.6055 10.8645 29.3391 10.8645 29.0117C10.8645 28.6828 11.1317 28.4156 11.4598 28.4156C11.788 28.4156 12.0552 28.6828 12.0552 29.0117C12.0552 29.3391 11.788 29.6055 11.4598 29.6055ZM14.5887 14.1187H18.6145C18.9598 14.1187 19.2395 13.8391 19.2395 13.4937V9.47266C19.2395 9.12734 18.9598 8.84766 18.6145 8.84766H14.5887C14.2434 8.84766 13.9637 9.12734 13.9637 9.47266V13.4937C13.9637 13.8391 14.2442 14.1187 14.5887 14.1187ZM15.2137 10.0984H17.9895V12.8695H15.2137V10.0984ZM21.0067 14.1187H25.0309C25.3762 14.1187 25.6559 13.8391 25.6559 13.4937V9.47266C25.6559 9.12734 25.3762 8.84766 25.0309 8.84766H21.0075C20.6622 8.84766 20.3825 9.12734 20.3825 9.47266V13.4937C20.3817 13.8391 20.6614 14.1187 21.0067 14.1187ZM21.6317 10.0984H24.4059V12.8695H21.6325V10.0984H21.6317ZM14.5887 20.5266H18.6145C18.9598 20.5266 19.2395 20.2469 19.2395 19.9016V15.8828C19.2395 15.5375 18.9598 15.2578 18.6145 15.2578H14.5887C14.2434 15.2578 13.9637 15.5375 13.9637 15.8828V19.9016C13.9637 20.2469 14.2442 20.5266 14.5887 20.5266ZM15.2137 16.5078H17.9895V19.2766H15.2137V16.5078ZM21.0067 20.5266H25.0309C25.3762 20.5266 25.6559 20.2469 25.6559 19.9016V15.8828C25.6559 15.5375 25.3762 15.2578 25.0309 15.2578H21.0075C20.6622 15.2578 20.3825 15.5375 20.3825 15.8828V19.9016C20.3817 20.2469 20.6614 20.5266 21.0067 20.5266ZM21.6317 16.5078H24.4059V19.2766H21.6325V16.5078H21.6317ZM35.1403 21.6648H31.1145C30.7692 21.6648 30.4895 21.9445 30.4895 22.2898V26.3109C30.4895 26.6562 30.7692 26.9359 31.1145 26.9359H35.1403C35.4856 26.9359 35.7653 26.6562 35.7653 26.3109V22.2898C35.7653 21.9445 35.4848 21.6648 35.1403 21.6648ZM34.5153 25.6859H31.7395V22.9148H34.5153V25.6859ZM39.8747 38.4391H38.7192V20.468C38.7192 20.2328 38.5872 20.018 38.3778 19.9109L28.7848 15.0289V5.79297C28.7848 5.44766 28.5052 5.16797 28.1598 5.16797H26.9864V1.9375C26.9864 1.59219 26.7067 1.3125 26.3614 1.3125H13.2583C12.913 1.3125 12.6333 1.59219 12.6333 1.9375V5.16719H11.4598C11.1145 5.16719 10.8348 5.44688 10.8348 5.79219V12.7688H4.34266C3.99734 12.7688 3.71766 13.0484 3.71766 13.3938V27.3711L0.756718 29.5297C0.690273 29.578 0.634044 29.6389 0.591271 29.7091C0.548498 29.7792 0.520027 29.8571 0.507499 29.9383C0.481717 30.1023 0.523124 30.2695 0.62078 30.4039L1.87625 32.118C1.99891 32.2852 2.18875 32.3734 2.38094 32.3734C2.50906 32.3734 2.63797 32.3344 2.74891 32.2531L3.71766 31.5469V38.4375H2.56219C2.21687 38.4375 1.93719 38.7172 1.93719 39.0625C1.93719 39.4078 2.21687 39.6875 2.56219 39.6875H39.8747C40.22 39.6875 40.4997 39.4078 40.4997 39.0625C40.4997 38.7172 40.22 38.4391 39.8747 38.4391ZM31.7388 30.6L31.8817 30.4047C31.9794 30.2711 32.02 30.1031 31.995 29.9398C31.97 29.7766 31.8802 29.6289 31.7458 29.5312L31.7388 29.5266V29.3258H34.5145V32.0945H31.7388V30.6ZM30.5036 30.1719L29.988 30.8766L21.413 24.6227C21.3036 24.543 21.1739 24.5023 21.045 24.5023C20.9161 24.5023 20.7864 24.5422 20.677 24.6227L18.0559 26.5344L17.3138 25.9922L21.045 23.2727L30.5036 30.1719ZM13.8833 2.5625H25.7364V5.16719H13.8833V2.5625ZM12.0848 6.41797H27.5348V26.4602L21.413 21.9953C21.306 21.9173 21.177 21.8752 21.0446 21.8752C20.9122 21.8752 20.7832 21.9173 20.6763 21.9953L16.2513 25.2203L12.0848 22.1828V6.41797ZM10.8348 19.2766H7.72859V16.5078H10.8348V19.2766ZM4.96766 14.0195H10.8348V15.2578H7.10359C6.75828 15.2578 6.47859 15.5375 6.47859 15.8828V19.9016C6.47859 20.2469 6.75828 20.5266 7.10359 20.5266H10.8348V22.1828L4.96766 26.4609V14.0195ZM2.51609 30.8773L1.99891 30.1719L11.4598 23.2742L20.9208 30.1727L20.4052 30.8773L11.8278 24.6227C11.7209 24.5446 11.5919 24.5025 11.4595 24.5025C11.327 24.5025 11.1981 24.5446 11.0911 24.6227L2.51609 30.8773ZM9.61766 38.4391V34.1195H13.302V38.4391H9.61766ZM14.552 38.4391V33.4945C14.552 33.1492 14.2723 32.8695 13.927 32.8695H8.99266C8.64734 32.8695 8.36766 33.1492 8.36766 33.4945V38.4391H4.96766V30.6367L11.4598 25.9016L17.952 30.6352V38.4391H14.552ZM19.2028 38.4391V31.5469L20.1739 32.2547C20.4528 32.4578 20.8434 32.3969 21.0466 32.1187L22.2997 30.4047C22.3974 30.2705 22.4381 30.1031 22.413 29.9391C22.3872 29.7753 22.2976 29.6283 22.1637 29.5305L19.1161 27.3086L21.045 25.9016L27.5356 30.6352V38.4391H19.2028ZM28.7848 38.4391V31.5469L29.7559 32.2547C29.8626 32.333 29.9916 32.3752 30.1239 32.375C30.2536 32.375 30.3817 32.3336 30.4895 32.2562V32.7188C30.4895 33.0641 30.7692 33.3438 31.1145 33.3438H35.1403C35.4856 33.3438 35.7653 33.0641 35.7653 32.7188V28.7C35.7653 28.3547 35.4856 28.075 35.1403 28.075H31.1145C30.7973 28.075 30.5356 28.3117 30.4958 28.6187L28.7856 27.3719V16.4313L37.47 20.8508V38.4391H28.7848Z" fill="#A3ABB0" />
	</g>
	<defs>
		<clipPath id="clip0_13442_15577">
			<rect width="40" height="40" fill="white" transform="translate(0.5 0.5)" />
		</clipPath>
	</defs>
</svg>
