<svg width="41" height="41" viewBox="0 0 41 41" fill="none" xmlns="http://www.w3.org/2000/svg">
	<path d="M9.875 35.5H11.125V36.75H9.875V35.5Z" fill="#A3ABB0" />
	<path d="M24.25 28H13.625V18.625C13.625 18.4592 13.5592 18.3003 13.4419 18.1831C13.3247 18.0658 13.1658 18 13 18H1.75C1.58424 18 1.42527 18.0658 1.30806 18.1831C1.19085 18.3003 1.125 18.4592 1.125 18.625V38.625C1.125 38.7908 1.19085 38.9497 1.30806 39.0669C1.42527 39.1842 1.58424 39.25 1.75 39.25H24.25C24.4158 39.25 24.5747 39.1842 24.6919 39.0669C24.8092 38.9497 24.875 38.7908 24.875 38.625V28.625C24.875 28.4592 24.8092 28.3003 24.6919 28.1831C24.5747 28.0658 24.4158 28 24.25 28ZM17.375 29.25H19.875V31.75H17.375V29.25ZM6.125 19.25H8.625V21.75H6.125V19.25ZM2.375 19.25H4.875V22.375C4.875 22.5408 4.94085 22.6997 5.05806 22.8169C5.17527 22.9342 5.33424 23 5.5 23H9.25C9.41576 23 9.57473 22.9342 9.69194 22.8169C9.80915 22.6997 9.875 22.5408 9.875 22.375V19.25H12.375V28H2.375V19.25ZM6.125 29.25H8.625V31.75H6.125V29.25ZM2.375 29.25H4.875V32.375C4.875 32.5408 4.94085 32.6997 5.05806 32.8169C5.17527 32.9342 5.33424 33 5.5 33H9.25C9.41576 33 9.57473 32.9342 9.69194 32.8169C9.80915 32.6997 9.875 32.5408 9.875 32.375V29.25H12.375V38H2.375V29.25ZM23.625 38H13.625V29.25H16.125V32.375C16.125 32.5408 16.1908 32.6997 16.3081 32.8169C16.4253 32.9342 16.5842 33 16.75 33H20.5C20.6658 33 20.8247 32.9342 20.9419 32.8169C21.0592 32.6997 21.125 32.5408 21.125 32.375V29.25H23.625V38Z" fill="#A3ABB0" />
	<path d="M21.125 35.5H22.375V36.75H21.125V35.5ZM9.875 25.5H11.125V26.75H9.875V25.5Z" fill="#A3ABB0" />
	<path d="M37.8534 9.23252C37.9015 9.24417 37.9507 9.25005 38.0001 9.25002C38.1096 9.24994 38.2172 9.22116 38.3121 9.16655C38.4071 9.11194 38.486 9.0334 38.5412 8.93877C38.5979 8.83885 38.6269 8.72555 38.6251 8.61065V6.12502C38.6251 5.98477 38.5779 5.8486 38.4911 5.73842C38.4044 5.62823 38.2831 5.55043 38.1467 5.51752L20.0217 1.14252C19.9254 1.11916 19.8248 1.11916 19.7284 1.14252L1.60345 5.51752C1.46711 5.55043 1.34581 5.62823 1.25905 5.73842C1.17228 5.8486 1.1251 5.98477 1.12509 6.12502V8.60729C1.12295 8.73816 1.16036 8.86662 1.23243 8.97588C1.30395 9.08105 1.4058 9.16194 1.52443 9.20779C1.64306 9.25364 1.77284 9.26226 1.89649 9.23252L3.00009 8.96619V16.75H4.25009V8.66447L19.8751 4.89291L35.5001 8.66447V38H31.7501V13.625C31.7501 13.4593 31.6842 13.3003 31.567 13.1831C31.4498 13.0659 31.2908 13 31.1251 13H8.62509C8.45933 13 8.30035 13.0659 8.18314 13.1831C8.06593 13.3003 8.00009 13.4593 8.00009 13.625V16.125C8.00009 16.2908 8.06593 16.4498 8.18314 16.567C8.30035 16.6842 8.45933 16.75 8.62509 16.75H30.5001V18H14.8751V19.25H30.5001V20.5H14.8751V21.75H30.5001V23H14.8751V24.25H30.5001V38H26.1251V39.25H38.6251V38H36.7501V8.96619L37.8534 9.23252ZM9.25009 15.5V14.25H30.5001V15.5H9.25009ZM19.8751 3.62502C19.8257 3.625 19.7765 3.63087 19.7284 3.64252L2.37509 7.83119V6.61721L19.8751 2.39299L37.3751 6.61721V7.83127L20.0217 3.64252C19.9737 3.63087 19.9245 3.625 19.8751 3.62502Z" fill="#A3ABB0" />
	<path d="M21.125 11.125C21.6223 11.125 22.0992 10.9275 22.4508 10.5758C22.8025 10.2242 23 9.74728 23 9.25C23 8.75272 22.8025 8.27581 22.4508 7.92417C22.0992 7.57254 21.6223 7.375 21.125 7.375H18.625C18.1277 7.375 17.6508 7.57254 17.2992 7.92417C16.9475 8.27581 16.75 8.75272 16.75 9.25C16.75 9.74728 16.9475 10.2242 17.2992 10.5758C17.6508 10.9275 18.1277 11.125 18.625 11.125H21.125ZM18 9.25C18.0002 9.0843 18.0661 8.92543 18.1833 8.80826C18.3004 8.69109 18.4593 8.62519 18.625 8.625H21.125C21.2908 8.625 21.4497 8.69085 21.5669 8.80806C21.6842 8.92527 21.75 9.08424 21.75 9.25C21.75 9.41576 21.6842 9.57473 21.5669 9.69194C21.4497 9.80915 21.2908 9.875 21.125 9.875H18.625C18.4593 9.87481 18.3004 9.80891 18.1833 9.69174C18.0661 9.57457 18.0002 9.4157 18 9.25Z" fill="#A3ABB0" />
</svg>
