<svg width="41" height="41" viewBox="0 0 41 41" fill="none" xmlns="http://www.w3.org/2000/svg">
	<g clip-path="url(#clip0_13442_15617)">
		<path d="M7.65002 17.1166H6.38331V15.5499H9.94573L5.22309 28.7833H0.55V27.2166H4.07501H4.11024L4.12209 27.1835L7.6971 17.1835L7.721 17.1166H7.65002ZM12.3654 15.5499H15.45V17.1166H13.675H13.6346L13.6261 17.1562L11.4845 27.1562L11.4715 27.2166H11.5333H29.4667H29.5285L29.5155 27.1562L27.3738 17.1562L27.3654 17.1166H27.3249H25.5499V15.5499H28.6345L31.4715 28.7833H9.52855L12.3654 15.5499ZM35.7769 28.7833L31.0543 15.5499H34.6166V17.1166H33.35H33.279L33.3029 17.1835L36.8779 27.1835L36.8898 27.2166H36.925H40.45V28.7833H35.7769ZM0.55 38.8832H40.45V40.4499H0.55V38.8832ZM1.38332 33.0499H3.78335V34.6166H1.38332V33.0499ZM6.38331 33.0499H8.78334V34.6166H6.38331V33.0499ZM11.3833 33.0499H13.7833V34.6166H11.3833V33.0499ZM16.3833 33.0499H18.7833V34.6166H16.3833V33.0499ZM21.3834 33.0499H23.7834V34.6166H21.3834V33.0499ZM26.3833 33.0499H28.7834V34.6166H26.3833V33.0499ZM31.3833 33.0499H33.7834V34.6166H31.3833V33.0499ZM36.3833 33.0499H38.7834V34.6166H36.3833V33.0499ZM28.05 11.3833H32.95V12.9499H28.05V11.3833ZM8.05003 11.3833H12.95V12.9499H8.05003V11.3833Z" fill="#A3ABB0" stroke="white" stroke-width="0.1" />
		<path d="M20.4595 17.4964L20.4996 17.5505L20.5398 17.4964C21.2821 16.4955 22.5336 14.7227 23.5997 12.7813C24.6646 10.8422 25.5496 8.72618 25.5496 7.04164C25.5496 4.32122 23.2844 2.11664 20.4996 2.11664C17.7149 2.11664 15.4496 4.32114 15.4496 7.04164C15.4496 8.72622 16.3347 10.8422 17.3996 12.7813C18.4657 14.7227 19.7172 16.4955 20.4595 17.4964ZM21.1107 19.327L20.4996 20.0791L19.889 19.3275C19.8889 19.3274 19.8888 19.3273 19.8888 19.3272C19.8836 19.3206 19.876 19.311 19.8661 19.2984C19.6399 19.0121 18.2029 17.1922 16.7935 14.8585C16.0574 13.6396 15.3294 12.2814 14.7855 10.9291C14.2414 9.57625 13.883 8.23253 13.883 7.04164C13.883 3.46185 16.8514 0.55 20.4996 0.55C24.1479 0.55 27.1163 3.46185 27.1163 7.04164C27.1163 8.23462 26.7578 9.57991 26.2137 10.9338C25.6699 12.2871 24.9419 13.6458 24.2058 14.8647C22.7339 17.3019 21.2318 19.1766 21.1108 19.3268C21.1108 19.3269 21.1107 19.3269 21.1107 19.327Z" fill="#A3ABB0" stroke="white" stroke-width="0.1" />
		<path d="M19.6167 7.16654C19.6167 6.68058 20.0141 6.28322 20.5 6.28322C20.986 6.28322 21.3834 6.68065 21.3834 7.16654H19.6167ZM19.6167 7.16654C19.6167 7.6525 20.0141 8.04986 20.5 8.04986M19.6167 7.16654L20.5 8.04986M20.5 8.04986C20.986 8.04986 21.3833 7.65251 21.3834 7.16655L20.5 8.04986ZM20.5 9.61658C19.1527 9.61658 18.05 8.51397 18.05 7.16654C18.05 5.81911 19.1526 4.7165 20.5 4.7165C21.8475 4.7165 22.9501 5.81911 22.9501 7.16654C22.9501 8.51397 21.8475 9.61658 20.5 9.61658Z" fill="#A3ABB0" stroke="white" stroke-width="0.1" />
	</g>
	<defs>
		<clipPath id="clip0_13442_15617">
			<rect width="40" height="40" fill="white" transform="translate(0.5 0.5)" />
		</clipPath>
	</defs>
</svg>
